<?xml version="1.0" encoding="utf-8"?>
<!-- Generator: Adobe Illustrator 23.0.3, SVG Export Plug-In . SVG Version: 6.00 Build 0)  -->
<svg version="1.1" id="Calque_1" xmlns="http://www.w3.org/2000/svg" xmlns:xlink="http://www.w3.org/1999/xlink" x="0px" y="0px"
	 viewBox="0 0 283.46 283.46" style="enable-background:new 0 0 283.46 283.46;" xml:space="preserve">
<style type="text/css">
	.st0{fill:#FFFFFF;}
</style>
<g>
	<path class="st0" d="M153.11,252.18c5.52,0.6,10.82,1.7,15.25,5.33c0.11-0.11,0.23-0.22,0.34-0.33c-0.67-0.81-1.23-1.74-2.02-2.42
		c-3.53-3.05-7.6-5.13-12.24-5.82c-8.15-1.21-16.13-0.38-23.91,2.31c-0.75,0.26-1.47,0.65-2.63,1.17c2.37,0.83,4.27,1.5,5.94,2.09
		C140.3,252.55,146.58,251.47,153.11,252.18z"/>
	<path class="st0" d="M204.45,190.36c-5.4-8.59-11.26-16.87-17.42-24.94c-2.73-3.58-5.45-7.17-8.17-10.76
		c-0.39-0.52-0.93-1.05-0.47-2.13c0.66,0.62,1.25,1.06,1.7,1.62c9.17,11.36,18,22.97,25.52,35.5c0.28,0.46,0.66,0.86,1.13,1.45
		c6.04-4.66,12.79-8.19,17.05-14.74c-0.33-0.44-0.62-0.84-0.92-1.24c-3.32-4.56-6.62-9.13-9.96-13.68
		c-0.39-0.53-0.94-1.06-1.53-1.33c-3.94-1.82-6.93-4.69-9.29-8.24c-1.43-2.14-2.77-4.27-4.48-6.26
		c-6.16-7.16-12.01-14.59-17.99-21.91c-0.26-0.32-0.62-0.56-1.08-0.96c-0.4,0.76-0.71,1.37-1.03,1.98
		c-4.28,8.12-8.56,16.25-12.83,24.38c-0.32,0.61-0.57,1.26-0.86,1.9l0.01-0.02c0,0,0,0,0,0l0,0c0,0.01,0.01,0.01,0.01,0.02
		c1.21,0.13,1.85,0.99,2.42,1.92c2.93,4.75,5.96,9.43,8.75,14.26c5.01,8.68,9.21,17.76,12.92,27.06c0.49,1.23,0.8,2.53,1.16,3.81
		c0.12,0.41,0.16,0.84-0.01,1.38c-0.24-0.31-0.56-0.58-0.71-0.92c-0.69-1.56-1.36-3.14-1.99-4.72
		c-4.87-12.21-11.01-23.77-17.93-34.95c-1.59-2.58-3.08-5.22-4.62-7.84c-0.01,0-0.01,0-0.02,0c-1.01,1.67-2,3.36-3.05,5.01
		c-0.39,0.61-0.91,1.13-1.6,1.97c-5.34-4.63-10.1-9.56-15.31-13.97c-5.2-4.41-10.44-8.78-16-12.8c0.07,0.55,0.25,1,0.48,1.41
		c2.26,4.11,4.57,8.19,6.77,12.32c7.18,13.52,12.94,27.63,17.69,42.15c0.92,2.82,1.63,5.72,2.37,8.59c0.29,1.13,0.4,2.32,0.6,3.47
		c-0.51-0.44-0.72-0.95-0.89-1.47c-2.45-7.25-4.8-14.54-7.38-21.75c-3.74-10.44-8.37-20.51-13.56-30.32
		c-0.25-0.47-0.61-0.89-0.86-1.25c-3.21,1.72-6.22,3.34-9.31,5l-2.21,0.79c-3.61,1.15-6.86,2.19-10.31,3.29l-2.34,0.71
		c-0.5,0.07-1.01,0.17-1.5,0.3c-8.92,2.41-17.99,3.44-27.25,3.11c-5.74-0.21-11.47-0.43-17.16-1.25c-8.63-1.25-16.71-4.03-24.1-8.67
		c-0.48-0.3-0.88-0.71-1.29-1.11c-0.1-0.1-0.05-0.34-0.07-0.53c0.55-0.24,1.06-0.47,1.4-0.62c9.34-14.48,18.74-28.67,31-40.79
		c-2.44-0.74-2.62-0.71-4.58,0.43c-8.16,4.75-15.62,10.51-23.28,15.97c-1.35,0.96-2.05,2.08-2.27,3.71
		c-0.98,7.2-2.09,14.38-3.08,21.58c-0.57,4.12-0.61,8.27-1.35,12.4c-0.7,3.9-0.69,7.92-0.95,11.89c-0.19,2.84-0.38,5.68-0.45,8.52
		c-0.15,6.44-0.22,12.89-0.31,19.34c0,0.11,0.09,0.22,0.25,0.56c0.78-2.3,1.48-4.44,2.22-6.56c0.73-2.09,1.48-4.18,2.25-6.25
		c0.79-2.14,1.6-4.27,2.42-6.39c0.8-2.07,1.58-4.14,2.43-6.18c0.86-2.05,1.48-4.22,2.74-6.3c0.19,0.38,0.31,0.51,0.28,0.59
		c-0.22,0.66-0.43,1.32-0.7,1.96c-4.34,10.34-8.27,20.82-11.45,31.57c-0.25,0.84-0.43,1.73-0.44,2.6
		c-0.03,10.87-0.16,21.75,1.28,32.56c0.17,1.24,0.35,2.47,0.53,3.73c2,0.57,3.86,0.66,5.84,0.31c0.22-0.68,0.45-1.26,0.6-1.86
		c3.46-13.02,6.82-26.07,10.39-39.06c1.86-6.76,4.07-13.43,6.13-20.14c0.11-0.35,0.35-0.67,0.53-1
		c-5.84,20.53-10.55,41.28-16.06,61.81c3.05,1.08,20.77,0.33,24.43-0.97c0.23-0.39,0.55-0.86,0.81-1.36
		c2.53-4.96,5.13-9.9,7.55-14.91c4.75-9.84,8.47-20.05,11.2-30.62c1.74-6.74,3.24-13.53,4.16-20.43c0.07-0.52-0.02-1.16,0.72-1.35
		c0.48,1.16,0.5,1.29,0.32,2.52c-2,13.77-5.68,27.09-10.66,40.08c-3.18,8.29-7.08,16.25-11.23,24.09c-0.27,0.52-0.49,1.07-0.77,1.68
		c5.14,0.57,40.76-6.98,47.33-10.02c3.64-8.1,6.16-16.73,7.59-25.71c1.43-8.99,1.43-18.03,1-27.13c0.34,0.29,0.54,0.59,0.6,0.92
		c0.24,1.43,0.59,2.87,0.64,4.31c0.3,7.85,0.13,15.67-1.36,23.42c-1.39,7.22-3.31,14.29-5.88,21.19c-0.29,0.78-0.82,1.55-0.62,2.59
		c0.73-0.2,1.34-0.36,1.94-0.54c3.18-0.94,6.35-1.89,9.53-2.84c10.5-3.16,20.98-6.38,31.24-10.26
		c14.85-5.61,28.89-12.75,41.97-21.72c0.6-0.41,1.14-0.92,1.75-1.42C204.9,191.25,204.72,190.78,204.45,190.36z"/>
	<path class="st0" d="M166.82,258.95c0.35,0.07,0.75-0.06,1.43-0.14c-2.08-1.78-4.1-2.93-6.34-3.69
		c-8.31-2.81-16.65-2.35-25.01-0.24c-0.2,0.05-0.36,0.24-0.78,0.53c3.79,1.51,7.31,2.91,10.27,4.09c2.38-0.47,4.17-1.05,5.97-1.13
		C157.18,258.18,162.03,258,166.82,258.95z"/>
	<path class="st0" d="M43.17,91.21c3.54-19.56,11.34-36.89,25.53-51.3c-0.63-0.33-1.04-0.61-1.49-0.78
		c-2.52-0.92-5.11-1.11-7.72-0.56c-4.41,0.94-7.68,3.51-10.22,7.12c-3.53,5.02-5.5,10.67-6.72,16.6c-0.55,2.65-0.8,5.36-1.15,8.04
		c-0.83,6.39-0.6,12.73,1.15,18.97C42.73,89.94,42.96,90.57,43.17,91.21z"/>
	<path class="st0" d="M219.63,164.07c-1.68-0.85-2.63-2.33-4.68-2.59c0.98,1.61,1.66,3.05,3.06,4.1
		C218.52,165.1,218.92,164.72,219.63,164.07z"/>
	<path class="st0" d="M206.85,235.48c-5.22,1.87-10.03,3.47-14.5,6.21c-0.23,1.13-0.46,2.27-0.79,3.87
		c5.27-2.17,10.51-2.93,15.29-4.87C206.85,238.94,206.85,237.41,206.85,235.48z"/>
	<path class="st0" d="M206.54,232.28c0.13-1.95,0.22-3.66-0.15-5.72c-3.18,2.34-6.91,3.33-8.93,6.58c0.09,0.15,0.18,0.3,0.27,0.45
		C200.65,233.16,203.56,232.72,206.54,232.28z"/>
	<path class="st0" d="M206.55,233.79c-1.47-0.6-7.37,0.21-10.68,1.42c-0.69,1.09-1.48,2.36-2.45,3.9c4.39-1.64,8.36-3.12,12.32-4.62
		C206.03,234.38,206.24,234.06,206.55,233.79z"/>
	<path class="st0" d="M212.5,203.35c-0.75,0.68-1.26,1.13-1.76,1.59c-1.63,1.5-3.2,3.08-4.92,4.48c-1.09,0.9-1.56,1.99-1.95,3.33
		c3.62-1.65,7.07-3.23,10.75-4.91C213.99,206.49,213.33,205.09,212.5,203.35z"/>
	<path class="st0" d="M205.74,207.02c6.1-5.72,12.34-10.85,17.8-16.97c-1.83-1.92-3.51-3.67-5.29-5.28
		c-0.45,0.29-0.68,0.41-0.88,0.56c-2.93,2.22-5.86,4.45-8.79,6.68c-0.55,0.42-1.12,0.83-1.68,1.24c0.07,0.05,0.14,0.11,0.22,0.16
		c-0.75,0.41-1.5,0.82-2.25,1.22c0,1.7,0,3.19,0,4.69c0.15,0.08,0.3,0.17,0.46,0.25c1.08-1.13,2.16-2.25,3.25-3.38
		c1.14-1.19,2.24-2.42,3.44-3.55c1.11-1.04,1.97-2.39,3.68-2.78c-3.61,3.76-7.22,7.53-10.74,11.21
		C204.72,203.15,204.93,204.96,205.74,207.02z"/>
	<path class="st0" d="M208.57,215.42c2.43-1.57,5.01-2.92,7.69-4.46c-0.43-0.76-0.82-1.43-1.23-2.15c-4.13,1.6-7.89,3.45-11.48,5.63
		c-0.36,0.22-0.72,0.59-0.87,0.97c-0.6,1.57-1.12,3.17-1.67,4.77c0.16,0.1,0.32,0.21,0.48,0.31
		C203.85,218.79,206.14,216.99,208.57,215.42z"/>
	<path class="st0" d="M44.17,97.83c-1.13,7.32-2.19,14.27-3.31,21.54c5.76-4.03,11.23-7.86,17.05-11.93
		C51.27,106.93,47.33,103.08,44.17,97.83z"/>
	<path class="st0" d="M195.86,124.76c0.32,0.43,0.73,0.8,1.1,1.2c0.13-0.02,0.27-0.04,0.4-0.06c0.2-6.95,0.56-13.87,3.91-20.07
		c-1.85-1.67-9.69-5.99-11.77-6.51c-0.26,0.44-0.58,0.9-0.82,1.39c-1.31,2.74-2.62,5.48-3.88,8.24c-0.55,1.2-0.96,2.45-1.44,3.68
		c1.19-0.02,1.99,0.69,2.77,1.44C189.61,117.43,192.95,120.9,195.86,124.76z"/>
	<path class="st0" d="M198.44,144.71c-0.33-1.73-0.83-3.38-0.94-5.05c-0.22-3.53-0.28-7.07-0.33-10.6
		c-0.02-1.14-0.31-2.05-1.14-2.88c-3.88-3.93-7.72-7.89-11.55-11.86c-0.46-0.48-0.77-1.1-1.14-1.66c-1.43,2.87-2.85,5.74-4.15,8.34
		C185.76,129.08,192.08,136.87,198.44,144.71z"/>
	<path class="st0" d="M73.28,41.15c6.43,5.13,10.24,11.7,10.95,19.89c0.23,2.69,0.04,5.42,0.07,8.14c0.01,0.59,0.11,1.19,0.18,1.9
		c2.85-0.32,4.13,1.88,6.1,3.48c-0.62-10.21,1.75-19.06,8.65-26.39c6.85-7.27,15.46-10.44,25.4-10.47
		c-3.45-0.41-6.87-0.78-10.3-0.99c-4.51-0.27-9.01-0.84-13.55-0.4c-0.98,0.09-2.02,0-2.6-1.05c0.58-1.02,1.49-0.74,2.27-0.82
		c1.13-0.11,2.44,0.1,3.36-0.39c3.45-1.83,7.21-2.52,10.96-3.2c6.62-1.19,13.1-0.73,19.28,2.09c1.38,0.63,2.65,1.51,3.89,2.37
		c0.66,0.46,1.29,1.07,1.16,2.05c-0.49,1.02-1.5,1.17-2.43,1.22c-1.46,0.08-2.93,0-4.39-0.05c-0.95-0.04-1.89-0.15-2.83-0.24
		c0.54,0.41,1.13,0.54,1.72,0.71c11.03,3.19,19.51,9.43,24.35,20.01c2.8,6.12,3.9,12.51,3.08,19.22
		c-0.92,7.49-3.97,14.08-8.49,20.04c-3.68,4.85-8.28,8.54-14.06,10.72c-6.86,2.59-13.98,3.48-21.25,2.86
		c-4.72-0.4-9.09-2.03-12.64-5.3c-1.15-1.06-2.06-2.37-3.17-3.65c-1.17,0.26-2.36,0.52-3.96,0.88c2.8,2.11,5.22,3.95,7.67,5.75
		c5.63,4.15,11.26,8.29,16.92,12.41c0.8,0.59,1.72,1.02,2.59,1.52c-0.11,0.1-0.23,0.2-0.34,0.31c1.14,0.92,2.28,1.84,3.42,2.76
		c3.01,2.44,6.02,4.88,9.03,7.32c8,6.48,15.95,13.02,23.12,20.42c0.34,0.35,0.75,0.65,1.37,1.19c0.65-1.11,1.19-1.95,1.67-2.83
		c1.81-3.34,3.64-6.67,5.38-10.05c3.4-6.58,6.85-13.14,10.09-19.8c3.68-7.57,7.15-15.24,10.72-22.87c1.59-3.38,3.23-6.74,4.8-10.12
		c0.28-0.61,0.52-1.33,0.47-1.99c-0.37-5.39-1.26-10.71-3.55-15.64c-2.54-5.44-5.23-10.83-8.09-16.11
		c-3.14-5.82-7.15-11.05-11.74-15.85c-9.4-9.81-20.43-17.3-32.88-22.76c-3.26-1.43-6.63-2.63-9.96-3.9c-2.1-0.8-4.2-0.78-6.34,0.04
		c-4.94,1.87-9.97,3.53-14.87,5.5c-8.31,3.34-16.1,7.64-23.37,12.85c-0.64,0.46-1.25,0.95-2.04,1.56c2.55,0.96,5.05,1.01,7.11,2.15
		c-0.18,1.21-0.98,1.22-1.64,1.28c-2.92,0.24-5.84,0.52-8.76,0.58c-1.92,0.04-2.99,1-3.85,2.43c0.15,0.21,0.2,0.34,0.3,0.42
		C72.58,40.6,72.93,40.87,73.28,41.15z"/>
	<path class="st0" d="M139.54,17.57c1.27,0.54,2.39,0.62,3.68,0.17c2.65-0.92,5.29-1.89,8-2.58c9.62-2.44,19.43-2.8,29.25-1.78
		c10.71,1.12,20.38,4.96,28.61,12.04c1.83,1.57,3.32,3.4,4.67,5.36c-0.1,0.1-0.2,0.2-0.3,0.29c-0.89-0.85-1.79-1.7-2.68-2.56
		c-7.67-7.46-16.96-11.81-27.43-13.7c-5.72-1.04-11.51-1.05-17.33-0.89c-7.74,0.21-15.2,1.6-22.46,4.19
		c-0.37,0.13-0.7,0.38-1.08,0.59c0.19,0.22,0.25,0.35,0.35,0.4c5.49,2.85,10.78,6.03,15.7,9.78c0.71,0.54,1.46,0.58,2.33,0.52
		c2.03-0.14,4.09-0.28,6.11-0.1c6.7,0.6,13.22,2.12,19.6,4.18c8.73,2.83,16.82,6.96,24.42,12.05c5.81,3.89,10.87,8.58,14.89,14.3
		c1.79,2.54,3.43,5.18,5.16,7.76c0.39,0.58,0.87,1.1,1.3,1.65c0.1-0.86-0.05-1.53-0.25-2.18c-1.71-5.58-3.82-11.01-6.48-16.21
		c-2.94-5.75-6.1-11.39-9.2-17.05c-2.52-4.61-5.03-9.23-7.68-13.78c-2.67-4.58-6.26-8.43-10.35-12.08
		c-3.85-0.58-7.81-1.21-11.78-1.75c-2.65-0.36-5.32-0.81-7.98-0.81c-5.54-0.02-11.14-0.19-16.62,0.46
		c-10.12,1.2-20.19,2.93-30.26,4.5c-1.99,0.31-3.95,0.88-6.37,1.44c0.71,0.32,0.98,0.45,1.26,0.56
		C130.93,14.09,135.26,15.77,139.54,17.57z"/>
	<path class="st0" d="M215.5,50.4c-7.21-6.05-15.39-10.59-24.09-14.16c-7.57-3.11-15.49-5.08-23.6-6.18
		c-2.37-0.32-4.77-0.17-7.15-0.11c-0.04,0.13-0.09,0.26-0.13,0.38c0.55,0.49,1.11,0.98,1.66,1.47c2.08,1.86,4.23,3.66,6.23,5.6
		c5.65,5.45,10.4,11.61,14.26,18.44c0.33,0.59,0.77,1.12,1.01,1.46c9.48,1.25,17.96,4.39,25.82,9.18
		c7.88,4.8,14.06,11.4,19.48,18.71c2.4-0.16,4.66-0.32,7.03-0.48c0-0.72,0.1-1.29-0.02-1.82c-0.65-3.09-1.32-6.18-2.07-9.25
		c-0.17-0.7-0.62-1.37-1.05-1.97c-1.86-2.64-3.92-5.16-5.62-7.89C224.07,58.66,220.08,54.25,215.5,50.4z"/>
	<path class="st0" d="M203.09,102.7c1.95-2.98,4.14-5.75,6.89-8.07c4.53-3.82,9.63-6.59,15.31-8.33c0.64-0.2,1.25-0.49,2.13-0.83
		c-0.64-0.88-1.09-1.55-1.6-2.17c-1.01-1.22-2.07-2.4-3.09-3.61c-9.47-11.27-21.63-18.03-35.99-21.09
		c-0.71-0.15-1.47-0.39-2.32,0.21c0.57,1.1,1.11,2.16,1.66,3.2c2.5,4.7,4.91,9.45,6.1,14.67c0.74,3.26,1.26,6.57,1.83,9.86
		c0.26,1.53,0.01,3.01-0.67,4.43c-0.9,1.88-1.78,3.78-2.65,5.67c-0.23,0.49-0.38,1.02-0.59,1.58c3.99,2.15,7.82,4.22,11.75,6.35
		C202.33,103.84,202.71,103.27,203.09,102.7z"/>
	<path class="st0" d="M114.26,149.99c2.82-0.04,15.9-5.55,17.98-7.55c-0.24-0.52-0.47-1.11-0.78-1.65
		c-2.14-3.81-4.26-7.63-6.49-11.39c-0.6-1.01-1.4-1.99-2.32-2.71c-5.11-3.99-10.25-7.93-15.44-11.82
		c-4.78-3.58-9.62-7.08-14.62-10.76c-0.27,0.02-0.58,0.04-0.9,0.07c-4.94,0.51-9.87,1.21-14.86,0.63c-0.88-0.1-1.79-0.03-2.67-0.1
		c-1.23-0.1-2.26,0.26-3.12,1.13c-1.65,1.67-3.36,3.28-4.95,5.01c-4.52,4.9-8.62,10.16-12.41,15.63
		c-4.29,6.2-8.41,12.51-12.59,18.78c-0.26,0.4-0.41,0.88-0.66,1.43c0.96,0.61,1.77,1.22,2.66,1.68c6.44,3.37,13.28,5.51,20.51,6.34
		c3.6,0.41,7.24,0.58,10.85,0.89c5.86,0.51,11.72,0.36,17.57-0.2c6.5-0.62,12.81-2.19,19.05-4.04c0.53-0.16,1.03-0.42,1.66-0.67
		c-0.24-1.56-0.46-3.02-0.68-4.47c0.13-0.04,0.26-0.09,0.39-0.13C113.06,147.4,113.67,148.73,114.26,149.99z M77.13,107.2
		c-3.88,5.96-7.08,12.28-10.04,18.72c-3.11,6.78-6,13.66-8.99,20.49c-0.27,0.62-0.46,1.33-1.41,1.36c-0.45-0.83,0.04-1.51,0.3-2.16
		c1.64-4.04,3.22-8.11,5.03-12.08c2.55-5.58,5.21-11.11,7.98-16.58c1.71-3.38,3.71-6.62,5.6-9.91c0.28-0.49,0.6-0.99,1.01-1.37
		c0.26-0.23,0.72-0.25,1.09-0.36c0.09,0.15,0.17,0.3,0.26,0.45C77.69,106.24,77.43,106.74,77.13,107.2z M82.36,149.92
		c-0.89-9.73-1.32-19.44,0.01-29.12c0.26-0.02,0.32-0.04,0.38-0.02c0.05,0.02,0.13,0.08,0.13,0.12
		C82.02,130.56,82.08,140.24,82.36,149.92z M107.04,137.27c-0.1-0.07-0.26-0.12-0.3-0.22c-4.02-10.4-9.03-20.32-14.58-29.99
		c-0.04-0.07,0.05-0.22,0.14-0.61c1.36,2.12,2.63,4.06,3.86,6.03c3.74,6.05,6.73,12.46,9.5,18.98c0.54,1.28,1.13,2.55,1.59,3.85
		c0.21,0.59,0.17,1.26,0.25,1.89C107.35,137.24,107.19,137.26,107.04,137.27z"/>
	<path class="st0" d="M167.65,260.18c-6.4-1.33-12.74-1.2-19.15-0.18c2.07,1.14,4.44,1.5,6.53,2.82c-0.34,2.38-2,4.23-2.42,6.53
		C156.65,269.15,166.17,263.4,167.65,260.18z"/>
	<path class="st0" d="M95.83,86.81c-0.32-0.96-0.64-1.92-0.97-2.89c-0.13,0.01-0.26,0.03-0.39,0.04
		C94.48,85.75,94.6,86.05,95.83,86.81z"/>
	<path class="st0" d="M92.27,82.99c-0.21-0.59-0.28-1.26-0.62-1.75c-1.22-1.78-2.49-3.52-3.8-5.23c-0.68-0.89-1.36-1.82-2.74-2.35
		c-0.38,0.64-0.81,1.22-1.11,1.87c-1.22,2.57-2.23,5.26-3.64,7.72c-3.95,6.91-9.45,12.52-15.56,17.58c-0.3,0.25-0.54,0.58-0.89,0.96
		c2.29,0.9,4.64-0.03,6.7,0.97c8.49,0.87,16.94,0.58,25.32-1.09c0.73-0.14,1.42-0.43,2-0.61c0.91-1.87,0.92-3.65,0.71-5.41
		c-0.24-2.09-1.35-3.05-3.46-2.99c-0.94,0.03-1.88,0.3-2.82,0.45c-0.65,0.11-1.33,0.47-2.04-0.14c0.15-0.25,0.23-0.52,0.41-0.65
		c2.23-1.6,4.63-1.54,7.09-0.62c2.29,0.85,3.2,2.66,3.22,4.9c0.01,1.68-0.3,3.37-0.52,5.53c0.44,0.6,1.07,1.63,1.88,2.5
		c2.58,2.78,5.76,4.69,9.51,5.29c8.18,1.31,16.15,0.37,23.84-2.7c4.47-1.78,8.19-4.61,11.29-8.24c2.94-3.45,5.34-7.24,7.06-11.44
		c3.4-8.3,3.78-16.74,0.82-25.2c-2.44-6.98-6.6-12.84-12.9-16.97c-10.79-7.08-22.09-8.31-33.63-2.09
		c-9.05,4.88-14.23,12.6-15.36,22.85c-0.09,0.82-0.24,1.62-0.4,2.43c-0.66,3.37-0.13,6.66,0.72,9.92c0.11,0.42,0.37,0.8,0.59,1.19
		c0.92,1.58,1.93,3.13,2.76,4.76c0.45,0.88,0.72,1.89,0.88,2.87c0.14,0.88-0.03,1.78-0.99,2.29c-1.21,0.18-2.03-0.5-2.44-1.44
		C93.4,86.46,92.88,84.71,92.27,82.99z M106.35,74.13c0.97-0.91,2.22-0.85,3.71,0c1.13,0.64,1.41,1.24,1.21,2.69
		c-0.26,1.92-0.93,3.66-2.38,5.03c-1.04,0.98-2.18,1.17-3.5,0.61c-1.3-0.55-1.75-1.56-1.71-3.28
		C103.79,77.4,104.78,75.61,106.35,74.13z"/>
	<path class="st0" d="M168.76,261.03c-0.48,0.41-0.95,0.84-1.42,1.26c-4.39,3.93-8.99,7.47-15.24,8.03
		c-1.67,2.24-2.65,4.23-2.77,5.56c4.3-0.5,17.55-8.61,20.6-12.72c-0.17-0.66-0.37-1.46-0.57-2.25
		C169,260.98,168.84,260.96,168.76,261.03z"/>
	<path class="st0" d="M54.28,63.62c-0.69,1.48-1.13,3.08-1.77,4.59c-0.83,1.97-1.82,3.88-2.62,5.87c-2.71,6.75-4.11,13.8-4.63,21.03
		c-0.03,0.42,0.02,0.92,0.21,1.28c1.67,3.16,3.61,6.12,6.75,8.08c3.38,2.11,7.79,1.63,10.59-1.25c-0.76-0.31-1.49-0.6-2.5-1
		c0.62-0.69,0.99-1.28,1.52-1.66c3.34-2.38,6.11-5.35,9-8.21c5.24-5.19,8.93-11.33,11.42-18.21c0.23-0.64,0.45-1.37,0.38-2.02
		c-0.3-2.96-0.29-5.92-0.03-8.88c0.04-0.44-0.03-0.88-0.07-1.32c-0.62-6.85-3.13-12.87-8.12-17.75c-1.2-1.17-2.34-2.47-4.13-3.14
		c-1.01,1.08-1.96,2.09-2.9,3.11C62.02,49.96,57.61,56.44,54.28,63.62z M67.17,74.56c-0.56,1.84-1.52,3.47-2.88,4.84
		c-0.98,1-1.88,1.12-2.91,0.51c-0.87-0.52-1.24-1.39-0.7-2.66c0.63-1.49,1.42-2.97,2.39-4.26c1.27-1.69,2.16-1.69,4.3-0.27
		C67.31,73.34,67.34,73.98,67.17,74.56z"/>
	<path class="st0" d="M202.29,244.11c-1.98,4.78-3.82,9.2-5.64,13.61c-0.02,0.05,0.01,0.13,0.04,0.18c0.03,0.05,0.08,0.1,0.26,0.32
		c1.68-0.53,3.23-1.41,4.45-2.37c1.19-4.13,2.21-8.01,2.7-12.26C203.26,243.83,202.67,244,202.29,244.11z"/>
	<path class="st0" d="M219.12,183.38c1,1,1.73,1.77,2.5,2.5c1.6,1.54,3.25,3.03,4.81,4.59c3.13,3.14,6.22,6.33,9.34,9.48
		c0.46,0.46,0.99,0.85,1.75,1.48c0.35-1.33,0.59-2.28,0.83-3.19c-4.76-6.5-9.49-12.82-14.55-19.13
		C222.22,180.57,220.79,181.86,219.12,183.38z"/>
	<path class="st0" d="M236.99,176.91c-4.59-3.41-9.15-6.86-13.74-10.28c-0.6-0.45-1.27-0.79-2.06-1.27
		c-0.73,0.71-1.39,1.34-2.18,2.11c2.34,3.11,4.57,6.07,6.81,9.04c-0.51,0.66-0.95,1.24-1.35,1.76c4.74,6.14,9.38,12.14,14.01,18.13
		c0.09-0.07,0.18-0.14,0.27-0.21c-0.07-0.23-0.11-0.49-0.22-0.7c-2-3.81-3.92-7.66-6.03-11.41c-2.98-5.31-6.53-10.25-10.58-14.83
		c-0.37-0.42-0.83-0.83-0.73-1.78c7.65,7.96,12.94,17.13,17.86,26.7c0.2-0.33,0.35-0.47,0.38-0.64c0.84-4.61,0.56-9.19-0.45-13.73
		C238.74,178.6,238,177.66,236.99,176.91z"/>
	<path class="st0" d="M215.82,221.18c-0.76,0.47-1.59,0.97-2.24,1.36c0.66,2.51,1.33,4.69,1.79,6.9c0.45,2.16,0.77,4.36,1.01,6.55
		c0.24,2.21,0.32,4.43,0.51,7.09c2.39-2.5,4.46-4.61,5.99-7.2C222.37,232.45,217.68,222.64,215.82,221.18z"/>
	<path class="st0" d="M238.16,173.08c-2.63-4.32-5.29-8.61-7.93-12.91c-0.17-0.27-0.31-0.56-0.32-0.6
		c-3.68,0.89-6.98,1.69-10.27,2.48c6.11,4.47,12.31,9.01,18.64,13.65C239.03,174.64,238.61,173.82,238.16,173.08z"/>
	<path class="st0" d="M217.19,220.39c0.88,1.59,1.73,3.04,2.49,4.53c0.75,1.46,1.35,3,2.12,4.45c0.77,1.45,1.11,3.14,2.35,4.8
		c1.1-2.06,2.01-3.75,2.89-5.4c-2.29-3.47-4.47-6.76-6.74-10.19C219.24,219.2,218.33,219.73,217.19,220.39z"/>
	<path class="st0" d="M228.23,214.6c-2.1-5.78-4.83-11.28-7.65-16.74c-0.22-0.42-0.55-0.78-0.98-1.38
		c-1.97,1.95-3.89,3.65-5.69,5.66c4.4,8.24,8.4,16.48,13.7,24.41c1.82-2.26,3-4.25,2.16-6.87
		C229.23,217.99,228.84,216.26,228.23,214.6z"/>
	<path class="st0" d="M220.6,195.57c4.13,8,8.24,15.78,10.47,24.34c0.16,0.03,0.32,0.06,0.48,0.09c0.64-1.15,1.26-2.3,1.91-3.44
		c0.66-1.17,0.77-2.34,0.36-3.64c-1.88-5.98-4.04-11.85-7.18-17.32c-0.19-0.34-0.28-0.73-0.41-1.1c1.36,0.64,1.96,1.82,2.57,2.96
		c2.2,4.08,3.85,8.39,5.32,12.77c0.21,0.63,0.47,1.24,0.7,1.85c0.16-0.01,0.33-0.02,0.49-0.03c0.97-2.8,1.85-5.63,2-8.44
		c-4.28-4.14-8.36-8.08-12.59-12.17C223.27,192.9,221.95,194.22,220.6,195.57z"/>
	<path class="st0" d="M234.76,156.63c0.43,2.98,2.21,5.36,2.54,8.19c-0.81-1.16-1.47-2.37-2.08-3.62c-0.59-1.22-1.12-2.47-1.7-3.76
		c-0.61,0.24-0.97,0.34-1.3,0.52c-0.38,0.21-0.72,0.49-1.3,0.89c2.67,4.39,5.24,8.62,7.91,13.01c1.05-5.4,0.22-12.99-2.15-16.51
		C236.05,155.78,235.4,156.21,234.76,156.63z"/>
	<path class="st0" d="M250.58,94.23c-3.41-3.82-7.49-6.7-12.73-7.5c-2.51-0.39-5.04-0.5-7.47,0.3l-1.76,0.18
		c-1.66,0.52-3.07,0.9-4.44,1.4c-14.67,5.42-23.66,16.83-24.64,32.51c-0.34,5.35-0.49,10.72-0.12,16.09
		c0.41,5.99,2.36,11.35,6.09,16.06c4.81,6.08,10.98,8.1,18.51,6c4.3-1.19,8.12-3.3,11.74-5.83c0.25-0.17,0.43-0.45,0.66-0.7
		c-0.56-2.91-1.37-5.67-3.25-8.02c-0.99-1.24-1.91-2.53-2.88-3.78c-0.97-1.26-2-2.46-3.21-2.67c-0.79-1.08-1.21-1.95-1.88-2.51
		c-2.52-2.13-5.1-4.19-7.71-6.21c-1.56-1.21-3.24-2.25-5.29-2.49c-0.22-0.02-0.41-0.23-0.82-0.48c2.11-2.77,4.9-4.69,7.28-7
		c2.44-2.38,4.99-4.66,7.5-7c-0.27-0.92-0.48-1.65-0.7-2.36c-0.64-1.99-1.32-3.96-1.92-5.96c-0.25-0.83-0.56-1.71,0.14-2.69
		c1.01-0.61,2.11-1.37,3.29-1.99c3.11-1.63,6.37-2.42,9.95-1.92c6.44,0.89,11.81,3.9,16.57,8.07c3.24,2.84,5.05,6.45,5.4,10.76
		c0.07,0.84,0.24,1.68,0.37,2.51c0.13-0.01,0.26-0.02,0.4-0.04c-0.13-2.57-0.02-5.18-0.43-7.71
		C258.17,104.72,254.97,99.14,250.58,94.23z"/>
	<path class="st0" d="M253.07,107.57c-2.63-2.83-5.77-4.96-9.25-6.62c-3.1-1.48-6.37-2.21-9.83-1.95c-3.35,0.25-6.21,1.63-8.97,3.66
		c0.2,0.81,0.37,1.5,0.52,2.15c2.3,0.66,4.18,1.68,5.79,3.18c2.85,2.66,4.5,5.88,4.98,9.76c0.47,3.78,0.3,7.51-1.31,10.95
		c-1,2.14-2.62,4-3.99,5.97c-0.53,0.76-1.13,1.48-1.7,2.22c1.87,2.33,3.62,4.5,5.35,6.67c1.76,2.21,3.08,4.63,3.61,7.86
		c0.89-0.61,1.43-0.93,1.9-1.32c5.93-4.91,10.89-10.65,14.63-17.35c0.82-1.46,1.4-3.14,1.68-4.78c0.73-4.18,0.86-8.42,0.26-12.64
		C256.34,112.38,255.13,109.78,253.07,107.57z"/>
	<path class="st0" d="M234.56,117.48c-0.54-4.72-2.69-8.5-6.96-10.91c-0.4-0.23-0.89-0.32-1.69-0.6c0.8,2.48,1.49,4.62,2.27,7.06
		c-4.65,4.39-9.2,8.67-13.87,13.07c5.01,2.43,9,6.15,13.41,9.48c3.71-3.69,6.63-7.64,6.87-12.99
		C234.66,120.88,234.75,119.16,234.56,117.48z"/>
	<path class="st0" d="M194.01,246.85c-2.32,0.59-4.93,2.33-5.68,3.75c1.19,0.08,2.3,0.16,3.51,0.24
		C192.54,249.55,193.19,248.35,194.01,246.85z"/>
	<path class="st0" d="M176.89,258.05c1.81,2.59,3.77,3.26,5.76,2.04c-0.85-1.63-1.71-3.27-2.58-4.95
		C178.55,255.8,177.65,256.79,176.89,258.05z"/>
	<path class="st0" d="M182.24,254.92c0.73,1.39,1.48,2.91,2.33,4.37c0.66,1.13,1.68,1.47,3.08,0.95c0.97-1.51,1.67-3.22,2.2-5.18
		c-1.94-0.77-3.77-1.25-5.63-1.6C183.38,253.3,182.75,253.73,182.24,254.92z"/>
	<path class="st0" d="M172.85,262.64c0.1,0.16,0.19,0.31,0.29,0.47c1.59-0.48,3.18-0.95,5.17-1.54c-1.15-0.85-1.93-1.43-2.87-2.12
		C174.49,260.62,173.67,261.63,172.85,262.64z"/>
	<path class="st0" d="M190.51,253.65c0.25-0.54,0.48-1.03,0.87-1.89c-1.79-0.17-3.22-0.36-4.65-0.41c-0.63-0.02-1.19,0.33-1.51,1.2
		C187.01,252.94,188.58,253.83,190.51,253.65z"/>
	<path class="st0" d="M174.79,256.54c-1.23,0.28-2.47,0.51-3.66,1.54c0.2,0.72,0.41,1.5,0.74,2.69c1.28-1.52,2.25-2.68,3.22-3.83
		C174.99,256.8,174.89,256.67,174.79,256.54z"/>
	<path class="st0" d="M200.16,244.93c-2.31,0.03-3.15,0.33-4,2.03c-1.89,3.78-3.65,7.63-5.45,11.45c-0.15,0.32-0.14,0.71-0.2,1.06
		c2.1,0.62,3.57,0.14,4.46-1.46c2.12-3.83,3.87-7.81,5.09-12.01C200.15,245.67,200.13,245.3,200.16,244.93z"/>
	<path class="st0" d="M205.01,243.33c-0.18,1.49-0.3,2.73-0.49,3.97c-0.19,1.25-0.48,2.48-0.65,3.72c-0.16,1.19-0.96,2.27-0.66,3.72
		c2-1.12,3.49-2.51,4.83-4.15c-0.37-2.57-0.39-5.13-0.93-7.83C206.3,242.98,205.71,243.14,205.01,243.33z"/>
	<path class="st0" d="M216.99,212.23c-0.44,0.05-0.65,0.03-0.81,0.1c-0.53,0.22-1.05,0.46-1.55,0.73
		c-4.41,2.31-8.21,5.51-12.26,8.34c-2.48,1.74-2.22,4.04-2.35,6.69c6.7-3.66,13.22-7.01,19.63-11.1
		C218.65,215.19,217.8,213.68,216.99,212.23z"/>
	<path class="st0" d="M212.51,223.03c-1.39,0.84-2.55,1.55-3.75,2.27c0,2.25,0,4.37,0,6.5c0.57,0.22,1.01,0.39,1.54,0.61
		c-0.55,0.3-0.98,0.54-1.51,0.82c0.32,5.21,0.63,10.39,0.97,15.95c2.1-1.02,3.28-2.36,4.59-3.53c0.81-0.73,1.16-1.58,1.2-2.67
		c0.24-6.06-0.61-11.97-2.21-17.8C213.15,224.54,212.86,223.93,212.51,223.03z"/>
	<path d="M183.36,112.64c-0.01,0-0.02,0-0.02,0c0,0.01,0.01,0.02,0.01,0.02c0,0,0-0.01,0-0.01
		C183.36,112.64,183.36,112.64,183.36,112.64z"/>
	<polygon points="163.83,150.96 163.82,150.98 163.83,150.96 	"/>
	<path d="M253.99,95.25c-3.75-4.65-8.38-8.1-14.29-9.68c-0.35-0.09-0.67-0.33-1.12-0.55c-0.13-0.79-0.27-1.59-0.39-2.39
		c-0.18-1.25-0.24-2.52-0.52-3.75c-2.23-10.04-5.32-19.81-10.03-28.99c-3.73-7.27-7.86-14.33-11.65-21.56
		c-4.3-8.21-9.63-15.63-16.34-22.06c-0.26-0.25-0.62-0.4-0.94-0.6c-1.37,0.17-2.69,0.12-3.99-0.05c-2.91-0.38-5.8-0.87-8.71-1.21
		c-1.44-0.17-2.92-0.02-4.36-0.2c-5.15-0.65-10.33-0.79-15.47-0.32c-6.91,0.64-13.8,1.57-20.69,2.51
		c-12.1,1.64-23.98,4.18-35.42,8.56c-11.66,4.47-22.81,9.84-32.72,17.5c-1,0.77-2.05,1.16-3.3,1.31c-1.57,0.2-3.13,0.59-4.66,0.99
		c-0.95,0.25-1.71,0.79-1.69,2.16c1.15,0.15,2.24,0.29,3.76,0.49c-0.8,0.61-1.27,0.96-1.58,1.2c-0.39-0.05-0.52-0.05-0.64-0.09
		c-0.42-0.14-0.83-0.32-1.26-0.46c-6.59-2.21-12.48-1.04-17.47,3.79c-4.03,3.9-6.36,8.82-8,14.07c-2.32,7.42-3.39,15.02-3.21,22.81
		c0.12,4.86,0.85,9.55,2.62,14.09c0.33,0.85,0.44,1.85,0.41,2.77c-0.05,1.32-0.29,2.64-0.5,3.95c-1.08,6.61-2.19,13.22-3.26,19.84
		l-0.94,5.08c-0.45,2.83-0.92,5.63-1.35,8.44c-1.71,11.12-3.2,22.27-3.88,33.51c-0.38,6.12-0.88,12.23-1.01,18.35
		c-0.29,13.59-0.25,27.18,0.73,40.75c0.35,4.91,0.99,9.8,1.52,14.7c0.06,0.52,0.34,1.01,0.51,1.48c2.28,0.18,4.36,0.34,6.66,0.51
		l1.94,0.09c0.05,0,23.08-0.37,23.1-0.37l2.25-0.38c7.93-1.35,15.83-2.49,23.63-4.07c7.8-1.58,15.5-3.6,23.32-5.45l2.49-0.94
		c1-0.32,2.15-0.69,3.3-1.05c11.44-3.57,22.9-7.06,34.3-10.74c8.87-2.86,17.45-6.47,25.78-10.62c6.73-3.35,13.21-7.15,19.54-11.2
		c0.62-0.39,1.25-0.75,2.23-1.34c0.18,4.41-0.21,8.49,1.28,11.97c-1.24,2.79-2.38,5.2-3.39,7.65c-1.39,3.35-2.36,6.81-2.43,10.48
		c-0.04,2.05-0.43,4-2.07,5.5c-0.51,0.47-0.85,1.1-1.27,1.66c-2.86,3.82-5.03,7.92-5.4,12.77c-0.08,1.08-0.72,1.68-1.56,2.23
		c-2.18,1.43-4.21,3.17-6.54,4.26c-2.39,1.11-5.07,1.6-7.63,2.37c-0.61,0.18-1.21,0.39-1.83,0.56c-0.54,0.15-1.09,0.27-1.37,0.34
		c-0.99-0.89-1.74-1.67-2.59-2.33c-3.76-2.95-7.97-5.04-12.68-5.95c-8.73-1.68-17.27-0.7-25.63,2.13c-1.32,0.44-2.55,1.16-3.78,1.82
		c-0.39,0.21-0.66,0.65-1.25,1.27c1.88,0.59,3.43,1.06,4.96,1.57c1.57,0.53,3.13,1.1,4.68,1.68c1.55,0.59,3.08,1.21,4.62,1.82
		c1.6,0.64,3.19,1.3,4.8,1.91c1.55,0.59,3.13,1.1,4.67,1.7c1.51,0.59,3.18,0.77,4.73,1.67c-0.51,1.21-0.89,2.28-1.41,3.28
		c-1.62,3.16-3.3,6.28-4.93,9.43c-0.39,0.75-0.63,1.57-1.11,2.78c1.03-0.09,1.64-0.02,2.16-0.2c8.17-2.77,15.66-6.73,22.21-12.37
		c0.42-0.36,0.91-0.73,1.43-0.88c2.87-0.85,5.76-1.61,8.63-2.45c2.22-0.65,4.45-0.94,6.77-1.04c2.72-0.12,5.5-0.36,8.12-1.04
		c5.21-1.36,9.69-4.13,13.63-7.78c0.79-0.73,1.59-1.48,2.49-2.07c2.8-1.82,5.17-4.1,7.35-6.58c2.63-3,5.42-5.89,7.4-9.4
		c0.97-1.71,1.72-3.54,2.74-5.21c1.89-3.08,3.65-6.21,5.27-9.43c2.57-5.13,4.52-10.45,5.37-16.14c0.11-0.75,0.33-1.48,0.53-2.21
		c0.56-2.08,1.21-4.13,1.67-6.22c1.27-5.78,1.18-11.54-0.54-17.24c-0.21-0.7-0.2-1.49-0.15-2.23c0.06-0.94,0.26-1.88,0.4-2.81
		c0.9-6.12,0.57-12.1-1.93-17.86c-0.2-0.45-0.27-0.95-0.43-1.5c0.46-0.42,0.87-0.8,1.28-1.18c2.8-2.57,5.77-5,8.38-7.76
		c5.07-5.35,9.12-11.38,11.57-18.37c1.81-5.16,2.6-10.43,1.53-15.86C260.31,105.04,257.72,99.86,253.99,95.25z M133.85,254.51
		c-1.68-0.59-3.57-1.26-5.94-2.09c1.17-0.52,1.88-0.91,2.63-1.17c7.78-2.69,15.76-3.53,23.91-2.31c4.65,0.69,8.71,2.77,12.24,5.82
		c0.79,0.68,1.35,1.61,2.02,2.42c-0.11,0.11-0.23,0.22-0.34,0.33c-4.44-3.63-9.74-4.73-15.25-5.33
		C146.58,251.47,140.3,252.55,133.85,254.51z M146.38,259.51c-2.96-1.18-6.48-2.58-10.27-4.09c0.42-0.29,0.59-0.48,0.78-0.53
		c8.36-2.12,16.7-2.58,25.01,0.24c2.24,0.76,4.27,1.91,6.34,3.69c-0.68,0.07-1.07,0.2-1.43,0.14c-4.79-0.95-9.64-0.77-14.47-0.56
		C150.55,258.46,148.76,259.05,146.38,259.51z M155.03,262.81c-2.09-1.32-4.46-1.68-6.53-2.82c6.4-1.02,12.75-1.14,19.15,0.18
		c-1.47,3.22-11,8.97-15.04,9.17C153.03,267.05,154.7,265.2,155.03,262.81z M149.33,275.88c0.12-1.33,1.1-3.32,2.77-5.56
		c6.26-0.56,10.85-4.1,15.24-8.03c0.47-0.42,0.93-0.85,1.42-1.26c0.08-0.07,0.24-0.05,0.6-0.12c0.2,0.79,0.4,1.6,0.57,2.25
		C166.89,267.27,153.63,275.39,149.33,275.88z M233.94,73.63c0.75,3.07,1.41,6.16,2.07,9.25c0.11,0.53,0.02,1.1,0.02,1.82
		c-2.38,0.16-4.64,0.32-7.03,0.48c-5.41-7.31-11.6-13.91-19.48-18.71c-7.86-4.79-16.33-7.93-25.82-9.18
		c-0.23-0.33-0.68-0.87-1.01-1.46c-3.86-6.83-8.61-12.98-14.26-18.44c-2.01-1.94-4.15-3.73-6.23-5.6c-0.55-0.49-1.11-0.98-1.66-1.47
		c0.04-0.13,0.09-0.26,0.13-0.38c2.38-0.07,4.78-0.21,7.15,0.11c8.12,1.1,16.03,3.07,23.6,6.18c8.7,3.57,16.88,8.11,24.09,14.16
		c4.59,3.85,8.58,8.26,11.77,13.37c1.7,2.73,3.76,5.25,5.62,7.89C233.32,72.27,233.77,72.93,233.94,73.63z M184.49,114.31
		c3.83,3.97,7.67,7.94,11.55,11.86c0.83,0.84,1.12,1.74,1.14,2.88c0.05,3.53,0.1,7.07,0.33,10.6c0.11,1.67,0.6,3.32,0.94,5.05
		c-6.36-7.84-12.68-15.63-19.24-23.71c1.3-2.61,2.72-5.47,4.15-8.34c0-0.01-0.01-0.02-0.01-0.02c0.01,0,0.02,0,0.02,0
		c0.48-1.23,0.9-2.48,1.44-3.68c1.26-2.76,2.57-5.5,3.88-8.24c0.24-0.5,0.56-0.95,0.82-1.39c2.08,0.52,9.92,4.84,11.77,6.51
		c-3.34,6.2-3.71,13.12-3.91,20.07c-0.13,0.02-0.27,0.04-0.4,0.06c-0.37-0.4-0.78-0.77-1.1-1.2c-2.91-3.86-6.24-7.33-9.72-10.68
		c-0.78-0.75-1.59-1.46-2.77-1.44c0,0,0,0.01,0,0.01c0,0,0,0.01,0,0.01C183.73,113.22,184.03,113.84,184.49,114.31z M190.1,98.23
		c0.21-0.56,0.36-1.09,0.59-1.58c0.87-1.9,1.74-3.79,2.65-5.67c0.68-1.42,0.93-2.9,0.67-4.43c-0.56-3.3-1.08-6.6-1.83-9.86
		c-1.19-5.22-3.61-9.97-6.1-14.67c-0.56-1.05-1.09-2.1-1.66-3.2c0.85-0.61,1.61-0.37,2.32-0.21c14.37,3.06,26.53,9.81,35.99,21.09
		c1.02,1.21,2.08,2.39,3.09,3.61c0.51,0.62,0.96,1.29,1.6,2.17c-0.88,0.35-1.49,0.64-2.13,0.83c-5.68,1.74-10.78,4.51-15.31,8.33
		c-2.75,2.32-4.93,5.09-6.89,8.07c-0.38,0.58-0.76,1.15-1.25,1.88C197.91,102.46,194.08,100.39,190.1,98.23z M131.72,10.36
		c10.08-1.57,20.14-3.29,30.26-4.5c5.48-0.65,11.08-0.48,16.62-0.46c2.66,0.01,5.33,0.46,7.98,0.81c3.97,0.54,7.93,1.17,11.78,1.75
		c4.1,3.64,7.68,7.49,10.35,12.08c2.65,4.54,5.15,9.16,7.68,13.78c3.1,5.67,6.26,11.31,9.2,17.05c2.66,5.19,4.76,10.63,6.48,16.21
		c0.2,0.65,0.36,1.32,0.25,2.18c-0.44-0.55-0.91-1.07-1.3-1.65c-1.73-2.58-3.37-5.22-5.16-7.76c-4.03-5.71-9.08-10.4-14.89-14.3
		c-7.6-5.09-15.69-9.23-24.42-12.05c-6.38-2.06-12.9-3.58-19.6-4.18c-2.02-0.18-4.08-0.03-6.11,0.1c-0.88,0.06-1.63,0.02-2.33-0.52
		c-4.92-3.75-10.21-6.93-15.7-9.78c-0.1-0.05-0.16-0.18-0.35-0.4c0.38-0.21,0.71-0.46,1.08-0.59c7.26-2.58,14.72-3.98,22.46-4.19
		c5.82-0.16,11.61-0.14,17.33,0.89c10.47,1.9,19.76,6.24,27.43,13.7c0.88,0.86,1.78,1.7,2.68,2.56c0.1-0.1,0.2-0.2,0.3-0.29
		c-1.35-1.95-2.85-3.78-4.67-5.36c-8.22-7.08-17.89-10.93-28.61-12.04c-9.81-1.02-19.62-0.66-29.25,1.78
		c-2.71,0.69-5.35,1.66-8,2.58c-1.29,0.45-2.41,0.36-3.68-0.17c-4.28-1.81-8.62-3.48-12.93-5.21c-0.28-0.11-0.55-0.24-1.26-0.56
		C127.77,11.24,129.73,10.67,131.72,10.36z M75.8,37.47c2.92-0.06,5.84-0.34,8.76-0.58c0.66-0.05,1.46-0.06,1.64-1.28
		c-2.07-1.14-4.56-1.18-7.11-2.15c0.79-0.61,1.4-1.11,2.04-1.56c7.27-5.2,15.06-9.51,23.37-12.85c4.9-1.97,9.93-3.62,14.87-5.5
		c2.15-0.81,4.24-0.83,6.34-0.04c3.33,1.27,6.7,2.47,9.96,3.9c12.45,5.46,23.48,12.95,32.88,22.76c4.59,4.8,8.6,10.03,11.74,15.85
		c2.86,5.29,5.55,10.67,8.09,16.11c2.3,4.93,3.18,10.25,3.55,15.64c0.04,0.65-0.19,1.38-0.47,1.99c-1.57,3.39-3.21,6.74-4.8,10.12
		c-3.57,7.62-7.04,15.3-10.72,22.87c-3.24,6.66-6.69,13.22-10.09,19.8c-1.74,3.37-3.57,6.71-5.38,10.05
		c-0.48,0.88-1.01,1.73-1.67,2.83c-0.62-0.54-1.02-0.84-1.37-1.19c-7.17-7.4-15.12-13.94-23.12-20.42
		c-3.01-2.44-6.02-4.88-9.03-7.32c-1.14-0.92-2.28-1.84-3.42-2.76c0.11-0.1,0.23-0.2,0.34-0.31c-0.87-0.5-1.78-0.93-2.59-1.52
		c-5.65-4.12-11.29-8.26-16.92-12.41c-2.45-1.8-4.86-3.65-7.67-5.75c1.6-0.36,2.8-0.62,3.96-0.88c1.1,1.29,2.02,2.6,3.17,3.65
		c3.55,3.27,7.92,4.9,12.64,5.3c7.27,0.62,14.38-0.27,21.25-2.86c5.78-2.18,10.38-5.87,14.06-10.72c4.52-5.96,7.57-12.55,8.49-20.04
		c0.82-6.71-0.28-13.09-3.08-19.22c-4.84-10.58-13.32-16.83-24.35-20.01c-0.59-0.17-1.18-0.3-1.72-0.71
		c0.94,0.08,1.89,0.2,2.83,0.24c1.46,0.06,2.93,0.14,4.39,0.05c0.93-0.05,1.94-0.2,2.43-1.22c0.14-0.98-0.5-1.59-1.16-2.05
		c-1.25-0.87-2.52-1.75-3.89-2.37c-6.18-2.82-12.66-3.28-19.28-2.09c-3.76,0.68-7.51,1.37-10.96,3.2c-0.92,0.49-2.23,0.27-3.36,0.39
		c-0.78,0.08-1.69-0.2-2.27,0.82c0.58,1.06,1.62,1.15,2.6,1.05c4.54-0.44,9.04,0.13,13.55,0.4c3.43,0.21,6.85,0.57,10.3,0.99
		c-9.94,0.03-18.55,3.2-25.4,10.47c-6.9,7.32-9.28,16.17-8.65,26.39c-1.97-1.6-3.25-3.8-6.1-3.48c-0.07-0.71-0.18-1.3-0.18-1.9
		c-0.03-2.71,0.17-5.44-0.07-8.14c-0.71-8.19-4.52-14.76-10.95-19.89c-0.35-0.28-0.7-0.55-1.04-0.83c-0.09-0.08-0.15-0.2-0.3-0.42
		C72.8,38.47,73.87,37.51,75.8,37.47z M112.74,150.67c-0.63,0.26-1.13,0.52-1.66,0.67c-6.24,1.85-12.55,3.42-19.05,4.04
		c-5.84,0.56-11.7,0.71-17.57,0.2c-3.62-0.31-7.25-0.48-10.85-0.89c-7.23-0.83-14.07-2.97-20.51-6.34c-0.89-0.47-1.7-1.07-2.66-1.68
		c0.25-0.55,0.39-1.03,0.66-1.43c4.18-6.27,8.3-12.58,12.59-18.78c3.79-5.47,7.88-10.72,12.41-15.63c1.59-1.72,3.3-3.34,4.95-5.01
		c0.86-0.87,1.89-1.23,3.12-1.13c0.89,0.07,1.79,0,2.67,0.1c4.99,0.58,9.92-0.11,14.86-0.63c0.31-0.03,0.63-0.05,0.9-0.07
		c5.01,3.68,9.85,7.18,14.62,10.76c5.18,3.89,10.33,7.83,15.44,11.82c0.92,0.72,1.73,1.7,2.32,2.71c2.22,3.76,4.34,7.58,6.49,11.39
		c0.3,0.54,0.53,1.12,0.78,1.65c-2.08,2-15.16,7.51-17.98,7.55c-0.59-1.26-1.2-2.59-1.82-3.92c-0.13,0.04-0.26,0.09-0.39,0.13
		C112.27,147.65,112.5,149.11,112.74,150.67z M96.58,89.56c0.95-0.51,1.13-1.4,0.99-2.29c-0.16-0.98-0.43-1.99-0.88-2.87
		c-0.83-1.63-1.84-3.17-2.76-4.76c-0.22-0.38-0.48-0.77-0.59-1.19c-0.85-3.26-1.38-6.55-0.72-9.92c0.16-0.81,0.31-1.62,0.4-2.43
		c1.13-10.25,6.31-17.97,15.36-22.85c11.54-6.22,22.85-4.99,33.63,2.09c6.3,4.14,10.46,9.99,12.9,16.97
		c2.96,8.45,2.58,16.89-0.82,25.2c-1.72,4.2-4.12,7.99-7.06,11.44c-3.1,3.63-6.82,6.46-11.29,8.24c-7.69,3.07-15.66,4-23.84,2.7
		c-3.76-0.6-6.93-2.51-9.51-5.29c-0.81-0.87-1.43-1.9-1.88-2.5c0.22-2.16,0.53-3.84,0.52-5.53c-0.01-2.24-0.93-4.05-3.22-4.9
		c-2.47-0.92-4.86-0.98-7.09,0.62c-0.18,0.13-0.25,0.4-0.41,0.65c0.71,0.61,1.38,0.25,2.04,0.14c0.94-0.16,1.88-0.43,2.82-0.45
		c2.11-0.06,3.22,0.9,3.46,2.99c0.2,1.76,0.19,3.54-0.71,5.41c-0.58,0.18-1.27,0.47-2,0.61c-8.38,1.67-16.83,1.96-25.32,1.09
		c-2.06-1.01-4.42-0.07-6.7-0.97c0.35-0.38,0.59-0.71,0.89-0.96c6.12-5.05,11.62-10.66,15.56-17.58c1.41-2.46,2.42-5.15,3.64-7.72
		c0.31-0.64,0.73-1.23,1.11-1.87c1.38,0.53,2.06,1.46,2.74,2.35c1.3,1.71,2.58,3.45,3.8,5.23c0.34,0.5,0.41,1.17,0.62,1.75
		c0.61,1.72,1.14,3.47,1.87,5.14C94.55,89.06,95.37,89.74,96.58,89.56z M94.47,83.97c0.13-0.01,0.26-0.03,0.39-0.04
		c0.32,0.96,0.64,1.92,0.97,2.89C94.6,86.05,94.48,85.75,94.47,83.97z M70.28,41.01c1.78,0.67,2.93,1.97,4.13,3.14
		c4.99,4.88,7.5,10.9,8.12,17.75c0.04,0.44,0.11,0.89,0.07,1.32c-0.27,2.96-0.27,5.92,0.03,8.88c0.07,0.66-0.15,1.38-0.38,2.02
		c-2.49,6.88-6.18,13.03-11.42,18.21c-2.89,2.86-5.67,5.83-9,8.21c-0.53,0.38-0.9,0.97-1.52,1.66c1.02,0.41,1.74,0.7,2.5,1
		c-2.8,2.88-7.21,3.37-10.59,1.25c-3.14-1.96-5.07-4.92-6.75-8.08c-0.19-0.37-0.24-0.86-0.21-1.28c0.52-7.23,1.92-14.28,4.63-21.03
		c0.8-1.99,1.78-3.9,2.62-5.87c0.64-1.51,1.08-3.1,1.77-4.59c3.33-7.18,7.74-13.65,13.1-19.49C68.32,43.1,69.27,42.09,70.28,41.01z
		 M41.39,70.32c0.35-2.69,0.6-5.4,1.15-8.04c1.22-5.92,3.19-11.57,6.72-16.6c2.54-3.61,5.82-6.19,10.22-7.12
		c2.61-0.55,5.2-0.36,7.72,0.56c0.46,0.17,0.87,0.45,1.49,0.78c-14.18,14.41-21.99,31.75-25.53,51.3c-0.21-0.64-0.45-1.27-0.63-1.91
		C40.79,83.06,40.57,76.72,41.39,70.32z M44.17,97.83c3.16,5.26,7.11,9.1,13.74,9.61c-5.82,4.07-11.29,7.9-17.05,11.93
		C41.98,112.1,43.04,105.15,44.17,97.83z M203.46,193.28c-13.08,8.97-27.12,16.11-41.97,21.72c-10.26,3.87-20.74,7.1-31.24,10.26
		c-3.17,0.96-6.35,1.9-9.53,2.84c-0.6,0.18-1.21,0.34-1.94,0.54c-0.21-1.05,0.33-1.81,0.62-2.59c2.57-6.9,4.49-13.97,5.88-21.19
		c1.49-7.75,1.66-15.57,1.36-23.42c-0.05-1.44-0.4-2.88-0.64-4.31c-0.06-0.33-0.26-0.63-0.6-0.92c0.43,9.09,0.43,18.13-1,27.13
		c-1.43,8.97-3.95,17.61-7.59,25.71c-6.58,3.04-42.19,10.59-47.33,10.02c0.28-0.61,0.5-1.16,0.77-1.68
		c4.15-7.84,8.05-15.8,11.23-24.09c4.98-12.99,8.67-26.31,10.66-40.08c0.18-1.23,0.16-1.36-0.32-2.52
		c-0.75,0.18-0.65,0.83-0.72,1.35c-0.92,6.91-2.42,13.69-4.16,20.43c-2.73,10.57-6.45,20.78-11.2,30.62
		c-2.42,5.02-5.02,9.95-7.55,14.91c-0.26,0.5-0.57,0.97-0.81,1.36c-3.66,1.3-21.38,2.05-24.43,0.97
		c5.5-20.53,10.22-41.28,16.06-61.81c-0.18,0.33-0.42,0.65-0.53,1c-2.07,6.71-4.28,13.38-6.13,20.14
		c-3.57,12.99-6.94,26.04-10.39,39.06c-0.16,0.6-0.38,1.18-0.6,1.86c-1.99,0.35-3.85,0.26-5.84-0.31c-0.18-1.26-0.37-2.5-0.53-3.73
		c-1.45-10.81-1.32-21.69-1.28-32.56c0-0.87,0.19-1.76,0.44-2.6c3.18-10.75,7.11-21.23,11.45-31.57c0.27-0.64,0.48-1.3,0.7-1.96
		c0.03-0.08-0.09-0.21-0.28-0.59c-1.26,2.08-1.88,4.25-2.74,6.3c-0.86,2.04-1.64,4.12-2.43,6.18c-0.82,2.13-1.63,4.25-2.42,6.39
		c-0.77,2.08-1.52,4.16-2.25,6.25c-0.74,2.12-1.44,4.26-2.22,6.56c-0.16-0.34-0.25-0.45-0.25-0.56c0.09-6.45,0.17-12.89,0.31-19.34
		c0.07-2.84,0.26-5.68,0.45-8.52c0.26-3.97,0.25-8,0.95-11.89c0.74-4.12,0.78-8.28,1.35-12.4c0.99-7.2,2.1-14.38,3.08-21.58
		c0.22-1.63,0.92-2.75,2.27-3.71c7.66-5.47,15.12-11.22,23.28-15.97c1.97-1.14,2.14-1.17,4.58-0.43
		c-12.26,12.12-21.66,26.3-31,40.79c-0.33,0.15-0.85,0.38-1.4,0.62c0.02,0.19-0.03,0.44,0.07,0.53c0.4,0.4,0.81,0.81,1.29,1.11
		c7.39,4.65,15.47,7.43,24.1,8.67c5.68,0.82,11.42,1.05,17.16,1.25c9.26,0.33,18.32-0.7,27.25-3.11c0.49-0.13,0.99-0.23,1.5-0.3
		l2.34-0.71c3.45-1.1,6.69-2.13,10.31-3.29l2.21-0.79c3.09-1.66,6.1-3.28,9.31-5c0.26,0.37,0.62,0.78,0.86,1.25
		c5.18,9.82,9.81,19.88,13.56,30.32c2.58,7.21,4.92,14.49,7.38,21.75c0.18,0.52,0.39,1.03,0.89,1.47c-0.19-1.16-0.3-2.34-0.6-3.47
		c-0.74-2.88-1.45-5.77-2.37-8.59c-4.75-14.52-10.51-28.63-17.69-42.15c-2.2-4.14-4.51-8.21-6.77-12.32
		c-0.23-0.42-0.41-0.86-0.48-1.41c5.57,4.01,10.8,8.39,16,12.8c5.21,4.41,9.97,9.34,15.31,13.97c0.69-0.84,1.21-1.36,1.6-1.97
		c1.05-1.65,2.04-3.34,3.05-5.01c0,0,0,0,0,0c0.28-0.63,0.53-1.28,0.86-1.9c4.27-8.13,8.55-16.25,12.83-24.38
		c0.32-0.61,0.63-1.22,1.03-1.98c0.46,0.4,0.82,0.64,1.08,0.96c5.98,7.32,11.83,14.75,17.99,21.91c1.71,1.99,3.05,4.13,4.48,6.26
		c2.36,3.54,5.35,6.41,9.29,8.24c0.59,0.27,1.14,0.8,1.53,1.33c3.34,4.54,6.65,9.11,9.96,13.68c0.29,0.4,0.59,0.8,0.92,1.24
		c-4.26,6.55-11.01,10.08-17.05,14.74c-0.47-0.6-0.86-0.99-1.13-1.45c-7.52-12.53-16.34-24.14-25.52-35.5
		c-0.45-0.55-1.04-1-1.7-1.62c-0.45,1.08,0.08,1.61,0.47,2.13c2.71,3.6,5.43,7.18,8.17,10.76c6.16,8.07,12.02,16.35,17.42,24.94
		c0.26,0.42,0.45,0.89,0.76,1.51C204.6,192.36,204.07,192.87,203.46,193.28z M214.94,161.48c2.05,0.26,3.01,1.73,4.68,2.59
		c-0.7,0.65-1.1,1.03-1.62,1.51C216.6,164.53,215.92,163.09,214.94,161.48z M212.01,192.64c-1.2,1.12-2.3,2.36-3.44,3.55
		c-1.08,1.13-2.16,2.25-3.25,3.38c-0.15-0.08-0.3-0.17-0.46-0.25c0-1.49,0-2.99,0-4.69c0.74-0.4,1.5-0.81,2.25-1.22
		c-0.07-0.05-0.14-0.11-0.22-0.16c0.56-0.41,1.13-0.82,1.68-1.24c2.93-2.22,5.86-4.45,8.79-6.68c0.2-0.15,0.42-0.27,0.88-0.56
		c1.78,1.61,3.46,3.36,5.29,5.28c-5.46,6.13-11.7,11.26-17.8,16.97c-0.82-2.06-1.02-3.87-0.8-5.95c3.53-3.68,7.14-7.45,10.74-11.21
		C213.98,190.25,213.12,191.6,212.01,192.64z M205.83,209.42c1.71-1.41,3.28-2.98,4.92-4.48c0.5-0.46,1.01-0.91,1.76-1.59
		c0.82,1.74,1.49,3.14,2.13,4.5c-3.68,1.68-7.13,3.25-10.75,4.91C204.27,211.41,204.74,210.32,205.83,209.42z M202.68,215.41
		c0.15-0.38,0.51-0.76,0.87-0.97c3.59-2.18,7.35-4.03,11.48-5.63c0.41,0.72,0.8,1.39,1.23,2.15c-2.68,1.54-5.25,2.89-7.69,4.46
		c-2.44,1.58-4.73,3.37-7.08,5.08c-0.16-0.1-0.32-0.21-0.48-0.31C201.56,218.59,202.08,216.98,202.68,215.41z M206.39,226.56
		c0.37,2.06,0.28,3.77,0.15,5.72c-2.98,0.44-5.89,0.88-8.81,1.31c-0.09-0.15-0.18-0.3-0.27-0.45
		C199.48,229.88,203.21,228.89,206.39,226.56z M195.87,235.21c3.31-1.22,9.21-2.02,10.68-1.42c-0.3,0.27-0.52,0.59-0.81,0.7
		c-3.96,1.5-7.93,2.98-12.32,4.62C194.39,237.57,195.18,236.31,195.87,235.21z M192.34,241.69c4.47-2.74,9.28-4.34,14.5-6.21
		c0,1.93,0,3.46,0,5.21c-4.77,1.94-10.01,2.7-15.29,4.87C191.88,243.96,192.12,242.82,192.34,241.69z M194.01,246.85
		c-0.82,1.5-1.47,2.71-2.17,3.99c-1.21-0.08-2.33-0.16-3.51-0.24C189.08,249.18,191.69,247.43,194.01,246.85z M186.73,251.35
		c1.43,0.06,2.86,0.25,4.65,0.41c-0.39,0.85-0.62,1.34-0.87,1.89c-1.94,0.18-3.5-0.71-5.29-1.1
		C185.54,251.68,186.1,251.32,186.73,251.35z M171.13,258.08c1.2-1.03,2.44-1.26,3.66-1.54c0.1,0.13,0.2,0.26,0.29,0.39
		c-0.97,1.16-1.94,2.31-3.22,3.83C171.54,259.57,171.33,258.8,171.13,258.08z M173.15,263.11c-0.1-0.16-0.2-0.31-0.29-0.47
		c0.82-1.01,1.64-2.02,2.59-3.19c0.93,0.69,1.71,1.27,2.87,2.12C176.33,262.16,174.74,262.64,173.15,263.11z M176.89,258.05
		c0.76-1.27,1.66-2.26,3.18-2.9c0.88,1.68,1.73,3.31,2.58,4.95C180.66,261.31,178.71,260.65,176.89,258.05z M187.65,260.24
		c-1.4,0.53-2.42,0.18-3.08-0.95c-0.85-1.46-1.6-2.98-2.33-4.37c0.52-1.2,1.14-1.62,1.99-1.46c1.86,0.35,3.68,0.83,5.63,1.6
		C189.31,257.02,188.62,258.73,187.65,260.24z M190.51,259.47c0.06-0.35,0.05-0.74,0.2-1.06c1.79-3.83,3.55-7.68,5.45-11.45
		c0.85-1.7,1.69-2,4-2.03c-0.03,0.37,0,0.74-0.1,1.07c-1.22,4.2-2.97,8.19-5.09,12.01C194.08,259.62,192.61,260.09,190.51,259.47z
		 M196.94,258.23c-0.18-0.22-0.23-0.26-0.26-0.32c-0.03-0.06-0.06-0.13-0.04-0.18c1.83-4.42,3.66-8.83,5.64-13.61
		c0.38-0.11,0.97-0.28,1.8-0.52c-0.49,4.26-1.51,8.13-2.7,12.26C200.17,256.81,198.62,257.7,196.94,258.23z M203.21,254.74
		c-0.3-1.45,0.49-2.54,0.66-3.72c0.17-1.25,0.46-2.48,0.65-3.72c0.19-1.24,0.31-2.48,0.49-3.97c0.7-0.19,1.29-0.34,2.11-0.56
		c0.53,2.7,0.56,5.26,0.93,7.83C206.71,252.23,205.21,253.62,203.21,254.74z M200.03,228.09c0.13-2.65-0.14-4.96,2.35-6.69
		c4.05-2.83,7.84-6.03,12.26-8.34c0.51-0.26,1.03-0.5,1.55-0.73c0.17-0.07,0.37-0.05,0.81-0.1c0.81,1.45,1.66,2.96,2.67,4.76
		C213.25,221.08,206.72,224.43,200.03,228.09z M215.54,242.98c-0.04,1.09-0.39,1.94-1.2,2.67c-1.31,1.17-2.48,2.51-4.59,3.53
		c-0.34-5.56-0.65-10.74-0.97-15.95c0.53-0.29,0.96-0.52,1.51-0.82c-0.54-0.21-0.97-0.38-1.54-0.61c0-2.13,0-4.25,0-6.5
		c1.2-0.73,2.36-1.43,3.75-2.27c0.35,0.9,0.64,1.51,0.82,2.15C214.93,231.01,215.79,236.93,215.54,242.98z M216.89,243.09
		c-0.18-2.66-0.26-4.88-0.51-7.09c-0.24-2.19-0.56-4.39-1.01-6.55c-0.46-2.22-1.13-4.39-1.79-6.9c0.65-0.39,1.47-0.9,2.24-1.36
		c1.86,1.46,6.55,11.27,7.07,14.7C221.36,238.47,219.28,240.59,216.89,243.09z M224.16,234.17c-1.24-1.66-1.58-3.35-2.35-4.8
		c-0.77-1.45-1.37-2.98-2.12-4.45c-0.76-1.49-1.61-2.94-2.49-4.53c1.13-0.66,2.05-1.19,3.11-1.81c2.27,3.43,4.45,6.72,6.74,10.19
		C226.16,230.41,225.26,232.11,224.16,234.17z M227.61,226.55c-5.3-7.93-9.3-16.18-13.7-24.41c1.81-2,3.73-3.71,5.69-5.66
		c0.43,0.59,0.76,0.96,0.98,1.38c2.81,5.46,5.54,10.96,7.65,16.74c0.6,1.66,0.99,3.4,1.53,5.08
		C230.62,222.3,229.44,224.29,227.61,226.55z M235.31,212.05c-0.16,0.01-0.33,0.02-0.49,0.03c-0.24-0.62-0.49-1.23-0.7-1.85
		c-1.47-4.38-3.12-8.69-5.32-12.77c-0.61-1.14-1.21-2.32-2.57-2.96c0.13,0.37,0.22,0.77,0.41,1.1c3.15,5.47,5.3,11.33,7.18,17.32
		c0.41,1.3,0.3,2.47-0.36,3.64c-0.65,1.14-1.27,2.3-1.91,3.44c-0.16-0.03-0.32-0.06-0.48-0.09c-2.23-8.57-6.34-16.34-10.47-24.34
		c1.35-1.35,2.67-2.67,4.12-4.13c4.23,4.09,8.31,8.03,12.59,12.17C237.16,206.42,236.28,209.24,235.31,212.05z M237.53,201.45
		c-0.75-0.63-1.29-1.02-1.75-1.48c-3.12-3.15-6.21-6.34-9.34-9.48c-1.57-1.57-3.22-3.06-4.81-4.59c-0.77-0.74-1.51-1.5-2.5-2.5
		c1.67-1.52,3.1-2.81,4.68-4.26c5.06,6.31,9.79,12.63,14.55,19.13C238.12,199.16,237.87,200.12,237.53,201.45z M239.45,193.54
		c-0.03,0.16-0.18,0.31-0.38,0.64c-4.92-9.57-10.21-18.73-17.86-26.7c-0.1,0.95,0.36,1.36,0.73,1.78c4.05,4.58,7.6,9.51,10.58,14.83
		c2.1,3.75,4.03,7.6,6.03,11.41c0.11,0.21,0.15,0.47,0.22,0.7c-0.09,0.07-0.18,0.14-0.27,0.21c-4.63-6-9.26-11.99-14.01-18.13
		c0.4-0.52,0.84-1.09,1.35-1.76c-2.24-2.97-4.47-5.94-6.81-9.04c0.79-0.77,1.44-1.4,2.18-2.11c0.78,0.48,1.46,0.83,2.06,1.27
		c4.58,3.42,9.15,6.86,13.74,10.28c1.02,0.76,1.75,1.69,2.02,2.9C240.02,184.35,240.29,188.93,239.45,193.54z M219.63,162.05
		c3.3-0.8,6.6-1.59,10.27-2.48c0.02,0.03,0.16,0.32,0.32,0.6c2.65,4.3,5.31,8.6,7.93,12.91c0.45,0.74,0.87,1.56,0.11,2.62
		C231.94,171.07,225.74,166.53,219.63,162.05z M238.85,171.87c-2.67-4.39-5.25-8.63-7.91-13.01c0.58-0.4,0.92-0.68,1.3-0.89
		c0.32-0.18,0.69-0.28,1.3-0.52c0.58,1.28,1.11,2.53,1.7,3.76c0.6,1.24,1.26,2.46,2.08,3.62c-0.34-2.83-2.12-5.22-2.54-8.19
		c0.64-0.42,1.29-0.84,1.94-1.27C239.06,158.88,239.9,166.47,238.85,171.87z M256.5,127.97c-0.29,1.65-0.87,3.32-1.68,4.78
		c-3.74,6.71-8.7,12.44-14.63,17.35c-0.47,0.39-1.01,0.71-1.9,1.32c-0.54-3.23-1.85-5.66-3.61-7.86c-1.73-2.17-3.48-4.34-5.35-6.67
		c0.57-0.74,1.17-1.45,1.7-2.22c1.37-1.97,2.99-3.83,3.99-5.97c1.61-3.44,1.77-7.18,1.31-10.95c-0.48-3.88-2.13-7.1-4.98-9.76
		c-1.61-1.5-3.49-2.52-5.79-3.18c-0.16-0.64-0.33-1.34-0.52-2.15c2.76-2.03,5.62-3.41,8.97-3.66c3.46-0.26,6.73,0.47,9.83,1.95
		c3.48,1.66,6.62,3.79,9.25,6.62c2.06,2.21,3.27,4.81,3.69,7.77C257.36,119.56,257.23,123.79,256.5,127.97z M227.71,135.57
		c-4.41-3.33-8.4-7.05-13.41-9.48c4.66-4.39,9.21-8.68,13.87-13.07c-0.78-2.44-1.47-4.58-2.27-7.06c0.81,0.28,1.29,0.38,1.69,0.6
		c4.27,2.41,6.42,6.19,6.96,10.91c0.19,1.68,0.1,3.41,0.02,5.11C234.34,127.93,231.42,131.88,227.71,135.57z M259.25,119.03
		c-0.12-0.84-0.3-1.67-0.37-2.51c-0.35-4.31-2.16-7.92-5.4-10.76c-4.76-4.18-10.13-7.18-16.57-8.07c-3.58-0.49-6.84,0.29-9.95,1.92
		c-1.18,0.62-2.28,1.38-3.29,1.99c-0.7,0.97-0.39,1.86-0.14,2.69c0.6,2,1.28,3.97,1.92,5.96c0.23,0.71,0.43,1.44,0.7,2.36
		c-2.51,2.34-5.06,4.62-7.5,7c-2.37,2.31-5.16,4.23-7.28,7c0.41,0.24,0.6,0.45,0.82,0.48c2.05,0.23,3.73,1.28,5.29,2.49
		c2.61,2.02,5.19,4.09,7.71,6.21c0.67,0.57,1.09,1.43,1.88,2.51c1.21,0.21,2.24,1.41,3.21,2.67c0.97,1.25,1.89,2.54,2.88,3.78
		c1.88,2.35,2.69,5.11,3.25,8.02c-0.24,0.25-0.41,0.52-0.66,0.7c-3.62,2.52-7.44,4.63-11.74,5.83c-7.53,2.09-13.7,0.08-18.51-6
		c-3.73-4.71-5.68-10.08-6.09-16.06c-0.37-5.37-0.22-10.74,0.12-16.09c0.98-15.67,9.97-27.08,24.64-32.51
		c1.36-0.5,2.78-0.88,4.44-1.4l1.76-0.18c2.43-0.8,4.96-0.69,7.47-0.3c5.24,0.8,9.32,3.68,12.73,7.5
		c4.39,4.91,7.59,10.49,8.64,17.05c0.4,2.53,0.3,5.14,0.43,7.71C259.52,119,259.39,119.02,259.25,119.03z"/>
	<path d="M163.83,150.96L163.83,150.96c0,0.01-0.01,0.01-0.01,0.02c0.01,0,0.01,0,0.02,0C163.84,150.97,163.83,150.97,163.83,150.96
		z"/>
	<path d="M186.39,193.76c0.63,1.59,1.3,3.16,1.99,4.72c0.15,0.34,0.47,0.62,0.71,0.92c0.17-0.54,0.13-0.98,0.01-1.38
		c-0.37-1.28-0.67-2.58-1.16-3.81c-3.71-9.3-7.91-18.38-12.92-27.06c-2.79-4.83-5.82-9.51-8.75-14.26
		c-0.57-0.93-1.21-1.79-2.42-1.92c1.54,2.61,3.02,5.26,4.62,7.84C175.37,169.99,181.51,181.55,186.39,193.76z"/>
	<path d="M163.82,150.98C163.82,150.98,163.82,150.98,163.82,150.98c0.01,0,0.01-0.01,0.01-0.02
		C163.83,150.96,163.82,150.98,163.82,150.98z"/>
	<path d="M105.39,82.47c1.32,0.56,2.47,0.37,3.5-0.61c1.45-1.37,2.11-3.11,2.38-5.03c0.2-1.45-0.08-2.05-1.21-2.69
		c-1.49-0.85-2.74-0.91-3.71,0c-1.57,1.47-2.56,3.27-2.67,5.05C103.63,80.91,104.09,81.92,105.39,82.47z"/>
	<path d="M76.62,105.67c-0.41,0.38-0.73,0.88-1.01,1.37c-1.89,3.29-3.89,6.53-5.6,9.91c-2.77,5.47-5.43,11-7.98,16.58
		c-1.81,3.96-3.39,8.04-5.03,12.08c-0.26,0.65-0.75,1.33-0.3,2.16c0.95-0.03,1.14-0.74,1.41-1.36c2.99-6.83,5.87-13.71,8.99-20.49
		c2.96-6.44,6.16-12.76,10.04-18.72c0.3-0.46,0.56-0.96,0.83-1.44c-0.09-0.15-0.17-0.3-0.26-0.45
		C77.34,105.43,76.88,105.44,76.62,105.67z"/>
	<path d="M105.66,131.48c-2.77-6.52-5.76-12.94-9.5-18.98c-1.22-1.97-2.5-3.91-3.86-6.03c-0.1,0.39-0.18,0.53-0.14,0.61
		c5.55,9.67,10.56,19.59,14.58,29.99c0.04,0.1,0.19,0.15,0.3,0.22c0.15-0.02,0.31-0.03,0.46-0.05c-0.07-0.63-0.04-1.31-0.25-1.89
		C106.79,134.02,106.21,132.76,105.66,131.48z"/>
	<path d="M82.74,120.78c-0.06-0.02-0.13,0-0.38,0.02c-1.33,9.68-0.9,19.4-0.01,29.12c-0.28-9.68-0.34-19.36,0.52-29.03
		C82.88,120.86,82.8,120.79,82.74,120.78z"/>
	<path d="M63.07,72.99c-0.97,1.29-1.75,2.77-2.39,4.26c-0.54,1.27-0.17,2.14,0.7,2.66c1.03,0.61,1.92,0.49,2.91-0.51
		c1.35-1.38,2.32-3.01,2.88-4.84c0.18-0.58,0.14-1.22,0.21-1.83C65.23,71.3,64.35,71.3,63.07,72.99z"/>
</g>
</svg>
