<?xml version="1.0" encoding="utf-8"?>
<!-- Generator: Adobe Illustrator 23.0.3, SVG Export Plug-In . SVG Version: 6.00 Build 0)  -->
<svg version="1.1" id="Calque_1" xmlns="http://www.w3.org/2000/svg" xmlns:xlink="http://www.w3.org/1999/xlink" x="0px" y="0px"
	 viewBox="0 0 283.46 283.46" style="enable-background:new 0 0 283.46 283.46;" xml:space="preserve">
<style type="text/css">
	.st0{fill:#FFFFFF;}
</style>
<g>
	<path class="st0" d="M203.6,231.88c0.23-1.45,0.18-4.92-0.09-5.93c-2.14,1.28-4.26,2.54-6.65,3.97c-0.4,0.37-1.03,0.78-1.43,1.36
		c-0.42,0.6-1.13,1.03-1.31,1.97c1.7-0.07,3.24-0.48,4.8-0.71C200.49,232.29,202.1,232.33,203.6,231.88z"/>
	<path class="st0" d="M203.35,198.86c-0.49,0.52-1,1.04-1.42,1.47c-0.18,2.48,0.1,4.55,0.83,6.14c0.22-0.09,0.49-0.12,0.66-0.27
		c0.47-0.41,0.9-0.86,1.35-1.29c1.3-1.27,2.57-2.57,3.91-3.8c1.41-1.3,2.93-2.48,4.31-3.8c2.39-2.3,4.72-4.67,7.07-7.02
		c0.21-0.21,0.35-0.48,0.54-0.75c-0.25-0.29-0.45-0.53-0.66-0.75c-1.23-1.27-2.54-2.44-3.63-3.84c-0.3-0.39-0.61-0.86-1.29-0.95
		c-1.08,0.92-2.2,1.92-3.36,2.85c-1.13,0.91-2.31,1.75-3.47,2.62c-1.2,0.89-2.42,1.78-3.61,2.66c-0.11,0.26-0.22,0.49-0.32,0.72
		c-1.09-0.09-1.71,0.59-2.34,1.3c-0.11,0.88-0.27,1.75-0.3,2.63c-0.07,1.99-0.04,1.99,0.39,2.72c0.57-0.28,0.93-0.79,1.36-1.21
		c0.85-0.83,0.84-0.84,1.52-1.04C204.4,197.9,203.84,198.35,203.35,198.86z"/>
	<path class="st0" d="M95.6,134.71c-1.36-0.03-2.69,0.22-4,0.47c-3.2,0.61-6.36,1.39-9.5,2.29c-3.31,0.94-6.45,2.23-9.48,3.85
		c-2.52,1.35-4.97,2.79-7.28,4.47c-1.64,1.19-3.2,2.47-4.6,3.94c-0.13,0.13-0.32,0.26-0.13,0.57c0.63-0.03,1.3-0.04,1.97-0.09
		c0.67-0.05,1.34-0.17,2.01-0.17c1.24-0.02,2.48,0.04,3.72,0.19c1.64,0.2,3.31,0.07,4.95,0.38c1.07,0.2,2.17,0.22,3.23,0.41
		c2.59,0.48,5.19,0.95,7.76,1.55c5.04,1.18,10.04,2.55,14.97,4.15c3.4,1.11,6.78,2.29,10.15,3.49c2.49,0.89,4.97,1.8,7.41,2.81
		c3.74,1.54,7.48,3.09,11.11,4.87c0.16,0.08,0.35,0.23,0.55-0.07c-0.73-0.85-1.5-1.69-2.2-2.59c-1.27-1.64-2.51-3.29-3.73-4.96
		c-2.99-4.1-5.89-8.27-9.08-12.22c-1.66-2.06-3.31-4.11-4.98-6.16c-0.72-0.88-1.47-1.74-2.22-2.6c-1.15-1.33-2.31-2.66-3.47-3.98
		c-0.14-0.15-0.31-0.28-0.59-0.52c-0.54-0.02-1.06-0.06-1.58-0.07C98.92,134.71,97.26,134.75,95.6,134.71z"/>
	<path class="st0" d="M235.41,175.43c0.22-0.79,0.18-1.6,0.1-2.32c-0.89-2.17-2.13-4.04-3.3-5.93c-1.61-2.6-3.34-5.13-5.02-7.68
		c-0.17-0.25-0.36-0.49-0.52-0.7c-0.23-0.01-0.39-0.06-0.53-0.02c-0.35,0.1-0.68,0.24-1.02,0.36c-2.73,1.02-5.49,1.9-8.46,1.84
		c-0.19,0-0.37,0.05-0.58,0.08c0.06,0.16,0.07,0.3,0.14,0.34c6.4,4.51,12.77,9.05,18.83,14.02
		C235.1,175.47,235.24,175.43,235.41,175.43z"/>
	<path class="st0" d="M212.68,160.75c-0.23-0.12-0.49-0.16-0.72,0.04c0.29,1.07,1,2.18,2.84,4.4c0.3-0.26,0.64-0.49,0.9-0.79
		c0.29-0.33,0.85-0.39,0.96-0.97c-0.9-0.64-1.78-1.28-2.66-1.89C213.58,161.26,213.14,160.99,212.68,160.75z"/>
	<path class="st0" d="M203.48,232.44c-3.46,0.62-6.94,1.07-10.28,1.87c-1.1,1.52-2.02,3.02-2.74,4.68
		c4.34-2.21,8.91-3.72,13.36-5.31C204.09,233.05,204.04,232.65,203.48,232.44z"/>
	<path class="st0" d="M168.54,257.29c-0.22,0.91,0.18,1.73,0.37,2.58c0.03,0.15,0.23,0.27,0.39,0.44c1.36-1.61,2.66-3.14,4.07-4.8
		C171.8,255.7,169.56,256.54,168.54,257.29z"/>
	<path class="st0" d="M189.68,244.82c1.31-0.48,2.6-1.04,3.93-1.44c2.08-0.63,4.19-1.13,6.28-1.73c1.48-0.43,2.94-0.94,4.37-1.4
		c0.17-1.89,0.01-3.83-0.42-5.28c-2.8,0.58-12.46,4.48-14.34,6.13c-0.27,1.29-0.97,2.51-0.6,3.98
		C189.2,244.98,189.44,244.91,189.68,244.82z"/>
	<path class="st0" d="M187.66,253.54c0.31-0.62,0.59-1.16,0.86-1.72c0.11-0.22,0.17-0.47,0.34-0.95c-1.92,0.41-3.5-0.11-5.12-0.4
		c-0.59,0.44-1.16,0.86-1.77,1.32c0.19,0.14,0.3,0.26,0.43,0.3C184.13,252.58,185.86,253.05,187.66,253.54z"/>
	<path class="st0" d="M189.21,250.37c0.79-1.5,1.53-2.92,2.28-4.35c-1.52,0.22-1.96,0.45-6.04,3.3c-0.23,0.16-0.56,0.29-0.48,0.77
		C186.34,249.96,187.68,250.62,189.21,250.37z"/>
	<path class="st0" d="M189.1,93.19c-0.58,1.27-1.18,2.54-1.75,3.82c-0.1,0.22-0.08,0.48-0.13,0.76c0.52,0.27,0.98,0.5,1.43,0.74
		c1.6,0.85,3.22,1.68,4.81,2.55c1.45,0.8,2.88,1.65,4.32,2.46c0.39,0.22,0.77,0.53,1.29,0.48c0.16-0.21,0.35-0.4,0.48-0.62
		c0.99-1.71,2.08-3.34,3.34-4.87c2.15-2.62,4.56-4.96,7.34-6.9c1.06-0.74,2.17-1.42,3.29-2.08c2.79-1.63,5.72-2.92,8.82-3.82
		c0.72-0.21,1.47-0.36,2.19-0.79c-0.24-0.37-0.41-0.69-0.64-0.97c-1.04-1.29-2.09-2.57-3.16-3.83c-1.24-1.46-2.47-2.93-3.79-4.32
		c-1.35-1.43-2.78-2.79-4.29-4.07c-1.58-1.34-3.19-2.65-4.88-3.85c-2.37-1.68-4.85-3.21-7.46-4.48c-2.84-1.39-5.78-2.56-8.8-3.5
		c-2.47-0.77-4.94-1.55-7.48-2.07c-0.86-0.17-1.71-0.24-2.69-0.05c0.28,0.56,0.51,1.02,0.75,1.47c0.27,0.5,0.58,0.98,0.83,1.49
		c1.25,2.56,2.51,5.12,3.72,7.71c1.61,3.45,2.63,7.08,3.4,10.79c0.2,0.98,0.18,1.96,0.33,2.93c0.23,1.48,0.47,2.96,0.73,4.43
		c0.19,1.1-0.04,2.07-0.42,3.02C190.22,90.84,189.64,92.01,189.1,93.19z"/>
	<path class="st0" d="M166.21,260.33c-1.43,1.43-2.98,2.73-4.58,3.96c-0.61,0.47-1.28,0.88-1.91,1.34c-2.18,1.63-4.57,2.83-7.2,3.58
		c-0.72,0.21-1.41,0.28-2.35,0.16c1.04-0.38,1.86-0.7,2.68-0.98c1.68-0.58,3.22-1.44,4.77-2.28c1.74-0.94,3.3-2.15,4.85-3.36
		c1.02-0.79,2.11-1.52,2.93-2.55c0.11-0.14,0.13-0.34,0.22-0.6c-1.88-0.3-3.63-0.78-5.46-0.77c-0.26,0-0.54,0.02-0.77-0.07
		c-0.71-0.25-1.44-0.2-2.16-0.21c-1.71-0.01-3.43,0-5.14,0.01c-0.41,0-0.83,0.05-1.24,0.09c-0.57,0.05-1.13,0.15-1.69,0.18
		c-0.88,0.05-1.76-0.01-2.62,0.28c-0.27,0.09-0.6,0.01-1.01,0.01c0.15-0.22,0.2-0.4,0.31-0.44c0.43-0.16,0.88-0.35,1.33-0.41
		c1.38-0.19,2.76-0.45,4.17-0.38c0.72,0.04,1.44-0.1,2.16-0.17c1.12-0.12,2.27,0,3.41,0.04c0.41,0.01,0.82,0.13,1.23,0.13
		c2.45-0.02,4.85,0.35,7.23,0.89c0.33,0.08,0.7,0.01,1.06,0.01c-0.02-0.12-0.01-0.2-0.04-0.22c-0.24-0.19-0.49-0.36-0.73-0.56
		c-2.61-2.15-5.6-3.53-8.86-4.35c-2.01-0.51-4.05-0.91-6.12-1c-2.39-0.1-4.78-0.02-7.17-0.02c-0.26,0-0.52,0-0.78,0.04
		c-1.23,0.18-2.45,0.39-3.68,0.56c-1.75,0.23-3.45,0.67-5.15,1.11c-0.17,0.04-0.32,0.17-0.6,0.34c0.51,0.25,0.87,0.44,1.25,0.6
		c1.15,0.48,2.3,0.95,3.46,1.41c3.41,1.38,6.82,2.76,10.32,3.92c1.08,0.36,2.17,0.71,3.25,1.08c0.38,0.13,0.81,0.23,0.95,0.67
		c-0.01,0.13,0.01,0.24-0.03,0.33c-0.74,1.71-1.49,3.42-2.24,5.13c-0.25,0.57-0.43,1.18-0.76,1.69c-1.12,1.76-2.02,3.62-2.97,5.47
		c-0.14,0.26-0.25,0.54-0.41,0.91c0.25-0.03,0.41-0.01,0.53-0.06c1.11-0.44,2.23-0.85,3.31-1.35c3.07-1.41,6.02-3.04,8.91-4.78
		c1.06-0.64,2.08-1.36,3.13-2.03c2.01-1.31,3.62-3.09,5.49-4.67c-0.13-1.03-0.13-2.1-0.75-3.11
		C166.52,260.08,166.35,260.19,166.21,260.33z"/>
	<path class="st0" d="M93.49,88.81c-1.26-1.11-1.54-1.53-2.04-2.84c-0.62-1.65-1.03-3.36-1.31-5.01c-0.35-0.45-0.65-0.8-0.92-1.18
		c-0.93-1.31-1.8-2.67-2.77-3.95c-0.81-1.07-1.5-2.26-2.74-2.92c-0.08-0.04-0.19-0.04-0.33-0.07c-0.27,0.2-0.56,0.41-0.79,0.58
		c-1.34,3.07-2.38,6.17-4.07,8.99c-1.42,2.36-2.9,4.67-4.67,6.79c-0.87,1.03-1.81,2.01-2.67,3.04c-2.3,2.77-4.96,5.15-7.74,7.43
		c-0.28,0.23-0.54,0.49-0.82,0.72c-0.31,0.26-0.63,0.5-1.02,0.81c1.73,0.55,3.36,0.69,5.07,0.25c0.41,0.23,0.85,0.49,1.38,0.79
		c0.69,0.03,1.49-0.04,2.24,0.11c1.08,0.22,2.16,0.22,3.25,0.26c1.24,0.04,2.49-0.04,3.72,0.23c0.5,0.11,1.05,0.11,1.55,0
		c1.24-0.27,2.48-0.18,3.72-0.23c0.57-0.02,1.15-0.01,1.71-0.08c1.44-0.16,2.87-0.37,4.31-0.53c1.75-0.2,3.49-0.43,5.21-0.83
		c0.75-0.17,1.55-0.18,2.34-0.69c0.84-2.32,0.93-4.73,0.2-7.17c-0.45-0.44-0.86-0.83-1.22-1.18c-0.3-0.04-0.5-0.09-0.71-0.1
		c-1.51-0.1-3.01-0.06-4.46,0.45c-0.5,0.17-0.99,0.28-1.45,0c-0.11-0.36,0.05-0.58,0.27-0.71c0.53-0.33,1.06-0.67,1.63-0.89
		c2.14-0.81,4.21-0.37,6.17,0.6c1.11,0.55,1.8,1.51,2.11,2.75c0.39,1.59,0.44,3.18,0.03,4.77c-0.19,0.75-0.4,1.49-0.58,2.18
		c0.21,0.34,0.37,0.61,0.55,0.86c1.01,1.46,2.14,2.82,3.56,3.89c2.44,1.83,5.16,3.06,8.18,3.63c0.82,0.15,1.66,0.13,2.46,0.31
		c1.7,0.37,3.44,0.34,5.12,0.15c1.59-0.18,3.2-0.19,4.79-0.47c1.53-0.27,3.06-0.51,4.57-0.87c3.19-0.76,6.26-1.87,9.15-3.44
		c1.84-1,3.51-2.21,5.06-3.6c2.49-2.22,4.59-4.79,6.43-7.57c1.7-2.56,3.08-5.29,4.19-8.16c1.24-3.21,1.96-6.55,2.24-9.97
		c0.15-1.86,0.03-3.74,0.02-5.61c0-0.21-0.05-0.41-0.09-0.61c-0.19-1.28-0.39-2.56-0.6-3.93c-0.13-0.23-0.32-0.54-0.56-0.96
		c0.23-1.14-0.24-2.27-0.67-3.37c-1.12-2.92-2.48-5.72-4.26-8.29c-0.79-1.15-1.62-2.29-2.54-3.34c-1.3-1.48-2.74-2.84-4.33-4.03
		c-3.52-2.65-7.37-4.65-11.56-5.97c-1.83-0.57-3.71-0.95-5.63-1.12c-0.72-0.07-1.44-0.18-2.16-0.22c-0.57-0.03-1.14-0.02-1.71,0.02
		c-0.62,0.04-1.23,0.13-1.85,0.19c-0.47,0.04-0.94,0-1.4,0.09c-2.33,0.47-4.67,0.95-6.9,1.82c-2.28,0.89-4.46,1.97-6.48,3.37
		c-1.2,0.83-2.25,1.83-3.37,2.76c-1.42,1.17-2.55,2.57-3.67,4c-1.41,1.8-2.51,3.8-3.43,5.9c-0.85,1.96-1.46,3.99-2.02,6.04
		c-0.12,0.45-0.15,0.92,0.09,1.37c0.04,0.08,0.02,0.2,0.03,0.3c-0.15,0.21-0.3,0.41-0.47,0.65c-0.02,0.29-0.03,0.6-0.06,0.91
		c-0.07,0.62-0.05,1.27-0.25,1.84c-0.3,0.86-0.38,1.72-0.33,2.6c0.09,1.55,0.13,3.11,0.33,4.65c0.23,1.7,0.67,3.34,1.72,4.78
		c0.48,0.65,0.93,1.37,1.16,2.19c0.11,0.38,0.41,0.72,0.67,1.04c0.68,0.82,1.11,1.78,1.3,2.8c0.2,1.06,0.31,2.18-0.66,3.06
		C94.3,88.81,93.85,88.81,93.49,88.81z M109.56,76.36c-0.17,0.91-0.63,1.62-1.37,2.16c-0.71,0.24-1.33,0.08-1.97-0.41
		c-0.93-1.37-0.79-2.97-0.66-4.57c0.02-0.25,0.18-0.5,0.19-0.75c0.05-1.33,0.79-2.19,1.79-2.83c0.73-0.2,1.27,0.14,1.82,0.37
		c0.26,0.97,0.51,1.91,0.79,2.94C109.97,74.24,109.76,75.29,109.56,76.36z M98.74,60.86c1.62-1.75,3.28-3.48,5.39-4.66
		c2.04-1.13,4.13-2.16,6.35-2.92c3.14-1.07,6.32-1.96,9.6-2.51c2.95-0.5,5.91-1,8.85-1.54c1.73-0.32,3.45-0.67,5.22-0.66
		c0.2,0,0.4-0.09,0.68-0.15c0.93,0.31,1.93,0.25,2.65,1c-0.13,0.15-0.23,0.26-0.31,0.36c-0.65-0.06-1.26-0.14-1.87-0.16
		c-0.36-0.01-0.73,0.04-1.07,0.13c-3.35,0.93-6.63,2.06-9.86,3.33c-3.13,1.23-6.27,2.45-9.4,3.7c-1.83,0.74-3.63,1.53-5.43,2.31
		c-2.33,1.01-4.65,2.03-6.97,3.06c-0.57,0.25-1.11,0.56-1.69,0.8c-0.67,0.27-1.35,0.5-1.86,0.68c-0.7-0.1-1.05-0.37-1.27-0.91
		C97.93,62.06,98.24,61.4,98.74,60.86z"/>
	<path class="st0" d="M59.55,52.31c2.4,0.55,4.62,1.5,6.73,2.77c1.78,1.07,3.52,2.2,5.06,3.59c1.46,1.33,2.8,2.78,4.2,4.18
		c0.44,0.45,0.82,0.93,0.96,1.66c-0.11,0.15-0.24,0.35-0.38,0.54c-0.33-0.08-0.59-0.11-0.83-0.2c-0.39-0.15-0.76-0.33-1.14-0.5
		c-3.31-1.53-6.34-3.53-9.42-5.46c-2.33-1.45-4.64-2.94-6.97-4.41c-0.12-0.08-0.28-0.09-0.47-0.15c-0.14,0.16-0.3,0.29-0.4,0.47
		c-0.76,1.3-1.55,2.58-2.26,3.91c-1.97,3.71-3.75,7.52-5.05,11.53c-0.14,0.44-0.38,0.85-0.57,1.28c-0.4,0.9-0.83,1.79-1.17,2.71
		c-0.53,1.46-1.05,2.93-1.47,4.43c-0.52,1.84-0.94,3.71-1.41,5.57c-0.35,1.41-0.57,2.84-0.75,4.28c-0.18,1.44-0.5,2.85-0.5,4.31
		c0,0.77-0.14,1.53-0.22,2.42c1.4,2.92,3.27,5.64,5.85,7.83c1.04,0.88,2.2,1.58,3.54,1.89c0.85,0.2,1.7,0.5,2.6,0.39
		c2.31-0.28,4.28-1.35,6.21-2.62c-0.89-0.62-0.89-0.62-1.41-0.69c-0.31-0.04-0.63-0.02-0.93-0.09c-0.32-0.07-0.57-0.25-0.54-0.71
		c0.09-0.12,0.2-0.31,0.35-0.44c0.68-0.56,1.39-1.08,2.07-1.64c1.04-0.86,2.11-1.69,3.07-2.62c2.02-1.95,3.98-3.95,5.95-5.95
		c1.42-1.45,2.63-3.07,3.83-4.7c2.51-3.41,4.37-7.17,5.89-11.1c0.37-0.96,0.75-1.93,1.06-2.74c-0.19-1.47-0.35-2.75-0.51-4.03
		c-0.01-0.05,0-0.1,0-0.16c0.06-1.13-0.13-2.28,0.27-3.4c0.1-0.28,0.04-0.62,0.05-0.93c0.06-1.25-0.16-2.48-0.26-3.71
		c-0.08-1.04-0.23-2.06-0.51-3.06c-0.4-1.39-0.85-2.77-1.29-4.16c-0.57-1.8-1.54-3.4-2.58-4.95c-1.45-2.16-3.24-4.05-5.15-5.81
		c-0.68-0.63-1.41-1.19-2.37-1.7c-3.82,3.59-6.92,7.59-9.9,11.81C59.09,52.1,59.31,52.25,59.55,52.31z M63.68,73.2
		c-0.14,1.25-0.54,2.43-1.74,3.14c-1.1,0.23-1.91-0.18-2.56-1.05c-0.12-0.9-0.12-1.75,0.19-2.61c0.2-0.53,0.27-1.11,0.44-1.64
		c0.21-0.63,0.47-1.25,0.65-1.75c1-0.76,1.89-0.95,2.95-0.15C63.81,70.52,63.83,71.87,63.68,73.2z"/>
	<path class="st0" d="M70.18,39.64c1.57,1.03,2.96,2.28,4.23,3.66c0.7,0.76,1.37,1.56,2.04,2.34c1.12,1.3,2.03,2.75,2.85,4.26
		c0.9,1.66,1.48,3.43,1.98,5.23c0.69,2.5,1.21,5.03,1.15,7.65c-0.02,0.73,0.05,1.46,0.02,2.18c-0.06,1.5,0.15,3.01-0.29,4.49
		c-0.11,0.35,0.03,0.72,0.51,1c0.45,0.02,1.02,0.05,1.68,0.08c0.29,0.16,0.66,0.34,1.01,0.56c1.21,0.75,2.14,1.79,3.04,2.88
		c0.07,0.08,0.24,0.09,0.37,0.13c0.03-0.16,0.08-0.26,0.07-0.35c-0.28-1.65-0.34-3.28,0.12-4.92c0.17-0.59,0.26-1.23,0.23-1.84
		c-0.08-1.67,0.36-3.3,0.41-4.95c0-0.15,0.05-0.31,0.1-0.45c0.84-2.89,1.82-5.72,3.32-8.36c1.3-2.28,2.94-4.26,4.65-6.21
		c0.24-0.27,0.52-0.5,0.8-0.74c0.43-0.37,0.9-0.71,1.3-1.11c1.06-1.09,2.34-1.9,3.59-2.72c2.66-1.75,5.58-2.98,8.63-3.88
		c1.74-0.51,3.51-0.99,5.31-1.07c2.74-0.12,5.49-0.25,8.23,0.21c1.9,0.32,3.76,0.75,5.57,1.38c2.95,1.02,5.77,2.34,8.43,3.98
		c3.35,2.05,6.26,4.58,8.73,7.64c2.27,2.82,3.95,5.97,5.39,9.25c0.87,1.99,1.45,4.1,1.91,6.24c0.4,1.83,0.51,3.69,0.72,5.53
		c0.25,2.18-0.11,4.35-0.34,6.51c-0.15,1.43-0.56,2.84-0.87,4.25c-0.64,2.91-1.89,5.6-3.14,8.27c-0.53,1.12-1.24,2.16-1.87,3.23
		c-1.45,2.47-3.27,4.67-5.18,6.79c-0.86,0.96-1.86,1.8-2.85,2.64c-1.84,1.55-3.86,2.82-6.01,3.85c-2.29,1.11-4.7,1.9-7.17,2.53
		c-3.22,0.82-6.51,1.23-9.81,1.49c-2.48,0.2-4.98,0.15-7.45-0.29c-3.24-0.58-6.35-1.53-9.13-3.37c-1.93-1.27-3.62-2.77-4.71-4.87
		c-0.14-0.26-0.35-0.49-0.54-0.76c-1.34,0.5-2.76,0.53-4.15,1.08c0.75,0.9,1.64,1.47,2.46,2.08c3.82,2.86,7.68,5.65,11.53,8.47
		c1.88,1.38,3.78,2.73,5.64,4.14c2.07,1.56,4.1,3.16,6.12,4.72c0.35,0.07,0.65,0.13,1.05,0.21c0.4,0.47,0.83,0.99,1.28,1.49
		c0.31,0.35,0.61,0.71,0.97,1.01c0.83,0.7,1.7,1.36,2.54,2.05c2.64,2.18,5.25,4.38,7.9,6.56c2.04,1.68,4.12,3.31,6.15,5
		c2.23,1.86,4.44,3.75,6.61,5.67c1.71,1.51,3.37,3.08,5.01,4.67c1.72,1.66,3.39,3.38,5.08,5.06c0.25,0.25,0.52,0.49,0.96,0.9
		c0.8-1.44,1.51-2.69,2.19-3.96c0.84-1.55,1.66-3.11,2.49-4.67c1.9-3.58,3.84-7.13,5.68-10.74c2.55-4.99,5.15-9.97,7.44-15.09
		c0.87-1.94,1.81-3.85,2.71-5.78c0.52-1.13,1.02-2.27,1.52-3.41c1.03-2.32,2-4.68,3.09-6.97c2.02-4.27,4.12-8.5,6.17-12.75
		c0.61-1.26,1.16-2.55,1.77-3.89c-0.1-0.67-0.25-1.38-0.3-2.1c-0.08-1.03-0.13-2.06-0.28-3.09c-0.39-2.67-0.98-5.29-1.8-7.86
		c-0.94-2.92-2.13-5.74-3.48-8.49c-1.31-2.65-2.72-5.26-4.06-7.89c-1.32-2.59-2.85-5.06-4.4-7.52c-2.9-4.58-6.29-8.76-10.16-12.55
		c-1.93-1.89-3.76-3.87-5.87-5.57c-1.49-1.2-2.92-2.49-4.44-3.66c-2.22-1.71-4.52-3.3-6.88-4.82c-2.84-1.83-5.78-3.48-8.78-5.03
		c-3.74-1.93-7.59-3.62-11.51-5.13c-2.37-0.91-4.71-1.92-7.53-2.16c-1.32,0.39-2.87,0.8-4.39,1.3c-2.9,0.96-5.77,2.03-8.62,3.15
		c-4.45,1.75-8.83,3.63-13.09,5.79c-3.48,1.76-6.85,3.7-10.1,5.85c-3.25,2.14-6.45,4.35-9.37,6.94c-1.01,0.89-2.09,1.71-3.1,2.6
		c-0.53,0.47-1.1,0.94-1.52,1.59C69.89,39.36,70.01,39.54,70.18,39.64z"/>
	<path class="st0" d="M169.93,262.59c-0.02,0.04,0.08,0.14,0.13,0.23c0.94-0.27,1.88-0.53,2.81-0.83c0.97-0.32,1.98-0.55,2.95-1.04
		c-1.01-0.72-1.96-1.4-3.05-2.17C171.6,260,170.67,261.23,169.93,262.59z"/>
	<path class="st0" d="M61.32,126.92c0.69-0.23,1.38-0.44,2.08-0.65c1.29-0.38,2.57-0.8,3.89-1.09c1.11-0.25,2.22-0.47,3.38-0.44
		c1.29,0.03,2.43,0.36,3.45,1.2c1.21,0.99,2.56,1.76,4.09,2.16c1.36,0.35,2.75,0.54,4.13,0.66c1.91,0.17,3.83,0.09,5.74,0.3
		c2.43,0.27,4.86-0.16,7.29-0.3c0.22-0.01,0.44-0.2,0.65-0.3c-0.09-0.18-0.11-0.28-0.18-0.36c-2.73-3-5.94-5.35-9.69-6.89
		c-5.02-2.06-10.21-3.39-15.66-3.64c-0.21-0.01-0.43,0.01-0.62-0.06c-0.66-0.23-1.33-0.17-2.01-0.19c-1.04-0.03-2.06,0.16-3.09,0.22
		c-1.46,0.09-2.87,0.38-4.28,0.7c-3.33,0.75-5.96,2.61-8.07,5.23c-0.64,0.8-1.22,1.67-1.55,2.77c1.14,0.88,2.11,1.26,3.51,1.32
		C56.72,127.64,59.06,127.68,61.32,126.92z"/>
	<path class="st0" d="M202.46,191.13c-0.21-0.41-0.42-0.89-0.69-1.33c-0.63-1.01-1.28-2.01-1.93-3.01
		c-4.1-6.31-8.33-12.52-12.85-18.53c-2.4-3.19-4.79-6.39-7.18-9.58c-1.31-1.74-2.62-3.47-3.92-5.22c-0.23-0.31-0.52-0.65-0.35-1.2
		c0.18,0.01,0.4-0.04,0.55,0.05c0.22,0.12,0.42,0.3,0.58,0.5c0.76,0.92,1.5,1.85,2.24,2.79c1.39,1.74,2.8,3.47,4.16,5.23
		c1.42,1.85,2.78,3.74,4.19,5.6c2.5,3.31,4.94,6.66,7.28,10.09c1.43,2.1,2.82,4.23,4.18,6.38c1.5,2.36,2.96,4.76,4.44,7.13
		c0.13,0.2,0.34,0.35,0.5,0.52c0.22-0.11,0.37-0.17,0.49-0.25c3.29-2.35,6.56-4.73,9.87-7.06c0.99-0.7,1.84-1.52,2.66-2.38
		c0.64-0.68,1.19-1.45,1.86-2.09c0.83-0.8,1.46-1.75,2.19-2.62c0.09-0.11,0.1-0.29,0.16-0.48c-4.08-5.08-7.98-10.3-11.45-15.88
		c-0.77-0.36-1.61-0.66-2.37-1.11c-2.86-1.68-5.26-3.86-7.16-6.59c-0.95-1.37-1.77-2.79-2.49-4.3c-0.94-1.98-1.66-4.03-2.24-6.12
		c-0.25-0.89-0.43-1.82-0.49-2.74c-0.09-1.45-0.04-2.91-0.06-4.36c-0.02-1.04-0.01-2.07-0.18-3.1c-0.13-0.75-0.04-1.56,0.08-2.32
		c0.13-0.89,0.1-1.75-0.07-2.53c0.07-0.4,0.16-0.7,0.17-1.01c0.07-1.86,0.09-3.73,0.29-5.59c0.21-1.95,0.33-3.91,0.64-5.86
		c0.34-2.11,0.88-4.16,1.69-6.13c0.43-1.05,0.89-2.08,1.36-3.19c-1.32-0.78-2.6-1.56-3.9-2.3c-1.31-0.75-2.6-1.52-3.96-2.17
		c-1.34-0.64-2.52-1.62-4.02-2.07c-0.27,0.51-0.52,0.96-0.75,1.43c-1.96,3.95-3.8,7.96-5.57,12.01c-1.21,2.76-2.51,5.47-3.76,8.21
		c-0.17,0.36-0.48,0.7-0.29,1.16c0.37,0.28,0.8,0.5,1.1,0.84c1,1.12,1.97,2.27,2.94,3.42c1.36,1.63,2.69,3.28,4.04,4.93
		c1.05,1.28,2.13,2.54,3.16,3.84c1.73,2.2,3.45,4.41,5.12,6.65c1.06,1.41,2.03,2.88,3.03,4.33c0.14,0.21,0.23,0.46-0.04,0.66
		c-0.9-0.44-1.27-1.35-1.88-2.04c-0.66-0.73-1.29-1.49-1.91-2.25c-0.59-0.72-1.14-1.48-1.71-2.21c-0.58-0.73-1.17-1.45-1.76-2.18
		c-0.59-0.72-1.19-1.44-1.77-2.16c-0.61-0.77-1.2-1.56-1.82-2.33c-0.59-0.73-1.2-1.43-1.8-2.14c-0.6-0.71-1.21-1.42-1.8-2.14
		c-0.6-0.72-1.2-1.43-1.78-2.16c-0.62-0.77-1.16-1.6-1.84-2.31c-0.64-0.66-0.94-1.58-1.82-2.19c-0.3,0.68-0.55,1.3-0.85,1.89
		c-2.39,4.73-4.77,9.46-7.21,14.17c-1.43,2.77-2.95,5.49-4.43,8.23c-1.48,2.74-2.97,5.48-4.46,8.21c-0.27,0.5-0.56,1-0.9,1.45
		c-0.4,0.53-0.8,1.1-1.57,1.27c-0.2-0.12-0.45-0.22-0.63-0.39c-1.38-1.26-2.76-2.52-4.12-3.8c-1.24-1.18-2.43-2.42-3.69-3.59
		c-1.9-1.76-3.84-3.49-5.77-5.22c-1-0.9-2.01-1.8-3.04-2.67c-2.15-1.79-4.32-3.56-6.49-5.33c-2.41-1.97-4.82-3.94-7.23-5.91
		c-0.15-0.12-0.34-0.26-0.59,0.04c0.1,0.24,0.2,0.53,0.35,0.79c1.01,1.75,2.08,3.47,3.04,5.25c1.79,3.28,3.57,6.57,5.26,9.9
		c1.83,3.61,3.55,7.28,5.32,10.92c0.07,0.14,0.14,0.28,0.2,0.42c0.88,2.05,1.78,4.09,2.63,6.15c1.13,2.73,2.28,5.46,3.31,8.22
		c1.49,3.98,2.9,7.99,4.3,12.01c0.63,1.81,1.13,3.66,1.75,5.48c0.66,1.92,1.04,3.9,1.49,5.86c0.07,0.29,0.01,0.6,0.01,0.9
		c-0.3-0.22-0.46-0.48-0.54-0.76c-0.23-0.74-0.4-1.5-0.66-2.23c-0.94-2.69-1.7-5.44-2.68-8.12c-0.96-2.63-1.88-5.27-2.85-7.9
		c-1.38-3.75-2.86-7.45-4.33-11.16c-1.5-3.76-3.12-7.47-4.86-11.12c-2.72-5.72-5.62-11.36-8.61-16.95
		c-0.05-0.09-0.09-0.19-0.14-0.28c-1.37-2.44-2.76-4.87-4.11-7.33c-0.88-1.61-1.89-3.1-3.33-4.26c-1.78-1.43-3.5-2.93-5.32-4.31
		c-4.05-3.07-8.13-6.11-12.23-9.1c-3.81-2.78-7.64-5.54-11.28-8.55c-0.31-0.26-0.7-0.42-0.94-0.57c-1.95,0.22-3.73,0.56-5.55,0.58
		c-0.21,0-0.43-0.02-0.62,0.03c-1.22,0.34-2.48,0.24-3.72,0.25c-1.77,0.02-3.53,0.01-5.3-0.02c-0.67-0.01-1.34-0.14-2.01-0.19
		c-0.93-0.08-1.86-0.17-2.78,0c-0.63,0.5-1.26,0.95-1.83,1.48c-2.37,2.18-4.47,4.64-6.66,6.99c-0.14,0.15-0.24,0.34-0.37,0.5
		c-0.83,0.99-1.66,1.98-2.52,3c-0.59-0.05-1.08,0.61-1.81,0.16c0.14-0.23,0.23-0.41,0.35-0.56c0.7-0.83,1.43-1.64,2.11-2.49
		c1.69-2.1,3.49-4.11,5.42-6.01c0.96-0.95,1.92-1.9,2.87-2.86c0.12-0.13,0.19-0.31,0.38-0.62c-1.21,0.16-2.18-0.46-3.42-0.18
		c-0.75,0.43-1.65,0.94-2.54,1.46c-3.9,2.28-7.61,4.86-11.28,7.49c-2.78,1.99-5.54,4.02-8.3,6.04c-1.46,1.07-2.91,2.16-4.4,3.26
		c-0.18,0.88-0.38,1.73-0.51,2.6c-0.26,1.64-0.47,3.28-0.72,4.92c-0.27,1.79-0.58,3.57-0.85,5.36c-0.31,2.05-0.6,4.09-0.89,6.14
		c-0.14,0.97-0.24,1.95-0.37,2.93c-0.18,1.38-0.37,2.77-0.54,4.15c-0.05,0.36-0.08,0.72-0.09,1.09c-0.01,0.32-0.09,0.66,0.14,1.05
		c0.79-1.42,1.49-2.74,2.25-4.03c1.18-2.02,2.33-4.05,3.59-6.01c1.93-3.01,3.94-5.98,5.93-8.95c0.38-0.56,0.68-1.15,0.94-1.78
		c0.57-1.39,1.16-2.78,1.85-4.12c1.22-2.33,2.88-4.33,5.13-5.74c2.73-1.71,5.75-2.7,8.95-2.86c3.1-0.15,6.22-0.26,9.33,0.21
		c1.9,0.29,3.79,0.58,5.65,1.01c3.09,0.71,6.1,1.68,8.99,3c3.19,1.45,6.07,3.39,8.6,5.82c2.1,2.01,4.13,4.11,6.17,6.18
		c0.72,0.73,1.41,1.5,2.1,2.28c0.65,0.74,1.23,1.54,1.9,2.26c1.42,1.52,2.75,3.1,4.06,4.71c1.54,1.89,3.15,3.72,4.63,5.66
		c2.89,3.79,5.75,7.61,8.38,11.59c0.49,0.74,0.96,1.48,1.47,2.2c1.44,2.03,2.93,4.02,4.35,6.07c0.73,1.05,1.61,1.85,2.76,2.43
		c1.29,0.65,2.52,1.44,3.76,2.2c0.3,0.18,0.62,0.4,0.62,0.83c-0.07,0.08-0.13,0.21-0.2,0.21c-0.2,0.01-0.43,0.01-0.6-0.07
		c-0.75-0.35-1.49-0.72-2.23-1.1c-4.29-2.22-8.68-4.23-13.11-6.15c-3.1-1.34-6.22-2.62-9.39-3.77c-3.95-1.43-7.94-2.75-11.94-4.02
		c-3.11-0.99-6.26-1.87-9.41-2.71c-2.5-0.67-5.03-1.22-7.56-1.8c-2.32-0.53-4.66-0.93-7.03-1.27c-1.59-0.22-3.21-0.2-4.78-0.53
		c-3.42,0.03-6.85-0.27-10.26,0.26c-1.18,0.18-2.38,0.2-3.54,0.43c-2.85,0.56-5.67,1.25-8.4,2.24c-0.39,0.14-0.78,0.32-1.18,0.39
		c-0.6,0.11-1.24,0.25-1.87-0.37c-0.12-1.65-0.15-3.42,0.05-5.16c0.09-0.83,0.23-1.65,0.19-2.47c-0.1-2.29,0.33-4.55,0.38-6.83
		c0.03-1.18,0.34-2.35,0.51-3.53c0.11-0.74,0.2-1.48,0.32-2.42c-0.32,0.42-0.53,0.65-0.7,0.91c-1.95,2.94-3.93,5.86-5.71,8.91
		c-1.65,2.82-3.26,5.67-4.65,8.64c-0.66,1.41-1.26,2.84-1.34,4.44c-0.09,1.71-0.23,3.41-0.36,5.12c0,0.05,0,0.11-0.01,0.15
		c-0.48,1.77-0.22,3.61-0.5,5.41c-0.25,1.63-0.15,3.3-0.32,4.96c-0.21,2.01-0.15,4.03-0.3,6.06c-0.25,3.41-0.08,6.84-0.31,10.27
		c-0.22,3.21-0.06,6.44-0.06,9.66c0,0.41,0.03,0.84,0.14,1.23c0.24,0.88,0.15,1.75,0.05,2.63c-0.07,0.56-0.17,1.13-0.18,1.69
		c-0.02,1.66-0.01,3.33,0,4.99c0,0.36,0.03,0.73,0.06,1.09c0.06,0.67,0.17,1.34,0.17,2.01c0.04,4,0.05,8,0.07,12.01
		c0,0.47,0,0.94,0.05,1.4c0.16,1.44,0.37,2.87,0.52,4.31c0.15,1.39,0.24,2.78,0.37,4.18c0.01,0.15,0.05,0.31,0.07,0.46
		c0.17,1.54,0.34,3.08,0.52,4.62c0.03,0.25,0.09,0.49,0.14,0.77c0.43,0.04,0.78,0.08,1.14,0.1c1.09,0.04,2.17-0.03,3.25,0.23
		c0.43,0.1,0.91-0.01,1.42-0.02c0.2-0.43,0.43-0.78,0.54-1.17c0.34-1.14,0.64-2.29,0.94-3.45c1.01-3.85,2.02-7.71,3.04-11.56
		c0.92-3.5,1.85-7,2.76-10.51c0.55-2.1,1.06-4.21,1.61-6.32c0.55-2.1,1.13-4.2,1.7-6.29c0.54-2,1.08-3.99,1.64-5.99
		c0.5-1.79,0.99-3.59,1.51-5.38c0.42-1.44,0.87-2.86,1.33-4.38c0.54,0.2,0.45,0.47,0.39,0.7c-0.77,2.74-1.59,5.46-2.32,8.21
		c-1.09,4.1-2.12,8.21-3.16,12.32c-2.04,8.08-4.07,16.16-6.11,24.23c-0.72,2.86-1.49,5.71-2.23,8.56c-0.09,0.35-0.19,0.71,0.21,1.01
		c0.17,0.02,0.38,0.05,0.58,0.05c3.9,0,7.8,0,11.69-0.01c0.26,0,0.53,0.03,0.78-0.04c0.97-0.3,1.96-0.17,2.94-0.24
		c0.98-0.07,1.96-0.2,2.93-0.29c1.34-0.13,2.68-0.23,4.02-0.39c0.4-0.05,0.77-0.26,1.15-0.4c1.4-2.6,2.84-5.13,4.14-7.73
		c1.78-3.52,3.47-7.09,5.18-10.65c0.47-0.98,0.93-1.97,1.33-2.98c1.24-3.13,2.54-6.24,3.69-9.41c1.37-3.75,2.65-7.53,3.78-11.36
		c1.32-4.47,2.43-8.98,3.38-13.54c0.72-3.44,1.46-6.87,1.84-10.37c0.08-0.72,0.2-1.44,0.36-2.14c0.07-0.31,0.12-0.75,0.72-0.75
		c0.04,0.24,0.09,0.48,0.12,0.72c0.11,0.84-0.26,1.64-0.29,2.46c-0.05,1.77-0.44,3.49-0.76,5.21c-0.67,3.61-1.43,7.2-2.35,10.75
		c-0.88,3.41-1.71,6.83-2.76,10.19c-1.12,3.56-2.28,7.11-3.54,10.63c-0.89,2.49-1.95,4.91-2.94,7.37c-1.6,4-3.35,7.93-5.29,11.78
		c-0.82,1.63-1.63,3.25-2.46,4.87c-0.71,1.38-1.47,2.75-2.19,4.13c-0.08,0.15-0.06,0.36-0.1,0.65c0.41,0,0.72,0.03,1.02-0.01
		c0.92-0.12,1.85-0.25,2.77-0.39c1.69-0.27,3.37-0.56,5.05-0.83c1.53-0.25,3.07-0.45,4.6-0.73c2.44-0.45,4.87-0.97,7.31-1.42
		c3.36-0.62,6.69-1.38,10.02-2.17c1.71-0.41,3.42-0.84,5.12-1.31c3.45-0.95,6.89-1.92,10.33-2.9c0.34-0.1,0.64-0.32,0.92-0.46
		c1-1.84,1.71-3.74,2.39-5.64c1.68-4.73,3.19-9.52,4.22-14.45c0.38-1.82,0.81-3.64,1.01-5.48c0.22-2.05,0.76-4.07,0.69-6.16
		c0-0.1-0.01-0.22,0.03-0.31c0.37-1,0.23-2.05,0.28-3.09c0.02-0.52,0.05-1.04,0.09-1.55c0.05-0.56,0.18-1.13,0.19-1.69
		c0.02-2.96,0.01-5.93,0.01-8.89c0-0.41,0.02-0.85-0.09-1.24c-0.36-1.23-0.15-2.46-0.11-3.71c0.24,0.46,0.48,0.9,0.5,1.43
		c0.06,1.39,0.47,2.76,0.34,4.17c-0.01,0.15,0,0.32,0.06,0.46c0.28,0.65,0.24,1.33,0.21,2c-0.08,2.59,0.17,5.18-0.24,7.77
		c-0.23,1.47-0.04,2.99-0.33,4.49c-0.17,0.9-0.16,1.84-0.29,2.77c-0.22,1.53-0.4,3.07-0.69,4.59c-0.37,1.93-0.78,3.84-1.19,5.76
		c-0.5,2.33-1.19,4.61-1.86,6.89c-1.1,3.73-2.32,7.42-3.68,11.06c-0.03,0.08,0.04,0.19,0.08,0.35c0.18,0,0.39,0.05,0.57-0.01
		c2.78-0.84,5.55-1.7,8.33-2.55c1.44-0.44,2.87-0.89,4.31-1.33c3.32-1.01,6.67-1.96,9.97-3.04c6.76-2.2,13.53-4.37,20.14-7
		c2.55-1.02,5.1-2.05,7.64-3.12c2.01-0.85,3.97-1.79,5.98-2.65c4.02-1.71,7.84-3.83,11.67-5.91c2.1-1.14,4.11-2.43,6.16-3.64
		c3.53-2.09,6.95-4.35,10.35-6.63C201.81,192.03,202.26,191.75,202.46,191.13z M193.23,125.32c-0.62-0.63-1.24-1.26-1.83-1.91
		c-0.45-0.49-0.85-1.05-1.32-1.52c-2.89-2.91-5.79-5.81-8.68-8.72c-0.27-0.28-0.71-0.47-0.63-1.03c0.14-0.02,0.3-0.08,0.42-0.04
		c0.74,0.26,1.39,0.68,1.95,1.25c1.71,1.74,3.5,3.4,5.14,5.2c1.84,2.02,3.63,4.11,5.17,6.38c0.1,0.15,0.17,0.33,0.34,0.68
		C193.46,125.45,193.32,125.41,193.23,125.32z M70.7,114.16c-0.46-0.07-0.7-0.1-0.96-0.14c-0.02-0.63,0.31-1.07,0.57-1.49
		c1.61-2.65,3-5.43,4.89-7.9c0.23,0.05,0.39,0.05,0.52,0.11c0.13,0.06,0.25,0.17,0.43,0.3C74.15,107.96,72.49,111.05,70.7,114.16z
		 M104.24,133.91c-0.55-0.41-0.92-0.96-1.19-1.6c-1.16-2.76-2.37-5.51-3.51-8.28c-1.11-2.69-2.48-5.25-3.8-7.82
		c-1.09-2.11-2.35-4.13-3.52-6.21c-0.38-0.67-0.71-1.38-1.06-2.06c5.73,8,9.84,16.89,13.61,26.09
		C104.5,133.97,104.34,133.98,104.24,133.91z M99.89,168.67c-3.05-0.58-6.08-1.21-9.14-1.73c-1.88-0.32-3.8-0.47-5.69-0.71
		c-1.33-0.17-2.66-0.37-3.99-0.55c-0.05-0.01-0.1-0.02-0.15-0.02c-1.86-0.12-3.72-0.23-5.58-0.36c-0.62-0.04-1.23-0.13-1.85-0.19
		c-0.41-0.04-0.83-0.07-1.24-0.07c-5.4,0-10.8-0.01-16.2,0c-0.51,0-1.03,0.1-1.54,0.16c-0.26,0.03-0.51,0.08-0.77,0.08
		c-2.34,0.02-4.67,0.04-7.01,0.05c-0.34,0-0.71,0.02-1.03-0.32c0.29-0.43,0.73-0.45,1.09-0.54c0.39-0.1,0.82-0.08,1.24-0.09
		c1.14-0.05,2.27-0.04,3.41-0.25c1.01-0.18,2.07-0.07,3.11-0.1c0.78-0.02,1.55,0.01,2.32-0.2c0.44-0.12,0.93-0.07,1.39-0.07
		c4.26-0.01,8.52-0.01,12.78-0.01c0.78,0,1.54,0.04,2.32,0.19c0.75,0.15,1.55,0.08,2.33,0.1c0.78,0.03,1.56-0.04,2.31,0.22
		c0.19,0.07,0.41,0.05,0.62,0.06c1.97,0.05,3.92,0.33,5.86,0.6c1.84,0.26,3.71,0.38,5.54,0.71c2.85,0.51,5.74,0.84,8.48,1.85
		c0.67,0.25,1.36,0.47,1.95,1.08C100.17,168.62,100.02,168.69,99.89,168.67z M186.1,198.28c-0.58-0.55-0.79-1.19-1.04-1.8
		c-0.54-1.34-1.02-2.71-1.58-4.05c-0.83-2.01-1.7-4.01-2.56-6.01c-0.64-1.47-1.28-2.94-1.93-4.41c-0.15-0.33-0.31-0.66-0.47-0.98
		c-1.16-2.32-2.29-4.66-3.48-6.97c-1.72-3.31-3.5-6.59-5.46-9.78c-1.14-1.85-2.2-3.75-3.32-5.62c-1.01-1.69-2.06-3.36-3.06-5.05
		c-0.53-0.89-1-1.81-1.49-2.72c0.92,0.08,1.35,0.66,1.74,1.25c0.97,1.47,1.92,2.95,2.85,4.45c1.33,2.16,2.64,4.34,3.94,6.52
		c1.06,1.78,2.08,3.58,3.12,5.38c1.82,3.15,3.39,6.43,4.98,9.69c0.86,1.77,1.63,3.59,2.42,5.39c0.82,1.85,1.62,3.7,2.45,5.55
		c1.1,2.46,2.06,4.98,2.85,7.56C186.21,197.18,186.34,197.65,186.1,198.28z"/>
	<path class="st0" d="M46.54,146.77c-0.1,1.44-0.23,2.89-0.36,4.33c-0.03,0.31-0.18,0.6-0.21,0.91c-0.04,0.45-0.18,0.93,0.2,1.39
		c1.35-0.24,2.62-0.86,3.96-1.21c1.35-0.35,2.71-0.68,4.08-0.97c1.36-0.29,2.74-0.51,4.26-0.78c0.32-0.37,0.76-0.81,1.13-1.31
		c0.47-0.63,1-1.19,1.64-1.64c0.25-0.18,0.49-0.38,0.72-0.6c1.34-1.24,2.81-2.31,4.34-3.27c3.07-1.94,6.19-3.79,9.56-5.18
		c2.02-0.83,4.07-1.55,6.17-2.12c2.39-0.66,4.82-1.21,7.24-1.74c1.77-0.38,3.54-0.79,5.36-0.81c0.21,0,0.42-0.01,0.62-0.06
		c1.54-0.33,3.08-0.31,4.63,0c0.33,0.07,0.69,0.01,1.09,0.01c-0.79-1.35-2.27-2.96-3.79-4.16c-1.08,0.17-2.15,0.46-3.22,0.47
		c-3.89,0.02-7.78,0.27-11.66-0.22c-0.97-0.12-1.95-0.19-2.92-0.36c-2.23-0.4-4.29-1.21-6.04-2.68c-0.57-0.48-1.2-0.8-1.75-0.98
		c-0.83,0.08-1.5,0.15-2.16,0.22c-0.31,0.03-0.63,0.04-0.92,0.12c-1.25,0.34-2.5,0.68-3.74,1.05c-1.88,0.56-3.77,1.1-5.72,1.42
		c-2.48,0.42-4.84,0.12-7.18-0.68c-0.48-0.16-0.92-0.42-1.37-0.62c-0.53,0.33-0.64,0.85-0.82,1.33c-1.3,3.52-2.01,7.18-2.45,10.88
		c-0.18,1.54-0.49,3.07-0.39,4.64c0.01,0.2,0.01,0.43-0.06,0.62C46.52,145.42,46.59,146.1,46.54,146.77z"/>
	<path class="st0" d="M41.64,117.29c3.03-2.18,6.03-4.38,9.08-6.53c1.73-1.22,3.53-2.37,5.29-3.55c0.16-0.11,0.35-0.2,0.26-0.47
		c-0.66-0.12-1.31-0.28-1.97-0.34c-1.26-0.11-2.42-0.54-3.55-1.06c-2.58-1.18-4.46-3.17-6.14-5.37c-0.74-0.98-1.34-2.07-2.06-3.2
		c-0.13,0.24-0.29,0.4-0.3,0.58c-0.04,1.14-0.18,2.27-0.35,3.39c-0.18,1.17-0.24,2.36-0.38,3.54c-0.1,0.82-0.22,1.64-0.36,2.45
		c-0.26,1.53-0.55,3.05-0.82,4.57c-0.4,2.29-0.8,4.58-1.19,6.87c-0.04,0.24-0.01,0.49-0.01,0.85
		C40.03,118.4,40.85,117.86,41.64,117.29z"/>
	<path class="st0" d="M42.44,89.06c0.06-1.51,0.38-2.97,0.63-4.45c0.69-4,1.79-7.87,3.29-11.64c0.15-0.38,0.4-0.79,0.37-1.17
		c-0.09-1.19,0.43-2.09,1.2-2.93c-0.04-0.76,0.2-1.41,0.74-1.96c0.14-0.14,0.23-0.34,0.32-0.53c0.37-0.8,0.74-1.6,1.09-2.41
		c1.46-3.45,3.2-6.75,5.21-9.91c0.13-0.21,0.21-0.45,0.32-0.69c-0.77-0.79-1.65-1.17-2.66-1.26c-0.36-0.03-0.73-0.02-1.09-0.08
		c-0.18-0.03-0.33-0.2-0.61-0.38c0.43-0.13,0.71-0.22,1.1-0.34c-0.55-0.35-1.03-0.64-1.5-0.95c-0.56-0.37-1.11-0.75-1.65-1.14
		c-0.05-0.04-0.03-0.19-0.05-0.32c0.11-0.06,0.24-0.14,0.39-0.22c1.07,0.42,2.07,0.95,3.06,1.53c0.76,0.44,1.55,0.85,2.33,1.26
		c0.57,0.3,1.17,0.43,1.83,0.17c1.62-2.11,3.2-4.3,4.9-6.38c1.7-2.08,3.53-4.06,5.33-6.1c-0.1-0.11-0.18-0.28-0.3-0.32
		c-0.87-0.32-1.74-0.66-2.64-0.91c-1.61-0.47-3.27-0.62-4.93-0.43c-2.19,0.25-4.23,1.03-6.1,2.17c-1.33,0.81-2.62,1.71-3.62,2.92
		c-0.83,0.99-1.59,2.04-2.31,3.12c-1.56,2.34-2.82,4.82-3.8,7.47c-1.18,3.17-2.04,6.41-2.68,9.72c-0.23,1.17-0.45,2.34-0.61,3.51
		c-0.17,1.22-0.1,2.47-0.53,3.65c-0.05,0.13,0.03,0.31,0.03,0.46c-0.05,2.07-0.1,4.15-0.14,6.22c-0.06,2.6,0.21,5.16,0.59,7.73
		c0.37,2.53,1.17,4.91,2.1,7.55C42.21,90.85,42.4,89.96,42.44,89.06z"/>
	<path class="st0" d="M225.12,213.45c-1.6-4.05-3.3-8.06-5.29-11.94c-0.93-1.8-1.79-3.63-2.67-5.46c-0.09-0.19-0.15-0.39-0.57-0.38
		c-1.89,1.9-3.9,3.84-5.87,5.84c0.44,0.74,0.81,1.3,1.12,1.89c1.83,3.5,3.63,7.01,5.46,10.5c0.69,1.33,1.48,2.6,2.17,3.94
		c0.89,1.75,1.95,3.43,2.98,5.1c0.7,1.14,1.41,2.28,2.3,3.4c0.83-1.5,1.6-2.9,2.4-4.33c-0.03-0.62,0.02-1.26-0.1-1.86
		C226.58,217.87,225.97,215.61,225.12,213.45z"/>
	<path class="st0" d="M220.29,222.47c-0.82-1.38-1.67-2.75-2.5-4.13c-0.13-0.22-0.23-0.47-0.58-0.48c-1.02,0.62-2.08,1.27-3.19,1.95
		c0.17,0.35,0.29,0.63,0.44,0.9c0.81,1.45,1.7,2.86,2.43,4.34c0.92,1.86,1.73,3.77,2.56,5.67c0.37,0.85,0.67,1.74,1.01,2.61
		c0.09,0.23,0.19,0.5,0.53,0.45c0.78-1.03,2.47-4.07,3.19-5.75c-0.17-0.27-0.33-0.6-0.56-0.87
		C222.34,225.71,221.27,224.12,220.29,222.47z"/>
	<path class="st0" d="M228.07,187.8c-2.18-2.89-4.39-5.77-6.6-8.63c-0.24-0.31-0.47-0.71-1.04-0.67c-0.38,0.42-0.77,0.9-1.22,1.32
		c-0.87,0.82-1.77,1.6-2.64,2.41c-0.21,0.19-0.53,0.35-0.46,0.69c0.44,0.42,0.86,0.8,1.27,1.2c1.29,1.28,2.58,2.57,3.88,3.84
		c0.48,0.47,1.02,0.88,1.49,1.36c1.12,1.15,2.23,2.32,3.33,3.49c1.14,1.21,2.23,2.46,3.41,3.63c1.43,1.42,2.93,2.79,4.41,4.17
		c0.1,0.1,0.26,0.13,0.58,0.27c0.3-1.3,1-2.35,0.68-3.55C232.77,194.11,230.44,190.94,228.07,187.8z"/>
	<path class="st0" d="M128.12,13.09c3.04,1.08,5.96,2.41,8.88,3.77c3.81,1.78,7.52,3.77,11.1,5.99c3.44,2.13,6.77,4.42,9.89,7.01
		c0.8,0.66,1.59,1.33,2.37,2.02c1.63,1.44,3.28,2.86,4.87,4.36c1.21,1.14,2.36,2.33,3.43,3.61c1.07,1.27,2.32,2.38,3.32,3.71
		c0.97,1.28,1.99,2.52,2.92,3.83c1.53,2.16,2.99,4.37,4.29,6.68c0.56,0.99,1.19,1.94,1.8,2.93c0.45,0.02,0.86,0.05,1.27,0.05
		c0.99,0.01,1.95,0.08,2.93,0.28c1.17,0.24,2.32,0.54,3.45,0.9c2.42,0.78,4.87,1.46,7.25,2.35c2.09,0.78,4.14,1.68,6.11,2.71
		c2.02,1.05,3.96,2.27,5.87,3.51c3.01,1.94,5.82,4.17,8.36,6.7c1.47,1.46,2.92,2.94,4.28,4.52c1.69,1.96,3.38,3.93,4.84,6.07
		c0.19,0.28,0.5,0.49,0.74,0.72c0.54-0.1,0.99-0.21,1.45-0.28c0.46-0.07,0.93-0.1,1.39-0.15c0.51-0.05,1.03-0.12,1.54-0.15
		c0.47-0.02,0.94,0.04,1.4-0.01c0.45-0.05,0.89,0.32,1.32,0.1c0.04-0.1,0.07-0.15,0.07-0.2c-0.29-1.73-0.53-3.48-0.9-5.19
		c-0.48-2.23-1.05-4.43-1.6-6.64c-0.09-0.34-0.3-0.67-0.51-0.95c-0.46-0.62-0.97-1.21-1.45-1.82c-1.7-2.16-3.33-4.38-4.73-6.74
		c-1.96-3.33-4.45-6.23-7.06-9.05c-1.09-1.18-2.22-2.32-3.52-3.29c-1.03-0.78-1.92-1.75-2.96-2.51c-2.09-1.53-4.19-3.04-6.4-4.41
		c-3.04-1.9-6.15-3.68-9.36-5.25c-2.05-1-4.09-2.04-6.21-2.89c-3.66-1.47-7.41-2.68-11.23-3.66c-3.31-0.85-6.63-1.61-10-2.15
		c-0.87-0.14-1.77-0.1-2.61-0.33c-0.77-0.21-1.54-0.22-2.31-0.22c-0.99-0.01-1.97,0-2.96-0.01c-0.22,0-0.45-0.05-0.67-0.07
		c1.04-0.23,2.07-0.16,3.1-0.22c1.93-0.12,3.83,0.17,5.73,0.37c1.59,0.17,3.15,0.55,4.72,0.85c3.61,0.7,7.16,1.64,10.67,2.75
		c3.27,1.03,6.45,2.27,9.59,3.66c3.19,1.41,6.25,3.06,9.27,4.77c2.89,1.63,5.66,3.46,8.33,5.44c1.79,1.33,3.55,2.7,5.14,4.26
		c1.56,1.52,3.1,3.05,4.51,4.73c1.6,1.92,3.07,3.91,4.37,6.04c1.27,2.08,2.62,4.11,4.02,6.1c0.44,0.62,0.98,1.17,1.62,1.91
		c-0.02-0.4,0-0.61-0.05-0.79c-0.54-1.73-1.06-3.47-1.64-5.19c-1.46-4.39-3.19-8.67-5.2-12.83c-1.55-3.23-3.26-6.38-4.92-9.56
		c-0.53-1.01-1.11-2-1.66-3c-1.58-2.86-3.17-5.72-4.73-8.59c-0.99-1.82-1.95-3.67-2.93-5.5c-0.54-1.01-1.06-2.03-1.66-2.99
		c-1.79-2.85-3.62-5.67-5.83-8.25c-1.77-2.06-3.77-3.85-5.61-5.88c-0.75,0.22-1.44,0.16-2.17-0.04c-1.19-0.33-2.42-0.54-3.64-0.8
		c-1.98-0.43-3.95-0.81-5.99-0.84c-1.39-0.02-2.8-0.17-4.17-0.4c-1.74-0.3-3.51-0.34-5.25-0.45c-2.48-0.16-4.99-0.04-7.48-0.04
		c-0.26,0-0.53-0.03-0.78,0.03c-1.07,0.3-2.17,0.19-3.25,0.26c-1.6,0.1-3.2,0.23-4.8,0.35c-0.1,0.01-0.2,0.03-0.31,0.05
		c-1.18,0.17-2.35,0.36-3.53,0.51c-1.9,0.25-3.8,0.44-5.7,0.72c-2.4,0.35-4.8,0.77-7.2,1.15c-2.2,0.35-4.4,0.65-6.59,1.03
		c-2.09,0.36-4.17,0.76-6.25,1.21c-1.81,0.39-3.6,0.87-5.59,1.36c0.33,0.21,0.47,0.36,0.64,0.42
		C125.09,12.03,126.61,12.55,128.12,13.09z M146.96,15.28c0.01,0,0.03,0,0.04,0c0.62-0.52,1.35-0.63,2.12-0.61
		c0.01-0.01,0.02-0.01,0.02-0.02c0.01,0,0.02,0,0.04,0c0.11-0.09,0.21-0.22,0.33-0.25c1.31-0.31,2.61-0.65,3.93-0.89
		c1.12-0.2,2.27-0.19,3.38-0.43c1.73-0.37,3.52-0.11,5.24-0.54c0.39-0.1,0.83-0.05,1.24-0.05c3.43-0.01,6.86-0.01,10.29-0.01
		c0.93,0,1.87-0.06,2.78,0.24c0.19,0.06,0.41,0.05,0.62,0.04c1.57-0.03,3.08,0.33,4.61,0.56c2.89,0.43,5.67,1.23,8.39,2.24
		c3.99,1.49,7.89,3.2,11.43,5.59c1.5,1.01,2.98,2.07,4.26,3.38c0.25,0.26,0.54,0.48,0.82,0.71c0.12,0.1,0.28,0.16,0.38,0.27
		c1.1,1.29,2.35,2.45,3.33,4.04c-0.28-0.06-0.45-0.05-0.53-0.12c-0.5-0.45-0.98-0.92-1.47-1.4c-2.56-2.51-5.34-4.76-8.34-6.71
		c-2.14-1.39-4.46-2.45-6.77-3.49c-1.08-0.49-2.22-0.86-3.32-1.33c-2.25-0.95-4.6-1.6-6.98-2.1c-2.28-0.48-4.57-0.8-6.89-1.06
		c-2.49-0.28-4.97-0.22-7.45-0.26c-2.44-0.04-4.88,0.01-7.32,0.03c-0.36,0-0.72,0.09-1.07,0.14c-0.31,0.04-0.62,0.15-0.92,0.12
		c-1.47-0.13-2.88,0.29-4.33,0.38c-1.33,0.09-2.65,0.4-3.96,0.7c-0.56,0.13-1.1,0.18-1.65,0.18c-0.01,0.01-0.01,0.01-0.02,0.02
		c-0.01,0-0.02,0-0.04,0c-0.62,0.51-1.35,0.62-2.12,0.61c-0.01,0.01-0.02,0.01-0.02,0.02c-0.01,0-0.02,0-0.03,0
		c-0.18,0.28-0.42,0.28-0.69,0.04c0.23-0.01,0.46-0.02,0.69-0.04C146.95,15.29,146.96,15.28,146.96,15.28z"/>
	<path class="st0" d="M233.77,154.41c-0.79,0.63-1.72,0.91-2.24,1.71c-0.15,0.81,0.24,1.46,0.49,2.13c0.59,1.55,1.21,3.08,1.81,4.63
		c0.04,0.1-0.02,0.23-0.05,0.6c-0.76-1.21-1.27-2.28-1.75-3.36c-0.5-1.13-0.92-2.3-1.4-3.53c-1.08,0.29-1.93,0.95-2.9,1.49
		c0.11,0.72,0.43,1.12,0.71,1.56c1.14,1.79,2.28,3.58,3.37,5.41c0.93,1.56,1.79,3.16,2.69,4.73c0.38,0.66,0.79,1.3,1.18,1.93
		c0.43-0.2,0.43-0.52,0.45-0.83c0.07-1.34-0.03-2.7,0.28-4.03c0.07-0.29,0.06-0.64-0.03-0.93c-0.24-0.76-0.18-1.54-0.21-2.32
		c-0.02-0.47,0-0.94-0.08-1.4c-0.42-2.4-1.05-4.75-1.89-7.04C234.11,154.92,233.95,154.72,233.77,154.41z"/>
	<path class="st0" d="M177.58,254.23c-0.34,0.16-0.7,0.25-0.96,0.47c-0.98,0.83-1.91,1.73-2.75,2.76c1.06,1.4,2.36,2.37,3.99,2.91
		c0.84,0.14,1.58-0.26,2.49-0.45c-0.58-0.99-1.16-1.84-1.6-2.75C178.3,256.25,177.99,255.27,177.58,254.23z"/>
	<path class="st0" d="M235.75,178.31c-0.35-0.55-0.63-0.98-0.87-1.36c-2.77-2.13-5.46-4.25-8.2-6.29c-2.77-2.07-5.47-4.25-8.48-6.06
		c-0.93,0.66-1.74,1.34-2.26,2.27c0.58,0.84,1.1,1.61,1.64,2.37c0.58,0.8,1.17,1.58,1.77,2.36c0.57,0.74,1.22,1.42,1.72,2.2
		c0.52,0.81,1.43,1.35,1.68,2.36c-0.65,0.49-1.34,0.87-1.51,1.71c1.05,1.29,2.11,2.56,3.13,3.86c1.66,2.11,3.32,4.23,4.94,6.38
		c1.87,2.48,3.68,5,5.54,7.49c0.21,0.28,0.4,0.62,0.9,0.68c0.03-0.39,0.05-0.78,0.07-0.97c-0.44-0.82-0.8-1.45-1.11-2.1
		c-0.34-0.7-0.61-1.43-0.94-2.13c-1.16-2.44-2.52-4.77-3.87-7.1c-1.17-2.01-2.39-4-3.65-5.96c-1.31-2.05-2.77-4-4.29-5.89
		c-0.36-0.44-0.69-0.91-1.05-1.35c-0.69-0.84-1.4-1.66-2.09-2.5c-0.04-0.05,0.01-0.18,0.04-0.36c0.19,0.14,0.35,0.24,0.48,0.37
		c1.04,1.01,1.84,2.23,2.77,3.34c1.91,2.26,3.64,4.64,5.22,7.13c1.25,1.97,2.47,3.95,3.62,5.98c1.17,2.08,2.38,4.13,3.41,6.28
		c0.54,1.11,1.06,2.23,1.65,3.48c0.14-0.42,0.31-0.73,0.35-1.06c0.16-1.18,0.32-2.36,0.39-3.54c0.07-1.14,0.01-2.28,0.04-3.43
		C236.86,183.65,236.38,180.91,235.75,178.31z"/>
	<path class="st0" d="M253.61,102.98c-1.94-4.23-4.55-8.03-7.95-11.25c-1.89-1.79-4-3.31-6.39-4.39c-1.76-0.8-3.6-1.36-5.52-1.52
		c-1.5-0.12-3.01-0.05-4.52-0.01c-0.81,0.02-1.61,0.21-2.43,0.52l-1.4,0.21c-2.51,0.56-5,1.45-7.39,2.57
		c-2.69,1.25-5.21,2.79-7.6,4.56c-2.01,1.5-3.81,3.23-5.42,5.13c-2.36,2.78-4.29,5.86-5.67,9.25c-0.64,1.58-1.24,3.19-1.54,4.89
		c-0.3,1.68-0.57,3.36-0.91,5.03c-0.24,1.18-0.3,2.36-0.32,3.56c-0.01,0.67-0.03,1.35-0.07,2.02c-0.04,0.67-0.18,1.34-0.18,2.01
		c-0.01,3.84-0.15,7.68,0.22,11.52c0.13,1.39,0.28,2.78,0.59,4.14c0.5,2.24,1.31,4.35,2.27,6.44c1.16,2.53,2.77,4.74,4.62,6.78
		c0.69,0.76,1.49,1.45,2.34,2.05c1.86,1.31,3.73,2.64,6.16,2.68c0.2,0,0.4,0.09,0.6,0.17c0.79,0.32,1.62,0.31,2.45,0.32
		c0.89,0.01,1.75-0.13,2.62-0.27c2.16-0.34,4.24-0.93,6.26-1.78c1.54-0.65,3.03-1.37,4.44-2.24c1.32-0.82,2.64-1.65,3.94-2.51
		c0.29-0.19,0.51-0.49,0.72-0.71c-0.35-1.23-0.67-2.38-1.01-3.52c-0.28-0.94-0.65-1.84-1.15-2.71c-1.34-2.3-3.05-4.32-4.68-6.4
		c-0.48-0.61-1.07-1.12-1.52-1.57c-0.68-0.18-1.34,0.06-1.73-0.6c0.05-0.31,0.1-0.65,0.15-1.01c-0.66-0.64-1.26-1.29-1.94-1.85
		c-2.08-1.71-4.18-3.41-6.3-5.07c-1.89-1.47-3.81-2.9-6.32-3.13c-0.17-0.02-0.33-0.21-0.56-0.37c0.24-0.3,0.41-0.55,0.62-0.76
		c0.96-0.95,1.97-1.84,2.98-2.74c2.1-1.86,4.1-3.83,6.15-5.74c0.53-0.49,1.1-0.94,1.63-1.44c1.1-1.03,2.21-2.04,3.14-3.1
		c0.19-0.69-0.02-1.22-0.21-1.77c-0.59-1.77-1.19-3.54-1.76-5.32c-0.25-0.79-0.48-1.59-0.68-2.39c-0.16-0.63-0.11-1.24,0.25-1.62
		c0.99-0.59,1.84-1.08,2.67-1.6c2.15-1.33,4.48-2.17,6.99-2.42c1.87-0.18,3.73,0.01,5.56,0.43c3.21,0.74,6.23,1.96,9.01,3.74
		c2.32,1.48,4.59,3.04,6.43,5.12c1.07,1.21,2.11,2.45,2.74,3.95c0.89,2.11,1.53,4.29,1.54,6.62c0.01,0.93,0.19,1.85,0.29,2.78
		c0.01,0.05,0.05,0.09,0.08,0.12c0.01,0.01,0.06-0.01,0.1-0.02c0.13-0.76,0.35-1.52,0.36-2.28c0.03-2.02,0.13-4.03-0.2-6.05
		C255.7,108.48,254.85,105.66,253.61,102.98z"/>
	<path class="st0" d="M252.71,111.43c-1.01-2.82-2.95-4.96-5.2-6.86c-1.47-1.24-3.06-2.31-4.73-3.25
		c-3.43-1.95-7.03-3.25-11.07-3.12c-1.79,0.06-3.47,0.42-5.14,1.06c-1.42,0.54-2.67,1.38-4,2.07c-0.27,0.14-0.49,0.36-0.68,0.51
		c-0.23,1.08,0.25,1.89,0.65,2.87c0.59-0.37,1.12-0.09,1.64,0.11c0.62,0.25,1.22,0.57,1.81,0.9c1.19,0.68,2.08,1.7,3.03,2.67
		c1.62,1.66,2.84,3.56,3.45,5.82c0.18,0.65,0.37,1.3,0.46,1.96c0.2,1.59,0.64,3.19,0.37,4.78c-0.23,1.38-0.21,2.78-0.52,4.15
		c-0.38,1.69-0.93,3.29-1.86,4.75c-0.84,1.31-1.65,2.63-2.75,3.76c-0.58,0.59-1.09,1.25-1.61,1.9c-0.22,0.28-0.39,0.6-0.6,0.94
		c0.2,0.23,0.35,0.43,0.53,0.61c2.5,2.44,4.5,5.27,6.48,8.13c0.78,1.13,1.25,2.38,1.61,3.68c0.14,0.5,0.23,1.01,0.35,1.51
		c0.05,0.19,0.05,0.42,0.37,0.48c0.1-0.04,0.25-0.08,0.36-0.17c1.09-0.88,2.22-1.71,3.24-2.67c3.13-2.96,6.13-6.04,8.68-9.54
		c1.84-2.52,3.53-5.12,4.89-7.93c0.39-0.8,0.68-1.64,0.8-2.51c0.17-1.23,0.46-2.45,0.39-3.7c-0.02-0.31,0.04-0.62,0.07-0.93
		c0.06-0.62,0.17-1.23,0.18-1.85c0.03-1.92-0.02-3.82-0.23-5.74C253.51,114.3,253.22,112.84,252.71,111.43z"/>
	<path class="st0" d="M221.17,115.95c-2.38,2.31-4.71,4.68-7.22,6.85c-0.59,0.51-1.19,1-1.76,1.52c-0.41,0.37-0.89,0.69-1.18,1.24
		c0.86,0.38,1.7,0.66,2.45,1.11c1.15,0.69,2.27,1.45,3.34,2.27c2.1,1.6,4.14,3.27,6.22,4.9c0.52,0.41,1.06,0.79,1.64,1.21
		c0.31-0.29,0.6-0.51,0.83-0.77c0.51-0.58,1.02-1.17,1.49-1.79c0.79-1.03,1.63-2.03,2.3-3.13c1.4-2.29,2.19-4.79,2.23-7.5
		c0.01-0.41,0.08-0.82,0.15-1.23c0.15-0.93,0.17-1.85-0.02-2.78c-0.06-0.3-0.14-0.61-0.13-0.92c0.03-0.79-0.16-1.54-0.35-2.3
		c-1.1-4.33-3.63-7.5-7.73-9.36c-0.18-0.08-0.38-0.19-0.56,0c-0.02,0.04-0.08,0.1-0.07,0.13c0.69,2.22,1.38,4.44,2.13,6.84
		c-0.24,0.28-0.44,0.58-0.7,0.82C223.22,114.05,222.17,114.98,221.17,115.95z"/>
	<path class="st0" d="M229.68,198.6c-2.3-2.33-4.61-4.64-6.92-6.96c-0.28-0.28-0.61-0.53-0.94-0.81c-1.46,1.13-2.76,2.31-3.96,3.59
		c-0.17,0.18-0.28,0.42-0.45,0.66c0.32,0.57,0.64,1.09,0.92,1.64c2.76,5.4,5.5,10.82,7.62,16.52c0.76,2.04,1.46,4.1,1.83,6.25
		c0.04,0.24,0.1,0.51,0.48,0.47c0.51-0.89,1.04-1.78,1.52-2.7c0.49-0.91,0.93-1.85,1.34-2.68c0-0.49,0.08-0.87-0.01-1.21
		c-1.92-6.79-4.42-13.34-8-19.43c0.36-0.31,0.58-0.09,0.7,0.11c0.69,1.1,1.41,2.18,2,3.32c0.7,1.33,1.32,2.7,1.9,4.09
		c0.78,1.86,1.53,3.74,2.23,5.63c0.56,1.51,1.02,3.04,1.54,4.57c0.06,0.19,0.17,0.36,0.36,0.73c0.2-0.32,0.31-0.44,0.36-0.58
		c0.95-2.53,1.49-5.17,2.04-7.8c0.1-0.5,0.15-1.04-0.18-1.59C232.56,201.29,231.07,200.01,229.68,198.6z"/>
	<path class="st0" d="M204.54,242.23c-0.15-0.08-0.25-0.19-0.32-0.17c-1.69,0.26-3.24,1.01-4.85,1.32c-0.63,0.64-0.8,1.22-0.98,1.83
		c-0.8,2.73-1.65,5.44-2.92,8.01c-0.68,1.39-1.24,2.84-2.06,4.17c-0.12,0.19-0.36,0.42-0.04,0.73c0.51-0.2,1.04-0.39,1.55-0.62
		c2.93-1.34,5.63-3.07,8.14-5.08c0.84-0.67,1.66-1.4,2.16-2.25c-0.13-1.41-0.26-2.69-0.37-3.98
		C204.74,244.85,204.64,243.52,204.54,242.23z M201.19,248.9c-0.27,1.42-0.65,2.82-1.03,4.21c-0.12,0.44-0.4,0.83-0.73,1.48
		c-0.2-0.32-0.35-0.45-0.33-0.56c0.04-0.35,0.13-0.7,0.22-1.05c0.41-1.6,0.95-3.18,1.22-4.8c0.19-1.18,0.5-2.32,0.73-3.48
		c0.03-0.13,0.13-0.25,0.25-0.46c0.12,0.17,0.28,0.29,0.26,0.38C201.6,246.05,201.46,247.49,201.19,248.9z"/>
	<path class="st0" d="M143.92,251.68c1.92-0.05,3.84,0.01,5.76-0.02c1.36-0.02,2.67,0.3,4,0.45c1.7,0.19,3.34,0.66,4.98,1.16
		c2.71,0.82,5.23,1.99,7.23,4.07c0.16,0.16,0.28,0.44,0.7,0.33c-0.4-0.78-0.7-1.61-1.2-2.28c-0.56-0.74-1.25-1.4-1.98-1.97
		c-1.88-1.47-3.94-2.66-6.14-3.61c-3.23-1.4-6.65-1.93-10.12-2.11c-1.96-0.1-3.94-0.22-5.89,0.23c-1.41-0.08-2.8,0.19-4.16,0.42
		c-3.22,0.53-6.39,1.3-9.45,2.47c-0.72,0.27-1.42,0.58-2.05,1.02c0.05,0.1,0.06,0.18,0.09,0.19c2.04,0.72,4.09,1.44,6.09,2.14
		c1.07-0.38,1.94-0.74,2.83-0.98C137.66,252.33,140.75,251.76,143.92,251.68z"/>
	<path class="st0" d="M213.02,218.73c1.08-0.52,2.06-1.18,3.07-1.79c0.25-0.15,0.42-0.42,0.67-0.68c-1.16-1.61-1.73-3.48-2.91-5.01
		c-0.17-0.04-0.32-0.07-0.46-0.1c-0.19,0.48-0.66,0.6-1.05,0.83c-1.21,0.7-2.43,1.38-3.62,2.1c-2.97,1.79-5.66,3.99-8.45,6.04
		c-0.95,0.7-1.82,1.52-2.55,2.14c-0.86,1.84-0.33,3.59-0.74,5.25c0.42,0.16,0.67-0.07,0.93-0.21c2-1.1,3.99-2.2,5.98-3.31
		c2.3-1.29,4.59-2.61,6.9-3.88C211.56,219.69,212.24,219.11,213.02,218.73z"/>
	<path class="st0" d="M209.54,202.86c-0.09,0.03-0.21,0.04-0.28,0.1c-1.22,1.12-2.46,2.22-3.65,3.39c-1.11,1.09-2.24,2.15-3.64,2.93
		c-0.43,1-0.85,2-1.26,3.01c-0.03,0.07,0.06,0.18,0.1,0.31c0.14-0.03,0.3-0.03,0.41-0.1c1.61-1.06,3.29-1.98,5.05-2.76
		c1.37-0.61,2.79-1.1,4.2-1.62c0.25-0.09,0.56-0.22,0.84,0.14c-1.94,0.92-3.86,1.82-5.76,2.75c-1.91,0.93-3.77,1.95-5.45,3.08
		c-1.1,2.04-2.08,5.27-1.95,6.33c2.05-1.49,4.14-2.93,6.14-4.47c2.28-1.75,4.76-3.13,7.32-4.39c0.57-0.28,1.14-0.47,1.77-0.43
		c0.06-0.18,0.13-0.37,0.18-0.51C211.87,206.95,210.2,203.72,209.54,202.86z"/>
	<path class="st0" d="M193.99,245.02c-2.7,4.48-4.82,9.31-6.78,14.32c1.66,0.38,3.03-0.22,4.36-0.67
		c2.89-4.88,5.85-12.08,6.03-14.72C196.37,244.13,195.19,244.4,193.99,245.02z"/>
	<path class="st0" d="M216.69,226.53c-0.92-2.02-2.06-3.95-3.11-5.92c-0.07-0.12-0.23-0.19-0.41-0.35
		c-0.84,0.49-1.69,0.98-2.54,1.47c-0.13,0.08-0.26,0.16-0.29,0.17c-0.01,0.27-0.05,0.39-0.02,0.47c1.32,3.01,1.99,6.18,2.49,9.41
		c0.14,0.87,0.13,1.76,0.33,2.6c0.24,0.98,0.22,1.95,0.25,2.93c0.01,0.26-0.04,0.54,0.04,0.77c0.36,1.06,0.23,2.16,0.27,3.24
		c0.01,0.36,0.03,0.71,0.06,1.37c2.48-2.33,4.43-4.67,6.11-7.11c0.16-0.73,0.03-1.32-0.16-1.93
		C218.94,231.2,217.76,228.89,216.69,226.53z"/>
	<path class="st0" d="M180.99,252.6c-0.74,0.35-1.31,0.69-1.58,1.42c0.74,2.04,1.59,4.03,3.05,5.69c1.15,0.45,1.26,0.46,2.64,0.14
		c0.8-1.77,1.66-3.58,2.27-5.54C185.17,253.73,183.04,253.15,180.99,252.6z"/>
	<path class="st0" d="M212.71,236.7c-0.3-0.69-0.22-1.42-0.25-2.15c-0.01-0.31,0-0.63-0.06-0.93c-0.28-1.62-0.55-3.25-0.89-4.86
		c-0.4-1.92-0.82-3.84-1.48-5.69c-0.08-0.23-0.07-0.53-0.5-0.61c-1.34,0.6-2.65,1.41-3.93,2.38c-0.01,1.15-0.05,2.29-0.01,3.42
		c0.03,1.12-0.15,2.27,0.18,3.39c0.41,0.06,0.76,0.12,1.28,0.2c-0.51,0.17-0.87,0.28-1.12,0.36c-0.55,0.65-0.08,1.06,0.08,1.42
		c-0.04,0.6-0.1,1.11-0.11,1.62c-0.01,0.83,0.04,1.66,0.02,2.49c-0.02,1.05,0.1,2.06,0.6,3c-0.43,0.97-0.37,1.96-0.18,2.92
		c0.13,0.67,0.17,1.33,0.19,2c0.02,0.47,0.02,0.93,0.03,1.4c0.01,0.62,0.2,1.19,0.47,1.74c1.65-0.97,4.42-3.5,5.71-5.21
		c0.09-2.14,0.04-4.36,0.02-6.59C212.75,236.9,212.75,236.79,212.71,236.7z"/>
	<path d="M258.33,112.75c-0.02-0.41,0.01-0.84-0.07-1.24c-0.52-2.76-1.19-5.47-2.35-8.04c-1.98-4.39-4.52-8.39-8-11.78
		c-3.04-2.96-6.51-5.12-10.54-6.42c-0.68-0.22-1.37-0.43-2.08-0.65c-0.12-0.86-0.33-1.68-0.33-2.5c0.01-1.21-0.21-2.39-0.46-3.54
		c-0.93-4.41-2.1-8.77-3.49-13.06c-0.74-2.27-1.5-4.53-2.36-6.76c-0.94-2.42-1.95-4.81-3.04-7.16c-1.07-2.31-2.15-4.61-3.37-6.84
		c-1.52-2.78-3-5.58-4.52-8.35c-2.02-3.68-4.09-7.35-6.11-11.03c-1.3-2.37-2.65-4.7-4.11-6.97c-2.17-3.38-4.66-6.48-7.54-9.28
		c-1.11-1.08-2.3-2.1-3.17-3.42c-0.32-0.49-0.8-0.82-1.45-0.66c-0.25,0.19-0.49,0.37-0.74,0.56c-0.33-0.09-0.62-0.2-0.92-0.26
		c-2.45-0.43-4.89-0.86-7.34-1.26c-0.87-0.14-1.74-0.25-2.62-0.32c-0.88-0.07-1.77-0.15-2.46,0.22c-0.71-0.1-1.27-0.16-1.83-0.27
		c-1.18-0.22-2.38-0.21-3.55-0.39c-1.3-0.19-2.58-0.21-3.88-0.22c-1.98-0.02-3.95,0-5.93,0.01c-0.36,0-0.75-0.05-1.09,0.04
		c-1.23,0.32-2.48,0.2-3.72,0.27c-0.46,0.03-0.93,0.07-1.39,0.12c-0.51,0.05-1.03,0.12-1.54,0.17c-1.29,0.13-2.58,0.24-3.86,0.38
		c-0.87,0.1-1.75,0.21-2.61,0.34c-1.07,0.16-2.14,0.35-3.22,0.51c-1.74,0.25-3.49,0.47-5.22,0.74c-2.3,0.36-4.59,0.75-6.89,1.14
		c-2.09,0.35-4.2,0.65-6.27,1.09c-2.94,0.62-5.85,1.35-8.77,2.04c-0.96,0.22-1.92,0.42-2.86,0.7c-0.79,0.23-1.55,0.59-2.34,0.85
		c-3.49,1.17-6.99,2.31-10.41,3.69c-2.65,1.07-5.28,2.16-7.89,3.32c-3.57,1.58-7.04,3.34-10.41,5.29c-3.42,1.97-6.73,4.11-9.89,6.47
		c-1.79,1.33-3.56,2.68-5.26,4.13c-1.06,0.91-2.09,1.86-3.12,2.81c-0.41,0.38-0.89,0.69-1.33,1.03c-0.4-0.18-0.73-0.34-1.06-0.49
		c-1.43-0.66-2.93-1.09-4.48-1.24c-1.49-0.14-3.01-0.03-4.52-0.02c-0.2,0-0.41,0.05-0.61,0.1c-4.06,1.12-7.55,3.09-10.11,6.56
		c-2.3,3.11-4.14,6.45-5.45,10.09c-1.16,3.23-1.96,6.55-2.63,9.9c-0.38,1.87-0.7,3.76-0.92,5.66c-0.18,1.59,0.01,3.22-0.35,4.8
		c0.07,2.38-0.25,4.78,0.24,7.15c0.04,0.2,0.03,0.41,0.02,0.62c-0.02,1.93,0.37,3.82,0.84,5.67c0.45,1.76,1.02,3.48,1.63,5.19
		c0.42,1.17,0.42,2.34,0.27,3.53c-0.15,1.18-0.36,2.35-0.52,3.53c-0.24,1.79-0.42,3.6-0.7,5.39c-0.47,2.96-1,5.92-1.52,8.87
		c-0.43,2.44-0.89,4.88-1.32,7.26l-0.49,2.6c-0.07,0.58-0.11,1.09-0.19,1.6c-0.14,0.87-0.32,1.73-0.46,2.6
		c-0.35,2.25-0.67,4.5-1.01,6.75c-0.27,1.79-0.57,3.57-0.84,5.36c-0.13,0.87-0.23,1.74-0.34,2.62c-0.14,1.13-0.26,2.26-0.41,3.39
		c-0.16,1.18-0.37,2.35-0.5,3.53c-0.16,1.39-0.25,2.78-0.37,4.18c-0.01,0.15-0.05,0.31-0.07,0.46c-0.17,1.54-0.41,3.08-0.49,4.63
		c-0.09,1.76-0.46,3.5-0.38,5.27c0,0.05,0,0.11-0.02,0.15c-0.32,0.96-0.22,1.95-0.26,2.94c-0.02,0.47,0.05,0.96-0.07,1.4
		c-0.27,1.02-0.2,2.06-0.24,3.1c-0.02,0.62,0.06,1.27-0.07,1.86c-0.25,1.08-0.2,2.17-0.23,3.25c-0.03,1.09-0.02,2.18-0.04,3.27
		c-0.01,0.41-0.04,0.83-0.08,1.24c-0.05,0.57-0.17,1.13-0.17,1.7c-0.01,9.41,0,18.82,0,28.22c0,0.36-0.04,0.75,0.06,1.09
		c0.24,0.82,0.19,1.65,0.21,2.48c0.02,1.14,0.03,2.29,0.05,3.43c0.01,0.36-0.02,0.75,0.08,1.08c0.22,0.72,0.21,1.44,0.18,2.16
		c-0.12,2.4,0.4,4.76,0.38,7.15c0,0.15,0.06,0.3,0.08,0.46c0.16,1.33,0.35,2.67,0.48,4.01c0.14,1.49,0.24,2.99,0.35,4.49
		c0.01,0.15,0.05,0.31,0.07,0.46c0.08,0.67,0.17,1.33,0.25,2c0.04,0.3,0.06,0.61,0.09,0.97c0.29,0.13,0.57,0.36,0.84,0.35
		c1.09-0.02,2.17,0.06,3.25,0.28c0.3,0.06,0.62,0.02,0.93,0.02c0.52,0.01,1.04,0,1.56,0.02l2.82,0.02c1.92,0,3.85,0.01,5.77,0.02
		c0.26,0,0.52,0.04,0.77,0.07c0.62,0.06,1.23,0.15,1.85,0.17c0.99,0.03,1.97,0.01,2.96,0.01c0.78,0,1.58,0.1,2.33-0.05
		c1.14-0.22,2.27-0.16,3.41-0.23c1.65-0.11,3.3-0.26,4.96-0.4c0.15-0.01,0.3-0.09,0.45-0.1l3-0.38c0.87-0.15,1.74-0.24,2.61-0.36
		c1.8-0.24,3.6-0.43,5.39-0.72c2.86-0.46,5.71-0.96,8.56-1.48c2.49-0.45,4.98-0.94,7.47-1.44c1.98-0.41,3.95-0.84,5.91-1.31
		c3.17-0.76,6.34-1.54,9.5-2.36c2.21-0.57,4.39-1.23,6.59-1.84c0.08-0.02,0.18,0.05,0.26,0.08l2.35-0.89
		c1.39-0.41,3.18-0.94,4.97-1.47c3.38-1.01,6.76-2.02,10.12-3.06c3.87-1.19,7.73-2.38,11.58-3.63c5.77-1.88,11.54-3.77,17.21-5.95
		c5.33-2.05,10.59-4.26,15.73-6.75c2.85-1.38,5.64-2.89,8.44-4.36c1.06-0.55,2.11-1.13,3.13-1.74c4.1-2.45,8.19-4.9,12.2-7.49
		c0.19-0.12,0.35-0.41,0.66-0.19c0.02,0.15,0.05,0.3,0.05,0.45c0.05,2.33-0.06,4.66,0.26,6.99c0.18,1.34,0.39,2.66,0.79,3.95
		c0.1,0.34,0.16,0.69,0.21,0.96c-0.37,0.69-0.73,1.27-1.01,1.88c-0.77,1.7-1.54,3.4-2.27,5.12c-1.75,4.16-2.65,8.49-2.66,13.01
		c0,0.26-0.03,0.52-0.05,0.88c-0.26,0.35-0.55,0.78-0.87,1.18c-0.26,0.32-0.58,0.6-0.82,0.94c-1.12,1.56-2.25,3.11-3.28,4.73
		c-1.56,2.43-2.74,4.99-3.14,7.88c-0.16,1.17-0.45,2.33-0.67,3.44c-0.97,0.84-1.99,1.45-3.01,2.07c-1.64,0.99-3.32,1.94-4.76,3.22
		c-0.44,0.39-0.97,0.56-1.54,0.69c-3.03,0.71-6.01,1.58-8.98,2.53c-0.24,0.08-0.48,0.13-0.69,0.19c-0.52-0.68-0.93-1.36-1.48-1.89
		c-0.71-0.68-1.51-1.27-2.31-1.83c-2.53-1.77-5.27-3.1-8.21-4.04c-1.44-0.46-2.88-0.85-4.38-1.03c-1.44-0.17-2.86-0.51-4.32-0.48
		c-2.28,0.04-4.55-0.03-6.84,0.22c-1.96,0.21-3.91,0.47-5.84,0.83c-2.44,0.46-4.84,1.15-7.17,2.04c-1.42,0.54-2.74,1.23-3.98,2.09
		c-0.14,0.1-0.19,0.34-0.37,0.67c0.24,0.2,0.48,0.4,0.49,0.4c0.94,0.21,1.6,0.32,2.23,0.51c4.07,1.26,8.03,2.81,11.96,4.43
		c4.12,1.7,8.24,3.42,12.59,4.49c0.29,0.07,0.55,0.27,0.85,0.42c-0.05,0.25-0.05,0.46-0.12,0.64c-1.44,3.28-2.96,6.52-4.76,9.63
		c-0.6,1.03-1.16,2.08-1.73,3.14c-0.2,0.36-0.38,0.74-0.5,1.14c-0.11,0.34-0.14,0.72,0.17,1.03c0.38,0.21,0.78,0.18,1.19,0.03
		c1.36-0.52,2.73-1,4.07-1.56c1.63-0.67,3.29-1.3,4.84-2.14c2.6-1.4,5.15-2.91,7.67-4.45c1.5-0.92,2.95-1.93,4.24-3.15
		c0.83-0.78,1.73-1.48,2.65-2.26c1.09-0.04,2.21-0.2,3.29-0.58c0.93-0.32,1.87-0.61,2.81-0.93c1.72-0.57,3.45-1.15,5.22-1.53
		c0.71-0.15,1.42-0.33,2.14-0.37c1.24-0.07,2.48-0.03,3.72-0.04c0.36,0,0.74,0.02,1.08-0.08c0.81-0.24,1.64-0.24,2.47-0.27
		c0.31-0.01,0.63-0.02,0.93-0.1c1.45-0.4,2.94-0.64,4.31-1.3c1.26-0.61,2.57-1.13,3.81-1.77c2.68-1.4,5.14-3.11,7.3-5.25
		c0.84-0.83,1.78-1.58,2.76-2.27c1.36-0.95,2.72-1.9,3.87-3.12c0.35-0.37,0.8-0.65,1.19-0.95c0.33-0.43,0.61-0.88,0.97-1.25
		c1.62-1.68,3.15-3.45,4.63-5.25c0.66-0.8,1.34-1.58,2-2.38c0.1-0.12,0.19-0.24,0.27-0.38c1.31-2.24,2.66-4.46,3.72-6.84
		c0.48-1.08,1.11-2.08,1.75-3.07c0.53-0.83,1.1-1.63,1.64-2.45c0.14-0.21,0.22-0.47,0.32-0.71c0.25-0.57,0.47-1.15,0.74-1.71
		c0.61-1.26,1.25-2.51,1.87-3.77c0.48-0.97,1.04-1.92,1.42-2.93c0.76-2.04,1.57-4.06,2.06-6.19c0.39-1.71,0.83-3.42,1.09-5.16
		c0.14-0.93,0.33-1.82,0.63-2.71c0.37-1.08,0.72-2.17,0.99-3.27c0.41-1.71,0.84-3.41,1.03-5.17c0.2-1.85,0.54-3.69,0.49-5.56
		c-0.03-1.03-0.21-2.06-0.25-3.09c-0.08-1.98-0.48-3.9-1.05-5.79c-0.16-0.54-0.36-1.08-0.47-1.39c0.13-1.05,0.23-1.88,0.35-2.69
		c0.15-1.02,0.45-2.04,0.46-3.06c0.05-3.21,0.32-6.43-0.23-9.64c-0.38-2.21-0.92-4.36-1.85-6.4c-0.26-0.56-0.56-1.11-0.57-1.78
		c0.15-0.14,0.29-0.29,0.45-0.42c1.25-1,2.59-1.92,3.76-3.02c3.13-2.96,6.23-5.95,8.87-9.39c1.67-2.19,3.28-4.42,4.64-6.81
		c1.74-3.08,3.17-6.31,4.13-9.73c0.61-2.2,1.17-4.41,1.18-6.71c0-0.26,0.03-0.52,0.09-0.77c0.22-0.82,0.2-1.63-0.01-2.46
		C258.33,113.59,258.36,113.17,258.33,112.75z M125.7,252.01c-0.03-0.01-0.05-0.09-0.09-0.19c0.63-0.44,1.34-0.75,2.05-1.02
		c3.06-1.17,6.23-1.93,9.45-2.47c1.37-0.23,2.75-0.5,4.16-0.42c1.95-0.44,3.93-0.33,5.89-0.23c3.47,0.18,6.88,0.71,10.12,2.11
		c2.2,0.95,4.26,2.14,6.14,3.61c0.73,0.57,1.42,1.23,1.98,1.97c0.51,0.67,0.8,1.5,1.2,2.28c-0.42,0.1-0.54-0.17-0.7-0.33
		c-2.01-2.08-4.52-3.25-7.23-4.07c-1.63-0.49-3.28-0.96-4.98-1.16c-1.33-0.15-2.65-0.47-4-0.45c-1.92,0.03-3.84-0.03-5.76,0.02
		c-3.17,0.08-6.26,0.65-9.31,1.49c-0.89,0.25-1.76,0.61-2.83,0.98C129.78,253.45,127.74,252.74,125.7,252.01z M162.01,267.67
		c-1.04,0.68-2.06,1.39-3.13,2.03c-2.89,1.74-5.84,3.38-8.91,4.78c-1.08,0.5-2.2,0.91-3.31,1.35c-0.13,0.05-0.28,0.04-0.53,0.06
		c0.16-0.36,0.27-0.64,0.41-0.91c0.95-1.85,1.85-3.71,2.97-5.47c0.33-0.52,0.51-1.13,0.76-1.69c0.75-1.71,1.5-3.42,2.24-5.13
		c0.04-0.09,0.02-0.2,0.03-0.33c-0.14-0.45-0.58-0.54-0.95-0.67c-1.08-0.37-2.16-0.73-3.25-1.08c-3.5-1.15-6.91-2.54-10.32-3.92
		c-1.15-0.47-2.31-0.93-3.46-1.41c-0.38-0.16-0.74-0.35-1.25-0.6c0.28-0.16,0.43-0.29,0.6-0.34c1.7-0.44,3.41-0.88,5.15-1.11
		c1.23-0.16,2.45-0.38,3.68-0.56c0.26-0.04,0.52-0.04,0.78-0.04c2.39,0,4.78-0.08,7.17,0.02c2.07,0.09,4.11,0.5,6.12,1
		c3.26,0.82,6.25,2.2,8.86,4.35c0.24,0.19,0.49,0.37,0.73,0.56c0.03,0.02,0.02,0.1,0.04,0.22c-0.36,0-0.73,0.07-1.06-0.01
		c-2.38-0.54-4.78-0.91-7.23-0.89c-0.41,0-0.82-0.11-1.23-0.13c-1.14-0.04-2.29-0.16-3.41-0.04c-0.72,0.07-1.44,0.21-2.16,0.17
		c-1.41-0.07-2.79,0.19-4.17,0.38c-0.46,0.06-0.9,0.25-1.33,0.41c-0.1,0.04-0.16,0.22-0.31,0.44c0.41,0,0.74,0.08,1.01-0.01
		c0.86-0.29,1.74-0.23,2.62-0.28c0.57-0.03,1.13-0.12,1.69-0.18c0.41-0.04,0.83-0.09,1.24-0.09c1.71-0.01,3.43-0.02,5.14-0.01
		c0.72,0,1.45-0.04,2.16,0.21c0.24,0.08,0.51,0.07,0.77,0.07c1.83-0.01,3.58,0.47,5.46,0.77c-0.09,0.25-0.11,0.46-0.22,0.6
		c-0.82,1.02-1.91,1.76-2.93,2.55c-1.55,1.2-3.11,2.41-4.85,3.36c-1.55,0.84-3.09,1.7-4.77,2.28c-0.83,0.29-1.64,0.6-2.68,0.98
		c0.94,0.12,1.63,0.05,2.35-0.16c2.62-0.75,5.01-1.95,7.2-3.58c0.62-0.46,1.29-0.87,1.91-1.34c1.6-1.23,3.15-2.53,4.58-3.96
		c0.14-0.14,0.31-0.25,0.54-0.43c0.62,1.01,0.63,2.08,0.75,3.11C165.64,264.59,164.03,266.37,162.01,267.67z M128.53,9.71
		c2.07-0.45,4.16-0.84,6.25-1.21c2.19-0.38,4.4-0.68,6.59-1.03c2.4-0.38,4.79-0.8,7.2-1.15c1.89-0.28,3.8-0.47,5.7-0.72
		c1.18-0.15,2.35-0.34,3.53-0.51c0.1-0.01,0.2-0.04,0.31-0.05c1.6-0.12,3.2-0.25,4.8-0.35c1.08-0.07,2.18,0.04,3.25-0.26
		c0.24-0.07,0.52-0.03,0.78-0.03c2.49,0,5-0.12,7.48,0.04c1.75,0.11,3.51,0.16,5.25,0.45c1.37,0.23,2.78,0.38,4.17,0.4
		c2.04,0.03,4.01,0.41,5.99,0.84c1.21,0.26,2.44,0.47,3.64,0.8c0.72,0.2,1.41,0.26,2.17,0.04c1.84,2.03,3.85,3.83,5.61,5.88
		c2.21,2.57,4.04,5.39,5.83,8.25c0.61,0.97,1.12,1.99,1.66,2.99c0.98,1.83,1.94,3.67,2.93,5.5c1.57,2.87,3.15,5.73,4.73,8.59
		c0.55,1,1.13,1.99,1.66,3c1.66,3.18,3.37,6.33,4.92,9.56c2,4.16,3.73,8.44,5.2,12.83c0.57,1.72,1.1,3.46,1.64,5.19
		c0.06,0.18,0.03,0.38,0.05,0.79c-0.64-0.74-1.18-1.29-1.62-1.91c-1.4-1.99-2.75-4.02-4.02-6.1c-1.3-2.13-2.77-4.12-4.37-6.04
		c-1.4-1.68-2.95-3.21-4.51-4.73c-1.6-1.56-3.35-2.93-5.14-4.26c-2.67-1.98-5.44-3.81-8.33-5.44c-3.03-1.71-6.09-3.35-9.27-4.77
		c-3.14-1.39-6.32-2.63-9.59-3.66c-3.51-1.11-7.06-2.04-10.67-2.75c-1.57-0.31-3.14-0.69-4.72-0.85c-1.9-0.2-3.8-0.49-5.73-0.37
		c-1.03,0.06-2.06,0-3.1,0.22c0.22,0.03,0.45,0.07,0.67,0.07c0.99,0.01,1.97,0,2.96,0.01c0.77,0.01,1.54,0.01,2.31,0.22
		c0.84,0.23,1.74,0.19,2.61,0.33c3.38,0.54,6.7,1.3,10,2.15c3.82,0.98,7.57,2.19,11.23,3.66c2.12,0.85,4.16,1.89,6.21,2.89
		c3.22,1.57,6.32,3.35,9.36,5.25c2.2,1.38,4.31,2.89,6.4,4.41c1.04,0.76,1.93,1.73,2.96,2.51c1.3,0.98,2.43,2.12,3.52,3.29
		c2.6,2.82,5.09,5.72,7.06,9.05c1.39,2.36,3.03,4.58,4.73,6.74c0.48,0.61,0.99,1.2,1.45,1.82c0.21,0.29,0.42,0.61,0.51,0.95
		c0.56,2.21,1.13,4.42,1.6,6.64c0.37,1.72,0.6,3.46,0.9,5.19c0.01,0.04-0.03,0.09-0.07,0.2c-0.43,0.22-0.86-0.15-1.32-0.1
		c-0.46,0.05-0.94-0.01-1.4,0.01c-0.52,0.03-1.03,0.1-1.54,0.15c-0.46,0.05-0.93,0.08-1.39,0.15c-0.46,0.07-0.91,0.17-1.45,0.28
		c-0.24-0.23-0.54-0.43-0.74-0.72c-1.47-2.14-3.15-4.11-4.84-6.07c-1.36-1.58-2.81-3.05-4.28-4.52c-2.55-2.53-5.35-4.76-8.36-6.7
		c-1.92-1.24-3.85-2.46-5.87-3.51c-1.97-1.03-4.03-1.93-6.11-2.71c-2.38-0.89-4.83-1.57-7.25-2.35c-1.14-0.36-2.28-0.65-3.45-0.9
		c-0.98-0.21-1.95-0.27-2.93-0.28c-0.41,0-0.82-0.03-1.27-0.05c-0.61-0.99-1.25-1.94-1.8-2.93c-1.3-2.31-2.76-4.52-4.29-6.68
		c-0.93-1.31-1.95-2.55-2.92-3.83c-1-1.33-2.25-2.44-3.32-3.71c-1.07-1.28-2.23-2.47-3.43-3.61c-1.58-1.49-3.23-2.91-4.87-4.36
		c-0.78-0.69-1.57-1.35-2.37-2.02c-3.12-2.59-6.44-4.88-9.89-7.01c-3.58-2.22-7.28-4.21-11.1-5.99c-2.91-1.36-5.84-2.7-8.88-3.77
		c-1.51-0.54-3.04-1.06-4.55-1.6c-0.17-0.06-0.32-0.2-0.64-0.42C124.93,10.58,126.72,10.1,128.53,9.71z M191.12,86.62
		c-0.26-1.47-0.5-2.95-0.73-4.43c-0.15-0.97-0.13-1.95-0.33-2.93c-0.77-3.71-1.79-7.35-3.4-10.79c-1.21-2.59-2.47-5.14-3.72-7.71
		c-0.25-0.51-0.56-0.99-0.83-1.49c-0.24-0.45-0.47-0.91-0.75-1.47c0.97-0.19,1.83-0.13,2.69,0.05c2.54,0.51,5.01,1.3,7.48,2.07
		c3.03,0.94,5.97,2.11,8.8,3.5c2.61,1.28,5.08,2.8,7.46,4.48c1.69,1.2,3.3,2.5,4.88,3.85c1.51,1.28,2.94,2.63,4.29,4.07
		c1.31,1.39,2.54,2.86,3.79,4.32c1.07,1.26,2.12,2.55,3.16,3.83c0.22,0.28,0.39,0.59,0.64,0.97c-0.72,0.42-1.47,0.58-2.19,0.79
		c-3.1,0.9-6.04,2.2-8.82,3.82c-1.12,0.65-2.22,1.34-3.29,2.08c-2.78,1.94-5.19,4.28-7.34,6.9c-1.25,1.53-2.35,3.16-3.34,4.87
		c-0.13,0.22-0.31,0.41-0.48,0.62c-0.53,0.05-0.9-0.26-1.29-0.48c-1.45-0.81-2.87-1.66-4.32-2.46c-1.59-0.87-3.21-1.7-4.81-2.55
		c-0.46-0.24-0.91-0.48-1.43-0.74c0.04-0.28,0.03-0.54,0.13-0.76c0.57-1.28,1.17-2.54,1.75-3.82c0.54-1.18,1.12-2.34,1.59-3.55
		C191.07,88.68,191.31,87.71,191.12,86.62z M71.23,37.6c1.01-0.89,2.09-1.7,3.1-2.6c2.92-2.59,6.12-4.8,9.37-6.94
		c3.25-2.15,6.62-4.08,10.1-5.85c4.26-2.16,8.64-4.04,13.09-5.79c2.85-1.12,5.72-2.19,8.62-3.15c1.52-0.5,3.08-0.91,4.39-1.3
		c2.82,0.24,5.16,1.25,7.53,2.16c3.92,1.51,7.78,3.2,11.51,5.13c3,1.55,5.94,3.2,8.78,5.03c2.36,1.52,4.66,3.11,6.88,4.82
		c1.52,1.17,2.94,2.46,4.44,3.66c2.11,1.7,3.95,3.68,5.87,5.57c3.87,3.8,7.26,7.97,10.16,12.55c1.55,2.46,3.08,4.92,4.4,7.52
		c1.34,2.64,2.76,5.24,4.06,7.89c1.35,2.75,2.55,5.57,3.48,8.49c0.82,2.57,1.41,5.19,1.8,7.86c0.15,1.03,0.21,2.06,0.28,3.09
		c0.05,0.72,0.2,1.43,0.3,2.1c-0.61,1.34-1.16,2.63-1.77,3.89c-2.05,4.25-4.15,8.48-6.17,12.75c-1.09,2.3-2.06,4.65-3.09,6.97
		c-0.5,1.14-1,2.28-1.52,3.41c-0.89,1.93-1.84,3.84-2.71,5.78c-2.29,5.12-4.88,10.1-7.44,15.09c-1.84,3.6-3.78,7.16-5.68,10.74
		c-0.83,1.56-1.65,3.12-2.49,4.67c-0.69,1.27-1.4,2.52-2.19,3.96c-0.43-0.41-0.7-0.65-0.96-0.9c-1.69-1.69-3.36-3.4-5.08-5.06
		c-1.64-1.59-3.3-3.16-5.01-4.67c-2.17-1.93-4.38-3.81-6.61-5.67c-2.03-1.7-4.11-3.32-6.15-5c-2.64-2.18-5.26-4.38-7.9-6.56
		c-0.84-0.69-1.71-1.35-2.54-2.05c-0.35-0.3-0.66-0.66-0.97-1.01c-0.45-0.5-0.88-1.02-1.28-1.49c-0.39-0.08-0.7-0.14-1.05-0.21
		c-2.02-1.56-4.05-3.16-6.12-4.72c-1.86-1.4-3.76-2.76-5.64-4.14c-3.85-2.82-7.72-5.61-11.53-8.47c-0.81-0.61-1.7-1.18-2.46-2.08
		c1.39-0.55,2.81-0.58,4.15-1.08c0.19,0.27,0.41,0.5,0.54,0.76c1.08,2.1,2.78,3.6,4.71,4.87c2.78,1.83,5.89,2.78,9.13,3.37
		c2.47,0.44,4.97,0.49,7.45,0.29c3.3-0.26,6.59-0.67,9.81-1.49c2.47-0.63,4.89-1.43,7.17-2.53c2.15-1.04,4.17-2.31,6.01-3.85
		c1-0.84,1.99-1.68,2.85-2.64c1.91-2.12,3.72-4.32,5.18-6.79c0.63-1.07,1.34-2.11,1.87-3.23c1.25-2.68,2.5-5.36,3.14-8.27
		c0.31-1.41,0.71-2.82,0.87-4.25c0.23-2.16,0.6-4.33,0.34-6.51c-0.21-1.85-0.33-3.71-0.72-5.53c-0.46-2.13-1.04-4.25-1.91-6.24
		c-1.44-3.28-3.12-6.44-5.39-9.25c-2.47-3.07-5.39-5.59-8.73-7.64c-2.67-1.64-5.48-2.96-8.43-3.98c-1.81-0.62-3.67-1.06-5.57-1.38
		c-2.74-0.46-5.49-0.34-8.23-0.21c-1.8,0.08-3.57,0.56-5.31,1.07c-3.05,0.9-5.96,2.14-8.63,3.88c-1.25,0.82-2.53,1.63-3.59,2.72
		c-0.4,0.41-0.87,0.74-1.3,1.11c-0.27,0.24-0.56,0.47-0.8,0.74c-1.71,1.95-3.35,3.94-4.65,6.21c-1.5,2.64-2.48,5.47-3.32,8.36
		c-0.04,0.15-0.09,0.3-0.1,0.45c-0.05,1.66-0.49,3.28-0.41,4.95c0.03,0.61-0.07,1.25-0.23,1.84c-0.46,1.64-0.4,3.27-0.12,4.92
		c0.02,0.09-0.04,0.19-0.07,0.35c-0.13-0.04-0.3-0.04-0.37-0.13c-0.9-1.08-1.83-2.13-3.04-2.88c-0.35-0.22-0.72-0.4-1.01-0.56
		c-0.66-0.03-1.23-0.06-1.68-0.08c-0.48-0.28-0.62-0.65-0.51-1c0.44-1.48,0.22-2.99,0.29-4.49c0.03-0.73-0.04-1.45-0.02-2.18
		c0.06-2.62-0.46-5.15-1.15-7.65c-0.5-1.8-1.08-3.58-1.98-5.23c-0.82-1.51-1.73-2.95-2.85-4.26c-0.68-0.79-1.34-1.59-2.04-2.34
		c-1.27-1.37-2.66-2.62-4.23-3.66c-0.17-0.11-0.29-0.29-0.46-0.46C70.14,38.53,70.7,38.07,71.23,37.6z M95.42,85.75
		c-0.2-1.01-0.62-1.98-1.3-2.8c-0.26-0.32-0.56-0.66-0.67-1.04c-0.23-0.82-0.68-1.54-1.16-2.19c-1.05-1.44-1.49-3.08-1.72-4.78
		c-0.2-1.54-0.24-3.1-0.33-4.65c-0.05-0.88,0.03-1.74,0.33-2.6c0.2-0.57,0.18-1.22,0.25-1.84c0.03-0.31,0.04-0.62,0.06-0.91
		c0.17-0.23,0.32-0.44,0.47-0.65c-0.01-0.1,0.02-0.22-0.03-0.3c-0.25-0.44-0.22-0.91-0.09-1.37c0.56-2.05,1.17-4.08,2.02-6.04
		c0.92-2.1,2.02-4.09,3.43-5.9c1.12-1.42,2.25-2.82,3.67-4c1.12-0.92,2.17-1.93,3.37-2.76c2.02-1.39,4.2-2.47,6.48-3.37
		c2.23-0.87,4.56-1.35,6.9-1.82c0.45-0.09,0.93-0.05,1.4-0.09c0.62-0.05,1.23-0.15,1.85-0.19c0.57-0.04,1.14-0.05,1.71-0.02
		c0.72,0.04,1.44,0.15,2.16,0.22c1.92,0.17,3.8,0.55,5.63,1.12c4.2,1.32,8.05,3.32,11.56,5.97c1.58,1.19,3.02,2.55,4.33,4.03
		c0.92,1.05,1.75,2.19,2.54,3.34c1.78,2.58,3.14,5.38,4.26,8.29c0.42,1.11,0.89,2.23,0.67,3.37c0.24,0.42,0.43,0.73,0.56,0.96
		c0.21,1.37,0.4,2.65,0.6,3.93c0.03,0.2,0.09,0.41,0.09,0.61c0.01,1.87,0.13,3.75-0.02,5.61c-0.28,3.42-1,6.76-2.24,9.97
		c-1.1,2.86-2.49,5.59-4.19,8.16c-1.84,2.78-3.94,5.35-6.43,7.57c-1.55,1.38-3.23,2.6-5.06,3.6c-2.89,1.58-5.96,2.69-9.15,3.44
		c-1.51,0.36-3.04,0.6-4.57,0.87c-1.59,0.28-3.2,0.28-4.79,0.47c-1.68,0.19-3.41,0.22-5.12-0.15c-0.8-0.18-1.64-0.15-2.46-0.31
		c-3.02-0.57-5.74-1.8-8.18-3.63c-1.42-1.07-2.55-2.43-3.56-3.89c-0.18-0.25-0.33-0.52-0.55-0.86c0.19-0.69,0.39-1.43,0.58-2.18
		c0.41-1.59,0.36-3.17-0.03-4.77c-0.3-1.24-0.99-2.2-2.11-2.75c-1.96-0.97-4.03-1.4-6.17-0.6c-0.57,0.22-1.1,0.56-1.63,0.89
		c-0.21,0.13-0.38,0.36-0.27,0.71c0.46,0.28,0.95,0.17,1.45,0c1.45-0.51,2.95-0.55,4.46-0.45c0.21,0.01,0.41,0.06,0.71,0.1
		c0.36,0.35,0.77,0.74,1.22,1.18c0.73,2.44,0.65,4.85-0.2,7.17c-0.8,0.5-1.59,0.51-2.34,0.69c-1.72,0.4-3.46,0.63-5.21,0.83
		c-1.44,0.17-2.87,0.37-4.31,0.53c-0.57,0.06-1.14,0.05-1.71,0.08c-1.24,0.05-2.49-0.04-3.72,0.23c-0.5,0.11-1.05,0.11-1.55,0
		c-1.24-0.27-2.48-0.19-3.72-0.23c-1.09-0.03-2.17-0.04-3.25-0.26c-0.75-0.15-1.55-0.09-2.24-0.11c-0.53-0.3-0.97-0.56-1.38-0.79
		c-1.72,0.44-3.34,0.3-5.07-0.25c0.39-0.31,0.72-0.55,1.02-0.81c0.28-0.23,0.54-0.49,0.82-0.72c2.77-2.27,5.43-4.66,7.74-7.43
		c0.86-1.04,1.8-2.01,2.67-3.04c1.77-2.11,3.25-4.43,4.67-6.79c1.69-2.82,2.74-5.93,4.07-8.99c0.23-0.17,0.52-0.38,0.79-0.58
		c0.14,0.03,0.25,0.03,0.33,0.07c1.24,0.66,1.94,1.85,2.74,2.92c0.97,1.28,1.84,2.63,2.77,3.95c0.27,0.38,0.57,0.74,0.92,1.18
		c0.28,1.65,0.69,3.36,1.31,5.01c0.5,1.31,0.78,1.73,2.04,2.84c0.35,0,0.81,0,1.26,0C95.72,87.93,95.62,86.81,95.42,85.75z
		 M68.67,40.13c0.96,0.51,1.69,1.07,2.37,1.7c1.91,1.76,3.7,3.65,5.15,5.81c1.04,1.55,2,3.16,2.58,4.95
		c0.44,1.38,0.89,2.76,1.29,4.16c0.29,0.99,0.43,2.01,0.51,3.06c0.1,1.24,0.32,2.46,0.26,3.71c-0.02,0.31,0.05,0.65-0.05,0.93
		c-0.39,1.11-0.21,2.26-0.27,3.4c0,0.05-0.01,0.1,0,0.16c0.16,1.28,0.33,2.56,0.51,4.03c-0.31,0.81-0.69,1.77-1.06,2.74
		c-1.52,3.94-3.38,7.69-5.89,11.1c-1.2,1.63-2.4,3.25-3.83,4.7c-1.97,2-3.94,4-5.95,5.95c-0.97,0.93-2.03,1.77-3.07,2.62
		c-0.68,0.56-1.39,1.08-2.07,1.64c-0.15,0.13-0.26,0.32-0.35,0.44c-0.03,0.45,0.22,0.63,0.54,0.71c0.3,0.07,0.62,0.05,0.93,0.09
		c0.53,0.07,0.53,0.08,1.41,0.69c-1.93,1.26-3.9,2.34-6.21,2.62c-0.89,0.11-1.75-0.19-2.6-0.39c-1.33-0.31-2.5-1.01-3.54-1.89
		c-2.58-2.19-4.44-4.9-5.85-7.83c0.09-0.88,0.22-1.65,0.22-2.42c0.01-1.46,0.32-2.88,0.5-4.31c0.18-1.44,0.4-2.87,0.75-4.28
		c0.47-1.86,0.89-3.73,1.41-5.57c0.42-1.5,0.94-2.97,1.47-4.43c0.34-0.92,0.77-1.81,1.17-2.71c0.19-0.43,0.43-0.84,0.57-1.28
		c1.3-4.01,3.07-7.81,5.05-11.53c0.71-1.33,1.5-2.61,2.26-3.91c0.1-0.17,0.26-0.31,0.4-0.47c0.19,0.06,0.35,0.07,0.47,0.15
		c2.32,1.47,4.64,2.95,6.97,4.41c3.08,1.92,6.11,3.93,9.42,5.46c0.38,0.17,0.75,0.36,1.14,0.5c0.24,0.09,0.5,0.12,0.83,0.2
		c0.13-0.19,0.27-0.39,0.38-0.54c-0.14-0.73-0.52-1.22-0.96-1.66c-1.39-1.4-2.74-2.85-4.2-4.18c-1.54-1.39-3.28-2.52-5.06-3.59
		c-2.11-1.27-4.33-2.22-6.73-2.77c-0.24-0.06-0.46-0.21-0.78-0.37C61.75,47.72,64.85,43.72,68.67,40.13z M39.95,84.45
		c-0.38-2.57-0.65-5.13-0.59-7.73c0.05-2.07,0.1-4.15,0.14-6.22c0-0.15-0.07-0.33-0.03-0.46c0.43-1.18,0.36-2.43,0.53-3.65
		c0.16-1.18,0.39-2.35,0.61-3.51c0.64-3.31,1.5-6.55,2.68-9.72c0.98-2.65,2.24-5.13,3.8-7.47c0.72-1.07,1.49-2.12,2.31-3.12
		c1-1.21,2.29-2.11,3.62-2.92c1.88-1.14,3.91-1.92,6.1-2.17c1.66-0.19,3.32-0.04,4.93,0.43c0.89,0.26,1.76,0.59,2.64,0.91
		c0.12,0.04,0.2,0.21,0.3,0.32c-1.79,2.04-3.62,4.02-5.33,6.1c-1.7,2.08-3.28,4.26-4.9,6.38c-0.67,0.25-1.26,0.13-1.83-0.17
		c-0.78-0.41-1.56-0.82-2.33-1.26c-0.99-0.57-1.99-1.11-3.06-1.53c-0.15,0.08-0.27,0.15-0.39,0.22c0.02,0.13-0.01,0.28,0.05,0.32
		c0.54,0.39,1.1,0.77,1.65,1.14c0.47,0.31,0.95,0.61,1.5,0.95c-0.39,0.12-0.67,0.21-1.1,0.34c0.28,0.18,0.43,0.35,0.61,0.38
		c0.35,0.07,0.72,0.05,1.09,0.08c1.01,0.08,1.89,0.47,2.66,1.26c-0.11,0.25-0.19,0.49-0.32,0.69c-2.01,3.16-3.74,6.46-5.21,9.91
		c-0.34,0.81-0.72,1.61-1.09,2.41c-0.09,0.19-0.18,0.38-0.32,0.53c-0.54,0.55-0.78,1.21-0.74,1.96c-0.77,0.84-1.29,1.74-1.2,2.93
		c0.03,0.38-0.22,0.79-0.37,1.17c-1.5,3.77-2.59,7.65-3.29,11.64c-0.26,1.48-0.57,2.94-0.63,4.45c-0.04,0.9-0.23,1.79-0.39,2.94
		C41.12,89.37,40.32,86.98,39.95,84.45z M39.14,118.18c0.39-2.29,0.79-4.58,1.19-6.87c0.27-1.53,0.55-3.05,0.82-4.57
		c0.14-0.81,0.27-1.63,0.36-2.45c0.14-1.18,0.21-2.37,0.38-3.54c0.17-1.13,0.31-2.25,0.35-3.39c0.01-0.17,0.17-0.34,0.3-0.58
		c0.72,1.13,1.32,2.22,2.06,3.2c1.68,2.2,3.56,4.19,6.14,5.37c1.13,0.52,2.29,0.95,3.55,1.06c0.66,0.06,1.32,0.22,1.97,0.34
		c0.09,0.26-0.1,0.36-0.26,0.47c-1.77,1.18-3.56,2.32-5.29,3.55c-3.04,2.15-6.05,4.35-9.08,6.53c-0.79,0.57-1.6,1.12-2.5,1.74
		C39.14,118.68,39.1,118.42,39.14,118.18z M191.03,198.94c-2.05,1.21-4.07,2.5-6.16,3.64c-3.83,2.08-7.65,4.19-11.67,5.91
		c-2,0.86-3.97,1.8-5.98,2.65c-2.53,1.07-5.08,2.1-7.64,3.12c-6.61,2.63-13.38,4.81-20.14,7c-3.3,1.07-6.65,2.02-9.97,3.04
		c-1.44,0.44-2.87,0.89-4.31,1.33c-2.78,0.85-5.55,1.71-8.33,2.55c-0.18,0.05-0.39,0.01-0.57,0.01c-0.04-0.16-0.1-0.27-0.08-0.35
		c1.36-3.64,2.58-7.33,3.68-11.06c0.67-2.28,1.36-4.56,1.86-6.89c0.41-1.92,0.83-3.84,1.19-5.76c0.29-1.52,0.48-3.06,0.69-4.59
		c0.13-0.93,0.12-1.87,0.29-2.77c0.29-1.49,0.1-3.02,0.33-4.49c0.41-2.59,0.16-5.18,0.24-7.77c0.02-0.67,0.06-1.35-0.21-2
		c-0.06-0.14-0.07-0.31-0.06-0.46c0.13-1.41-0.28-2.78-0.34-4.17c-0.02-0.53-0.26-0.97-0.5-1.43c-0.04,1.24-0.25,2.48,0.11,3.71
		c0.11,0.39,0.09,0.82,0.09,1.24c0.01,2.96,0.01,5.93-0.01,8.89c0,0.56-0.14,1.13-0.19,1.69c-0.05,0.52-0.07,1.03-0.09,1.55
		c-0.04,1.03,0.1,2.08-0.28,3.09c-0.03,0.09-0.03,0.21-0.03,0.31c0.07,2.09-0.47,4.11-0.69,6.16c-0.2,1.84-0.63,3.66-1.01,5.48
		c-1.03,4.93-2.54,9.71-4.22,14.45c-0.68,1.9-1.39,3.8-2.39,5.64c-0.28,0.14-0.58,0.36-0.92,0.46c-3.44,0.98-6.88,1.95-10.33,2.9
		c-1.7,0.47-3.41,0.9-5.12,1.31c-3.32,0.79-6.65,1.55-10.02,2.17c-2.44,0.45-4.87,0.97-7.31,1.42c-1.53,0.28-3.07,0.49-4.6,0.73
		c-1.69,0.27-3.37,0.56-5.05,0.83c-0.92,0.15-1.84,0.28-2.77,0.39c-0.3,0.04-0.61,0.01-1.02,0.01c0.04-0.29,0.02-0.5,0.1-0.65
		c0.72-1.38,1.47-2.74,2.19-4.13c0.83-1.62,1.65-3.24,2.46-4.87c1.93-3.85,3.69-7.78,5.29-11.78c0.98-2.45,2.05-4.88,2.94-7.37
		c1.25-3.52,2.42-7.07,3.54-10.63c1.06-3.36,1.88-6.78,2.76-10.19c0.92-3.56,1.68-7.15,2.35-10.75c0.32-1.72,0.72-3.44,0.76-5.21
		c0.02-0.82,0.4-1.61,0.29-2.46c-0.03-0.24-0.08-0.48-0.12-0.72c-0.6,0-0.65,0.43-0.72,0.75c-0.16,0.7-0.28,1.42-0.36,2.14
		c-0.38,3.5-1.12,6.93-1.84,10.37c-0.95,4.56-2.07,9.08-3.38,13.54c-1.13,3.83-2.41,7.61-3.78,11.36c-1.16,3.17-2.45,6.28-3.69,9.41
		c-0.4,1.01-0.86,2-1.33,2.98c-1.71,3.56-3.4,7.12-5.18,10.65c-1.31,2.59-2.74,5.12-4.14,7.73c-0.38,0.14-0.75,0.35-1.15,0.4
		c-1.34,0.16-2.68,0.26-4.02,0.39c-0.98,0.1-1.95,0.22-2.93,0.29c-0.98,0.07-1.97-0.05-2.94,0.24c-0.24,0.07-0.52,0.04-0.78,0.04
		c-3.9,0-7.8,0.01-11.69,0.01c-0.21,0-0.41-0.03-0.58-0.05c-0.41-0.3-0.3-0.66-0.21-1.01c0.74-2.85,1.51-5.7,2.23-8.56
		c2.05-8.08,4.07-16.16,6.11-24.23c1.04-4.11,2.07-8.22,3.16-12.32c0.73-2.75,1.55-5.47,2.32-8.21c0.07-0.23,0.15-0.51-0.39-0.7
		c-0.46,1.51-0.91,2.94-1.33,4.38c-0.52,1.79-1.01,3.58-1.51,5.38c-0.55,1.99-1.09,3.99-1.64,5.99c-0.57,2.1-1.15,4.19-1.7,6.29
		c-0.55,2.1-1.06,4.21-1.61,6.32c-0.91,3.51-1.84,7.01-2.76,10.51c-1.01,3.85-2.02,7.71-3.04,11.56c-0.3,1.15-0.6,2.3-0.94,3.45
		c-0.11,0.39-0.34,0.74-0.54,1.17c-0.5,0.01-0.98,0.12-1.42,0.02c-1.08-0.26-2.17-0.19-3.25-0.23c-0.36-0.01-0.71-0.06-1.14-0.1
		c-0.05-0.28-0.11-0.52-0.14-0.77c-0.18-1.54-0.35-3.08-0.52-4.62c-0.02-0.15-0.05-0.31-0.07-0.46c-0.12-1.39-0.22-2.79-0.37-4.18
		c-0.15-1.44-0.36-2.87-0.52-4.31c-0.05-0.46-0.05-0.93-0.05-1.4c-0.02-4-0.03-8-0.07-12.01c-0.01-0.67-0.12-1.34-0.17-2.01
		c-0.03-0.36-0.06-0.73-0.06-1.09c-0.01-1.66-0.02-3.33,0-4.99c0.01-0.57,0.11-1.13,0.18-1.69c0.1-0.88,0.19-1.75-0.05-2.63
		c-0.11-0.39-0.14-0.82-0.14-1.23c0-3.22-0.16-6.46,0.06-9.66c0.23-3.43,0.06-6.86,0.31-10.27c0.15-2.02,0.09-4.05,0.3-6.06
		c0.17-1.66,0.07-3.33,0.32-4.96c0.28-1.8,0.03-3.64,0.5-5.41c0.01-0.05,0.01-0.1,0.01-0.15c0.12-1.71,0.27-3.41,0.36-5.12
		c0.08-1.6,0.69-3.03,1.34-4.44c1.38-2.97,3-5.81,4.65-8.64c1.78-3.05,3.75-5.97,5.71-8.91c0.17-0.26,0.38-0.49,0.7-0.91
		c-0.12,0.94-0.21,1.68-0.32,2.42c-0.17,1.18-0.48,2.35-0.51,3.53c-0.06,2.28-0.49,4.54-0.38,6.83c0.04,0.82-0.09,1.65-0.19,2.47
		c-0.2,1.74-0.16,3.51-0.05,5.16c0.63,0.62,1.27,0.48,1.87,0.37c0.4-0.07,0.79-0.25,1.18-0.39c2.74-0.99,5.56-1.68,8.4-2.24
		c1.16-0.23,2.37-0.25,3.54-0.43c3.41-0.54,6.84-0.23,10.26-0.26c1.58,0.33,3.19,0.3,4.78,0.53c2.36,0.33,4.7,0.73,7.03,1.27
		c2.52,0.58,5.06,1.13,7.56,1.8c3.15,0.84,6.3,1.73,9.41,2.71c4,1.27,7.99,2.59,11.94,4.02c3.17,1.15,6.29,2.43,9.39,3.77
		c4.43,1.92,8.82,3.93,13.11,6.15c0.73,0.38,1.48,0.75,2.23,1.1c0.18,0.08,0.4,0.08,0.6,0.07c0.07,0,0.13-0.13,0.2-0.21
		c0-0.43-0.32-0.64-0.62-0.83c-1.24-0.76-2.46-1.55-3.76-2.2c-1.16-0.58-2.03-1.38-2.76-2.43c-1.42-2.04-2.9-4.04-4.35-6.07
		c-0.51-0.72-0.98-1.46-1.47-2.2c-2.63-3.98-5.49-7.8-8.38-11.59c-1.47-1.94-3.09-3.77-4.63-5.66c-1.31-1.61-2.65-3.19-4.06-4.71
		c-0.67-0.72-1.25-1.52-1.9-2.26c-0.68-0.77-1.37-1.54-2.1-2.28c-2.04-2.07-4.07-4.17-6.17-6.18c-2.53-2.42-5.41-4.36-8.6-5.82
		c-2.89-1.32-5.89-2.29-8.99-3c-1.87-0.43-3.76-0.72-5.65-1.01c-3.11-0.47-6.22-0.37-9.33-0.21c-3.2,0.16-6.22,1.15-8.95,2.86
		c-2.25,1.41-3.91,3.41-5.13,5.74c-0.7,1.33-1.29,2.72-1.85,4.12c-0.26,0.63-0.56,1.22-0.94,1.78c-1.99,2.98-4,5.94-5.93,8.95
		c-1.26,1.96-2.41,3.99-3.59,6.01c-0.75,1.29-1.46,2.62-2.25,4.03c-0.23-0.39-0.15-0.73-0.14-1.05c0.01-0.36,0.04-0.73,0.09-1.09
		c0.18-1.38,0.36-2.77,0.54-4.15c0.13-0.98,0.23-1.95,0.37-2.93c0.29-2.05,0.58-4.1,0.89-6.14c0.27-1.79,0.58-3.57,0.85-5.36
		c0.25-1.64,0.46-3.28,0.72-4.92c0.14-0.86,0.34-1.72,0.51-2.6c1.49-1.11,2.94-2.19,4.4-3.26c2.76-2.02,5.52-4.05,8.3-6.04
		c3.67-2.63,7.37-5.21,11.28-7.49c0.9-0.52,1.8-1.04,2.54-1.46c1.24-0.28,2.21,0.33,3.42,0.18c-0.19,0.31-0.26,0.49-0.38,0.62
		c-0.95,0.96-1.91,1.91-2.87,2.86c-1.92,1.9-3.72,3.9-5.42,6.01c-0.68,0.85-1.41,1.66-2.11,2.49c-0.13,0.15-0.21,0.33-0.35,0.56
		c0.73,0.45,1.22-0.2,1.81-0.16c0.86-1.02,1.69-2.01,2.52-3c0.13-0.16,0.23-0.35,0.37-0.5c2.2-2.35,4.29-4.81,6.66-6.99
		c0.57-0.52,1.21-0.98,1.83-1.48c0.92-0.17,1.85-0.08,2.78,0c0.67,0.06,1.34,0.18,2.01,0.19c1.77,0.03,3.53,0.04,5.3,0.02
		c1.24-0.01,2.49,0.09,3.72-0.25c0.19-0.05,0.41-0.03,0.62-0.03c1.82-0.02,3.6-0.36,5.55-0.58c0.24,0.14,0.63,0.31,0.94,0.57
		c3.64,3.01,7.46,5.77,11.28,8.55c4.11,3,8.18,6.03,12.23,9.1c1.82,1.38,3.54,2.87,5.32,4.31c1.44,1.16,2.45,2.65,3.33,4.26
		c1.35,2.46,2.74,4.89,4.11,7.33c0.05,0.09,0.09,0.19,0.14,0.28c2.99,5.59,5.89,11.22,8.61,16.95c1.74,3.65,3.36,7.35,4.86,11.12
		c1.47,3.71,2.95,7.42,4.33,11.16c0.97,2.63,1.89,5.27,2.85,7.9c0.98,2.68,1.73,5.43,2.68,8.12c0.26,0.73,0.42,1.49,0.66,2.23
		c0.09,0.28,0.25,0.53,0.54,0.76c0-0.3,0.06-0.62-0.01-0.9c-0.45-1.96-0.84-3.94-1.49-5.86c-0.62-1.81-1.12-3.67-1.75-5.48
		c-1.4-4.01-2.81-8.03-4.3-12.01c-1.03-2.77-2.18-5.49-3.31-8.22c-0.85-2.06-1.75-4.1-2.63-6.15c-0.06-0.14-0.13-0.28-0.2-0.42
		c-1.77-3.64-3.49-7.31-5.32-10.92c-1.69-3.33-3.47-6.62-5.26-9.9c-0.97-1.77-2.03-3.5-3.04-5.25c-0.15-0.26-0.24-0.55-0.35-0.79
		c0.25-0.3,0.44-0.16,0.59-0.04c2.41,1.96,4.82,3.93,7.23,5.91c2.17,1.77,4.34,3.54,6.49,5.33c1.04,0.86,2.04,1.77,3.04,2.67
		c1.93,1.73,3.87,3.45,5.77,5.22c1.26,1.16,2.44,2.41,3.69,3.59c1.35,1.29,2.74,2.55,4.12,3.8c0.18,0.17,0.43,0.27,0.63,0.39
		c0.78-0.17,1.17-0.75,1.57-1.27c0.34-0.45,0.63-0.95,0.9-1.45c1.49-2.73,2.98-5.47,4.46-8.21c1.48-2.74,3-5.46,4.43-8.23
		c2.43-4.71,4.81-9.44,7.21-14.17c0.3-0.59,0.54-1.21,0.85-1.89c0.87,0.61,1.18,1.53,1.82,2.19c0.68,0.7,1.22,1.54,1.84,2.31
		c0.58,0.73,1.18,1.44,1.78,2.16c0.6,0.72,1.2,1.43,1.8,2.14c0.6,0.71,1.21,1.42,1.8,2.14c0.62,0.77,1.2,1.56,1.82,2.33
		c0.58,0.73,1.18,1.44,1.77,2.16c0.59,0.72,1.18,1.45,1.76,2.18c0.58,0.73,1.13,1.49,1.71,2.21c0.62,0.77,1.25,1.52,1.91,2.25
		c0.61,0.69,0.99,1.6,1.88,2.04c0.27-0.2,0.18-0.45,0.04-0.66c-1-1.45-1.97-2.92-3.03-4.33c-1.68-2.24-3.39-4.45-5.12-6.65
		c-1.02-1.3-2.1-2.56-3.16-3.84c-1.35-1.64-2.68-3.29-4.04-4.93c-0.96-1.16-1.93-2.31-2.94-3.42c-0.3-0.34-0.73-0.56-1.1-0.84
		c-0.19-0.46,0.12-0.8,0.29-1.16c1.25-2.74,2.55-5.45,3.76-8.21c1.77-4.04,3.61-8.05,5.57-12.01c0.23-0.46,0.48-0.91,0.75-1.43
		c1.5,0.45,2.67,1.43,4.02,2.07c1.36,0.65,2.65,1.42,3.96,2.17c1.3,0.74,2.58,1.52,3.9,2.3c-0.47,1.1-0.93,2.14-1.36,3.19
		c-0.82,1.97-1.35,4.02-1.69,6.13c-0.31,1.95-0.43,3.91-0.64,5.86c-0.2,1.86-0.22,3.73-0.29,5.59c-0.01,0.31-0.1,0.61-0.17,1.01
		c0.17,0.77,0.2,1.64,0.07,2.53c-0.11,0.76-0.21,1.57-0.08,2.32c0.18,1.04,0.16,2.07,0.18,3.1c0.02,1.45-0.03,2.91,0.06,4.36
		c0.06,0.92,0.24,1.85,0.49,2.74c0.59,2.1,1.3,4.15,2.24,6.12c0.72,1.51,1.54,2.93,2.49,4.3c1.89,2.73,4.3,4.91,7.16,6.59
		c0.76,0.44,1.59,0.75,2.37,1.11c3.47,5.57,7.37,10.8,11.45,15.88c-0.06,0.19-0.07,0.37-0.16,0.48c-0.73,0.87-1.37,1.82-2.19,2.62
		c-0.67,0.65-1.21,1.42-1.86,2.09c-0.82,0.86-1.68,1.69-2.66,2.38c-3.31,2.33-6.58,4.7-9.87,7.06c-0.12,0.09-0.27,0.14-0.49,0.25
		c-0.17-0.17-0.38-0.32-0.5-0.52c-1.49-2.37-2.94-4.77-4.44-7.13c-1.36-2.14-2.75-4.28-4.18-6.38c-2.33-3.43-4.77-6.78-7.28-10.09
		c-1.41-1.86-2.77-3.75-4.19-5.6c-1.36-1.77-2.77-3.49-4.16-5.23c-0.74-0.93-1.48-1.86-2.24-2.79c-0.16-0.2-0.36-0.38-0.58-0.5
		c-0.15-0.08-0.37-0.03-0.55-0.05c-0.18,0.55,0.12,0.88,0.35,1.2c1.29,1.75,2.61,3.48,3.92,5.22c2.39,3.19,4.78,6.39,7.18,9.58
		c4.53,6.01,8.76,12.22,12.85,18.53c0.65,1,1.3,2,1.93,3.01c0.27,0.44,0.48,0.91,0.69,1.33c-0.19,0.62-0.65,0.9-1.07,1.18
		C197.98,194.59,194.56,196.86,191.03,198.94z M46.83,144.15c-0.1-1.57,0.2-3.1,0.39-4.64c0.45-3.7,1.16-7.36,2.45-10.88
		c0.18-0.48,0.3-1,0.82-1.33c0.45,0.2,0.89,0.46,1.37,0.62c2.34,0.8,4.7,1.09,7.18,0.68c1.95-0.33,3.84-0.86,5.72-1.42
		c1.24-0.37,2.49-0.71,3.74-1.05c0.3-0.08,0.61-0.09,0.92-0.12c0.67-0.07,1.33-0.13,2.16-0.22c0.54,0.18,1.18,0.5,1.75,0.98
		c1.75,1.47,3.81,2.28,6.04,2.68c0.97,0.18,1.95,0.24,2.92,0.36c3.88,0.49,7.78,0.24,11.66,0.22c1.07-0.01,2.14-0.3,3.22-0.47
		c1.52,1.2,3,2.8,3.79,4.16c-0.4,0-0.76,0.06-1.09-0.01c-1.55-0.31-3.08-0.33-4.63,0c-0.2,0.04-0.41,0.06-0.62,0.06
		c-1.82,0.02-3.6,0.42-5.36,0.81c-2.43,0.53-4.85,1.08-7.24,1.74c-2.1,0.57-4.15,1.29-6.17,2.12c-3.38,1.39-6.49,3.24-9.56,5.18
		c-1.53,0.96-3,2.04-4.34,3.27c-0.23,0.21-0.46,0.42-0.72,0.6c-0.64,0.45-1.17,1.01-1.64,1.64c-0.37,0.5-0.81,0.94-1.13,1.31
		c-1.52,0.28-2.9,0.5-4.26,0.78c-1.37,0.29-2.72,0.62-4.08,0.97c-1.34,0.35-2.61,0.97-3.96,1.21c-0.39-0.46-0.24-0.94-0.2-1.39
		c0.03-0.31,0.18-0.6,0.21-0.91c0.14-1.44,0.26-2.89,0.36-4.33c0.05-0.67-0.02-1.35,0.23-2C46.84,144.58,46.84,144.36,46.83,144.15z
		 M50.87,126.23c0.33-1.1,0.91-1.97,1.55-2.77c2.11-2.63,4.73-4.49,8.07-5.23c1.41-0.32,2.82-0.61,4.28-0.7
		c1.03-0.06,2.05-0.25,3.09-0.22c0.67,0.02,1.35-0.04,2.01,0.19c0.19,0.07,0.41,0.05,0.62,0.06c5.44,0.25,10.64,1.58,15.66,3.64
		c3.75,1.54,6.96,3.89,9.69,6.89c0.07,0.07,0.09,0.18,0.18,0.36c-0.22,0.11-0.43,0.29-0.65,0.3c-2.43,0.14-4.86,0.57-7.29,0.3
		c-1.92-0.21-3.83-0.13-5.74-0.3c-1.38-0.12-2.78-0.3-4.13-0.66c-1.54-0.4-2.88-1.16-4.09-2.16c-1.01-0.83-2.15-1.16-3.45-1.2
		c-1.16-0.03-2.28,0.19-3.38,0.44c-1.31,0.3-2.59,0.72-3.89,1.09c-0.7,0.2-1.39,0.42-2.08,0.65c-2.26,0.77-4.6,0.73-6.93,0.63
		C52.99,127.49,52.02,127.11,50.87,126.23z M102.16,134.78c0.28,0.24,0.45,0.36,0.59,0.52c1.16,1.32,2.32,2.65,3.47,3.98
		c0.75,0.86,1.5,1.72,2.22,2.6c1.67,2.05,3.32,4.1,4.98,6.16c3.19,3.95,6.09,8.12,9.08,12.22c1.22,1.67,2.47,3.33,3.73,4.96
		c0.7,0.9,1.47,1.73,2.2,2.59c-0.2,0.3-0.38,0.15-0.55,0.07c-3.63-1.78-7.37-3.33-11.11-4.87c-2.44-1.01-4.92-1.92-7.41-2.81
		c-3.37-1.2-6.75-2.38-10.15-3.49c-4.93-1.6-9.92-2.97-14.97-4.15c-2.57-0.6-5.17-1.07-7.76-1.55c-1.07-0.2-2.17-0.22-3.23-0.41
		c-1.64-0.3-3.32-0.18-4.95-0.38c-1.24-0.15-2.48-0.2-3.72-0.19c-0.67,0.01-1.34,0.13-2.01,0.17c-0.67,0.05-1.34,0.06-1.97,0.09
		c-0.19-0.31,0.01-0.44,0.13-0.57c1.4-1.47,2.96-2.75,4.6-3.94c2.31-1.68,4.77-3.12,7.28-4.47c3.03-1.62,6.17-2.91,9.48-3.85
		c3.14-0.89,6.3-1.68,9.5-2.29c1.32-0.25,2.64-0.5,4-0.47c1.66,0.04,3.32,0,4.99,0.01C101.1,134.72,101.62,134.76,102.16,134.78z
		 M216.67,163.44c-0.11,0.58-0.67,0.64-0.96,0.97c-0.26,0.3-0.59,0.53-0.9,0.79c-1.85-2.23-2.56-3.33-2.84-4.4
		c0.23-0.21,0.49-0.16,0.72-0.04c0.45,0.24,0.9,0.51,1.32,0.8C214.89,162.16,215.76,162.8,216.67,163.44z M216.08,161.05
		c0.2-0.03,0.39-0.08,0.58-0.08c2.97,0.05,5.73-0.83,8.46-1.84c0.34-0.13,0.68-0.26,1.02-0.36c0.14-0.04,0.3,0.01,0.53,0.02
		c0.16,0.21,0.36,0.45,0.52,0.7c1.68,2.56,3.41,5.08,5.02,7.68c1.17,1.89,2.4,3.76,3.3,5.93c0.09,0.72,0.13,1.54-0.1,2.32
		c-0.17,0-0.3,0.04-0.36-0.01c-6.06-4.97-12.42-9.52-18.83-14.02C216.15,161.35,216.14,161.22,216.08,161.05z M203.35,198.27
		c-0.43,0.42-0.8,0.94-1.36,1.21c-0.43-0.73-0.46-0.73-0.39-2.72c0.03-0.87,0.2-1.74,0.3-2.63c0.64-0.71,1.26-1.39,2.34-1.3
		c0.1-0.23,0.2-0.46,0.32-0.72c1.19-0.88,2.4-1.76,3.61-2.66c1.16-0.86,2.34-1.71,3.47-2.62c1.17-0.93,2.28-1.93,3.36-2.85
		c0.69,0.09,0.99,0.56,1.29,0.95c1.09,1.4,2.4,2.58,3.63,3.84c0.21,0.22,0.41,0.46,0.66,0.75c-0.19,0.27-0.33,0.54-0.54,0.75
		c-2.35,2.35-4.67,4.72-7.07,7.02c-1.38,1.33-2.9,2.5-4.31,3.8c-1.34,1.23-2.61,2.53-3.91,3.8c-0.45,0.43-0.88,0.89-1.35,1.29
		c-0.17,0.15-0.44,0.19-0.66,0.27c-0.73-1.59-1.02-3.66-0.83-6.14c0.42-0.43,0.93-0.94,1.42-1.47c0.49-0.52,1.05-0.96,1.51-1.63
		C204.19,197.43,204.2,197.44,203.35,198.27z M195.44,231.27c0.4-0.57,1.03-0.99,1.43-1.36c2.39-1.43,4.51-2.69,6.65-3.97
		c0.27,1.01,0.32,4.48,0.09,5.93c-1.51,0.46-3.11,0.42-4.68,0.65c-1.56,0.23-3.1,0.64-4.8,0.71
		C194.3,232.31,195.02,231.87,195.44,231.27z M193.21,234.31c3.34-0.8,6.82-1.25,10.28-1.87c0.56,0.22,0.61,0.62,0.34,1.24
		c-4.45,1.59-9.02,3.09-13.36,5.31C191.19,237.32,192.1,235.83,193.21,234.31z M189.5,241.11c1.88-1.65,11.53-5.55,14.34-6.13
		c0.43,1.45,0.59,3.39,0.42,5.28c-1.43,0.46-2.89,0.97-4.37,1.4c-2.08,0.6-4.2,1.1-6.28,1.73c-1.33,0.4-2.62,0.96-3.93,1.44
		c-0.23,0.09-0.47,0.16-0.78,0.27C188.53,243.61,189.22,242.4,189.5,241.11z M185.44,249.32c4.09-2.84,4.52-3.08,6.04-3.3
		c-0.75,1.43-1.49,2.84-2.28,4.35c-1.53,0.25-2.86-0.41-4.24-0.28C184.88,249.62,185.21,249.49,185.44,249.32z M183.74,250.47
		c1.62,0.29,3.2,0.81,5.12,0.4c-0.17,0.48-0.24,0.73-0.34,0.95c-0.26,0.55-0.55,1.1-0.86,1.72c-1.8-0.49-3.53-0.97-5.26-1.45
		c-0.13-0.04-0.24-0.16-0.43-0.3C182.58,251.33,183.15,250.91,183.74,250.47z M168.91,259.87c-0.19-0.85-0.58-1.67-0.37-2.58
		c1.02-0.75,3.26-1.59,4.83-1.77c-1.41,1.66-2.71,3.19-4.07,4.8C169.14,260.14,168.94,260.03,168.91,259.87z M172.87,261.99
		c-0.93,0.3-1.88,0.56-2.81,0.83c-0.05-0.08-0.15-0.19-0.13-0.23c0.74-1.37,1.67-2.59,2.84-3.81c1.09,0.77,2.04,1.45,3.05,2.17
		C174.86,261.44,173.85,261.67,172.87,261.99z M177.86,260.37c-1.63-0.54-2.92-1.51-3.99-2.91c0.84-1.03,1.77-1.92,2.75-2.76
		c0.26-0.22,0.62-0.31,0.96-0.47c0.41,1.04,0.73,2.02,1.17,2.94c0.44,0.91,1.02,1.77,1.6,2.75
		C179.44,260.11,178.7,260.51,177.86,260.37z M185.1,259.86c-1.38,0.32-1.49,0.31-2.64-0.14c-1.47-1.66-2.32-3.65-3.05-5.69
		c0.27-0.73,0.84-1.07,1.58-1.42c2.04,0.55,4.18,1.12,6.39,1.72C186.76,256.28,185.9,258.09,185.1,259.86z M187.22,259.35
		c1.95-5.01,4.07-9.84,6.78-14.32c1.19-0.62,2.38-0.89,3.62-1.07c-0.19,2.64-3.15,9.84-6.03,14.72
		C190.25,259.12,188.87,259.72,187.22,259.35z M203.06,252.4c-2.51,2.01-5.21,3.74-8.14,5.08c-0.51,0.23-1.05,0.42-1.55,0.62
		c-0.31-0.32-0.07-0.55,0.04-0.73c0.82-1.32,1.38-2.77,2.06-4.17c1.26-2.56,2.12-5.28,2.92-8.01c0.18-0.61,0.35-1.19,0.98-1.83
		c1.6-0.31,3.15-1.06,4.85-1.32c0.08-0.01,0.17,0.09,0.32,0.17c0.1,1.29,0.2,2.62,0.32,3.95c0.11,1.28,0.24,2.56,0.37,3.98
		C204.72,251,203.9,251.73,203.06,252.4z M203.88,223.99c-1.99,1.11-3.98,2.21-5.98,3.31c-0.25,0.14-0.5,0.37-0.93,0.21
		c0.41-1.66-0.11-3.41,0.74-5.25c0.73-0.62,1.6-1.44,2.55-2.14c2.79-2.05,5.48-4.25,8.45-6.04c1.2-0.72,2.42-1.4,3.62-2.1
		c0.39-0.23,0.87-0.34,1.05-0.83c0,0-0.01,0-0.01,0c0-0.01,0-0.01,0.01-0.02c-0.64-0.05-1.21,0.15-1.77,0.43
		c-2.56,1.26-5.04,2.65-7.32,4.39c-2.01,1.54-4.09,2.98-6.14,4.47c-0.13-1.06,0.85-4.29,1.95-6.33c1.68-1.13,3.54-2.15,5.45-3.08
		c1.91-0.93,3.82-1.83,5.76-2.75c-0.28-0.36-0.6-0.23-0.84-0.14c-1.41,0.52-2.83,1.01-4.2,1.62c-1.75,0.78-3.44,1.7-5.05,2.76
		c-0.11,0.07-0.28,0.07-0.41,0.1c-0.05-0.13-0.13-0.24-0.1-0.31c0.41-1.01,0.84-2,1.26-3.01c1.4-0.78,2.53-1.83,3.64-2.93
		c1.18-1.16,2.42-2.27,3.65-3.39c0.07-0.06,0.18-0.07,0.28-0.1c0.66,0.86,2.33,4.09,4.02,7.77c-0.05,0.14-0.11,0.32-0.18,0.51
		c0,0,0.01,0,0.01,0c0,0.01-0.01,0.01-0.01,0.02c0.15,0.03,0.29,0.07,0.46,0.1c1.18,1.52,1.75,3.4,2.91,5.01
		c-0.25,0.26-0.42,0.53-0.67,0.68c-1.02,0.61-2,1.27-3.07,1.79c-0.78,0.38-1.46,0.95-2.23,1.38
		C208.47,221.38,206.18,222.7,203.88,223.99z M212.74,243.59c-1.29,1.71-4.06,4.24-5.71,5.21c-0.27-0.56-0.46-1.12-0.47-1.74
		c-0.01-0.47-0.01-0.93-0.03-1.4c-0.02-0.67-0.06-1.33-0.19-2c-0.19-0.96-0.24-1.95,0.18-2.92c-0.5-0.94-0.62-1.95-0.6-3
		c0.02-0.83-0.03-1.66-0.02-2.49c0.01-0.51,0.07-1.02,0.11-1.62c-0.16-0.36-0.63-0.77-0.08-1.42c0.25-0.08,0.61-0.2,1.12-0.36
		c-0.52-0.08-0.87-0.14-1.28-0.2c-0.34-1.13-0.15-2.27-0.18-3.39c-0.04-1.14,0.01-2.27,0.01-3.42c1.28-0.97,2.59-1.77,3.93-2.38
		c0.43,0.08,0.42,0.38,0.5,0.61c0.66,1.85,1.08,3.77,1.48,5.69c0.34,1.61,0.6,3.24,0.89,4.86c0.05,0.3,0.04,0.62,0.06,0.93
		c0.03,0.72-0.05,1.46,0.25,2.15c0.04,0.09,0.04,0.2,0.04,0.31C212.78,239.23,212.82,241.46,212.74,243.59z M219.87,235.61
		c-1.69,2.44-3.63,4.77-6.11,7.11c-0.03-0.66-0.04-1.02-0.06-1.37c-0.04-1.08,0.09-2.18-0.27-3.24c-0.08-0.24-0.03-0.51-0.04-0.77
		c-0.03-0.98-0.01-1.95-0.25-2.93c-0.2-0.84-0.19-1.73-0.33-2.6c-0.5-3.23-1.17-6.4-2.49-9.41c-0.04-0.08,0-0.2,0.02-0.47
		c0.02-0.01,0.15-0.1,0.29-0.17c0.85-0.49,1.7-0.98,2.54-1.47c0.19,0.15,0.35,0.22,0.41,0.35c1.05,1.96,2.19,3.89,3.11,5.92
		c1.07,2.35,2.25,4.67,3.02,7.15C219.9,234.29,220.03,234.88,219.87,235.61z M220.98,233.77c-0.34,0.05-0.44-0.22-0.53-0.45
		c-0.34-0.87-0.64-1.75-1.01-2.61c-0.83-1.9-1.64-3.81-2.56-5.67c-0.73-1.48-1.62-2.89-2.43-4.34c-0.15-0.26-0.27-0.54-0.44-0.9
		c1.12-0.68,2.17-1.32,3.19-1.95c0.35,0.01,0.45,0.26,0.58,0.48c0.83,1.38,1.67,2.75,2.5,4.13c0.99,1.65,2.05,3.24,3.32,4.69
		c0.23,0.27,0.39,0.6,0.56,0.87C223.45,229.7,221.76,232.74,220.98,233.77z M224.75,226.34c-0.89-1.12-1.6-2.26-2.3-3.4
		c-1.04-1.68-2.09-3.35-2.98-5.1c-0.68-1.34-1.47-2.61-2.17-3.94c-1.83-3.5-3.63-7.01-5.46-10.5c-0.31-0.59-0.68-1.15-1.12-1.89
		c1.97-1.99,3.98-3.94,5.87-5.84c0.42-0.01,0.47,0.19,0.57,0.38c0.88,1.82,1.74,3.66,2.67,5.46c2,3.88,3.7,7.89,5.29,11.94
		c0.86,2.17,1.46,4.42,1.93,6.71c0.12,0.6,0.07,1.24,0.1,1.86C226.35,223.44,225.57,224.84,224.75,226.34z M234.26,204.01
		c-0.55,2.63-1.09,5.27-2.04,7.8c-0.05,0.14-0.16,0.26-0.36,0.58c-0.19-0.38-0.3-0.55-0.36-0.73c-0.51-1.52-0.98-3.06-1.54-4.57
		c-0.7-1.89-1.45-3.77-2.23-5.63c-0.58-1.38-1.2-2.76-1.9-4.09c-0.6-1.15-1.32-2.23-2-3.32c-0.13-0.2-0.34-0.41-0.7-0.11
		c3.57,6.09,6.07,12.64,8,19.43c0.09,0.33,0.01,0.72,0.01,1.21c-0.41,0.83-0.86,1.76-1.34,2.68c-0.49,0.91-1.01,1.8-1.52,2.7
		c-0.38,0.04-0.44-0.24-0.48-0.47c-0.37-2.15-1.07-4.21-1.83-6.25c-2.11-5.7-4.86-11.12-7.62-16.52c-0.28-0.55-0.6-1.07-0.92-1.64
		c0.16-0.24,0.28-0.48,0.45-0.66c1.2-1.29,2.5-2.46,3.96-3.59c0.33,0.29,0.66,0.53,0.94,0.81c2.31,2.31,4.63,4.63,6.92,6.96
		c1.38,1.41,2.87,2.69,4.39,3.83C234.41,202.98,234.36,203.52,234.26,204.01z M234.47,200.87c-0.32-0.15-0.48-0.18-0.58-0.27
		c-1.48-1.38-2.98-2.74-4.41-4.17c-1.18-1.17-2.27-2.42-3.41-3.63c-1.1-1.17-2.21-2.34-3.33-3.49c-0.47-0.48-1.01-0.89-1.49-1.36
		c-1.3-1.27-2.58-2.56-3.88-3.84c-0.41-0.4-0.82-0.79-1.27-1.2c-0.07-0.34,0.25-0.5,0.46-0.69c0.87-0.81,1.77-1.59,2.64-2.41
		c0.44-0.42,0.83-0.9,1.22-1.32c0.57-0.03,0.8,0.36,1.04,0.67c2.21,2.87,4.42,5.74,6.6,8.63c2.37,3.14,4.7,6.31,7.08,9.52
		C235.47,198.53,234.77,199.58,234.47,200.87z M236.76,189.9c-0.07,1.19-0.24,2.37-0.39,3.54c-0.04,0.33-0.21,0.64-0.35,1.06
		c-0.59-1.25-1.11-2.37-1.65-3.48c-1.04-2.15-2.24-4.21-3.41-6.28c-1.15-2.03-2.37-4.01-3.62-5.98c-1.58-2.49-3.31-4.88-5.22-7.13
		c-0.93-1.1-1.73-2.32-2.77-3.34c-0.13-0.13-0.29-0.23-0.48-0.37c-0.02,0.18-0.08,0.31-0.04,0.36c0.69,0.84,1.4,1.66,2.09,2.5
		c0.36,0.44,0.69,0.9,1.05,1.35c1.52,1.9,2.98,3.85,4.29,5.89c1.26,1.96,2.48,3.94,3.65,5.96c1.35,2.33,2.71,4.66,3.87,7.1
		c0.33,0.7,0.61,1.43,0.94,2.13c0.31,0.65,0.67,1.28,1.11,2.1c-0.01,0.19-0.04,0.58-0.07,0.97c-0.51-0.06-0.7-0.4-0.9-0.68
		c-1.85-2.49-3.67-5.01-5.54-7.49c-1.62-2.15-3.28-4.27-4.94-6.38c-1.02-1.3-2.08-2.57-3.13-3.86c0.17-0.84,0.86-1.22,1.51-1.71
		c-0.26-1.01-1.17-1.55-1.68-2.36c-0.5-0.78-1.15-1.46-1.72-2.2c-0.6-0.78-1.2-1.56-1.77-2.36c-0.54-0.75-1.06-1.53-1.64-2.37
		c0.52-0.93,1.33-1.6,2.26-2.27c3.01,1.81,5.71,3.99,8.48,6.06c2.74,2.05,5.43,4.16,8.2,6.29c0.24,0.37,0.52,0.81,0.87,1.36
		c0.62,2.6,1.11,5.34,1.04,8.16C236.77,187.61,236.83,188.76,236.76,189.9z M236.08,162.19c0.08,0.46,0.06,0.93,0.08,1.4
		c0.04,0.78-0.02,1.55,0.21,2.32c0.09,0.29,0.1,0.63,0.03,0.93c-0.31,1.33-0.2,2.68-0.28,4.03c-0.02,0.31-0.02,0.63-0.45,0.83
		c-0.39-0.64-0.8-1.27-1.18-1.93c-0.9-1.57-1.76-3.17-2.69-4.73c-1.09-1.82-2.24-3.61-3.37-5.41c-0.28-0.44-0.6-0.84-0.71-1.56
		c0.97-0.54,1.82-1.2,2.9-1.49c0.48,1.23,0.89,2.4,1.4,3.53c0.48,1.08,0.99,2.15,1.75,3.36c0.04-0.36,0.09-0.5,0.05-0.6
		c-0.6-1.54-1.22-3.08-1.81-4.63c-0.25-0.67-0.65-1.31-0.49-2.13c0.52-0.8,1.45-1.07,2.24-1.71c0.18,0.31,0.34,0.51,0.42,0.74
		C235.03,157.44,235.66,159.78,236.08,162.19z M253.9,121.54c-0.01,0.62-0.12,1.23-0.18,1.85c-0.03,0.31-0.09,0.62-0.07,0.93
		c0.07,1.26-0.22,2.48-0.39,3.7c-0.12,0.87-0.41,1.7-0.8,2.51c-1.35,2.82-3.05,5.41-4.89,7.93c-2.55,3.5-5.55,6.58-8.68,9.54
		c-1.01,0.96-2.15,1.79-3.24,2.67c-0.11,0.09-0.27,0.13-0.36,0.17c-0.32-0.06-0.32-0.29-0.37-0.48c-0.12-0.5-0.21-1.01-0.35-1.51
		c-0.36-1.3-0.83-2.55-1.61-3.68c-1.98-2.86-3.98-5.69-6.48-8.13c-0.18-0.18-0.33-0.38-0.53-0.61c0.21-0.34,0.38-0.66,0.6-0.94
		c0.52-0.65,1.03-1.31,1.61-1.9c1.1-1.13,1.91-2.45,2.75-3.76c0.93-1.45,1.49-3.05,1.86-4.75c0.31-1.38,0.28-2.77,0.52-4.15
		c0.27-1.59-0.16-3.19-0.37-4.78c-0.09-0.66-0.28-1.31-0.46-1.96c-0.61-2.26-1.83-4.16-3.45-5.82c-0.94-0.96-1.84-1.99-3.03-2.67
		c-0.58-0.33-1.18-0.65-1.81-0.9c-0.51-0.2-1.05-0.48-1.64-0.11c-0.41-0.98-0.88-1.79-0.65-2.87c0.2-0.15,0.42-0.37,0.68-0.51
		c1.33-0.69,2.58-1.52,4-2.07c1.67-0.64,3.34-1,5.14-1.06c4.04-0.14,7.64,1.17,11.07,3.12c1.67,0.95,3.27,2.01,4.73,3.25
		c2.24,1.9,4.18,4.04,5.2,6.86c0.51,1.41,0.8,2.87,0.96,4.38C253.88,117.72,253.93,119.63,253.9,121.54z M222.81,105.43
		c-0.01-0.03,0.04-0.09,0.07-0.13c0.19-0.2,0.38-0.09,0.56,0c4.1,1.86,6.63,5.02,7.73,9.36c0.19,0.75,0.38,1.5,0.35,2.3
		c-0.01,0.3,0.06,0.62,0.13,0.92c0.19,0.93,0.17,1.85,0.02,2.78c-0.07,0.41-0.14,0.82-0.15,1.23c-0.04,2.71-0.83,5.21-2.23,7.5
		c-0.67,1.1-1.51,2.1-2.3,3.13c-0.47,0.62-0.98,1.2-1.49,1.79c-0.23,0.26-0.52,0.49-0.83,0.77c-0.57-0.42-1.12-0.8-1.64-1.21
		c-2.07-1.63-4.12-3.3-6.22-4.9c-1.07-0.82-2.19-1.58-3.34-2.27c-0.75-0.45-1.59-0.73-2.45-1.11c0.29-0.56,0.77-0.87,1.18-1.24
		c0.57-0.52,1.17-1.01,1.76-1.52c2.51-2.17,4.84-4.54,7.22-6.85c1-0.97,2.05-1.9,3.07-2.86c0.26-0.24,0.46-0.54,0.7-0.82
		C224.19,109.87,223.49,107.65,222.81,105.43z M256.37,117.48c-0.01,0.76-0.23,1.52-0.36,2.28c-0.04,0.01-0.09,0.03-0.1,0.02
		c-0.04-0.03-0.08-0.08-0.08-0.12c-0.11-0.92-0.29-1.85-0.29-2.78c-0.01-2.33-0.65-4.51-1.54-6.62c-0.63-1.5-1.67-2.74-2.74-3.95
		c-1.84-2.08-4.11-3.64-6.43-5.12c-2.78-1.78-5.8-3-9.01-3.74c-1.83-0.42-3.69-0.61-5.56-0.43c-2.51,0.25-4.84,1.08-6.99,2.42
		c-0.83,0.52-1.68,1.01-2.67,1.6c-0.36,0.38-0.4,0.99-0.25,1.62c0.2,0.8,0.43,1.6,0.68,2.39c0.57,1.78,1.17,3.55,1.76,5.32
		c0.18,0.54,0.39,1.08,0.21,1.77c-0.93,1.06-2.05,2.07-3.14,3.1c-0.53,0.49-1.1,0.94-1.63,1.44c-2.05,1.91-4.05,3.88-6.15,5.74
		c-1.01,0.9-2.02,1.79-2.98,2.74c-0.21,0.21-0.38,0.46-0.62,0.76c0.24,0.16,0.39,0.35,0.56,0.37c2.51,0.23,4.44,1.66,6.32,3.13
		c2.13,1.66,4.22,3.36,6.3,5.07c0.68,0.56,1.28,1.21,1.94,1.85c-0.05,0.36-0.11,0.71-0.15,1.01c0.39,0.66,1.05,0.42,1.73,0.6
		c0.45,0.46,1.04,0.96,1.52,1.57c1.63,2.08,3.33,4.1,4.68,6.4c0.51,0.87,0.87,1.76,1.15,2.71c0.34,1.14,0.66,2.29,1.01,3.52
		c-0.21,0.21-0.43,0.52-0.72,0.71c-1.3,0.85-2.61,1.69-3.94,2.51c-1.41,0.88-2.9,1.6-4.44,2.24c-2.02,0.85-4.1,1.44-6.26,1.78
		c-0.87,0.14-1.74,0.28-2.62,0.27c-0.83-0.01-1.66-0.01-2.45-0.32c-0.19-0.08-0.4-0.17-0.6-0.17c-2.43-0.04-4.3-1.38-6.16-2.68
		c-0.84-0.59-1.64-1.28-2.34-2.05c-1.85-2.04-3.46-4.24-4.62-6.78c-0.96-2.09-1.76-4.2-2.27-6.44c-0.31-1.37-0.45-2.75-0.59-4.14
		c-0.37-3.84-0.24-7.68-0.22-11.52c0-0.67,0.14-1.34,0.18-2.01c0.04-0.67,0.07-1.35,0.07-2.02c0.02-1.19,0.08-2.38,0.32-3.56
		c0.34-1.67,0.61-3.35,0.91-5.03c0.3-1.7,0.89-3.3,1.54-4.89c1.38-3.39,3.31-6.47,5.67-9.25c1.61-1.9,3.41-3.63,5.42-5.13
		c2.38-1.77,4.91-3.3,7.6-4.56c2.4-1.12,4.88-2,7.39-2.57l1.4-0.21c0.82-0.31,1.62-0.5,2.43-0.52c1.51-0.04,3.02-0.11,4.52,0.01
		c1.92,0.16,3.76,0.72,5.52,1.52c2.39,1.08,4.49,2.6,6.39,4.39c3.4,3.22,6,7.02,7.95,11.25c1.23,2.69,2.09,5.5,2.56,8.45
		C256.5,113.46,256.4,115.46,256.37,117.48z"/>
	<path d="M213.39,211.13c0,0.01,0,0.01-0.01,0.02c0,0,0.01,0,0.01,0c0-0.01,0.01-0.01,0.01-0.02
		C213.4,211.13,213.39,211.13,213.39,211.13z"/>
	<path d="M90,165.63c-1.83-0.33-3.7-0.44-5.54-0.71c-1.95-0.28-3.89-0.56-5.86-0.6c-0.21,0-0.43,0.01-0.62-0.06
		c-0.76-0.27-1.54-0.19-2.31-0.22c-0.78-0.03-1.58,0.05-2.33-0.1c-0.78-0.15-1.54-0.19-2.32-0.19c-4.26,0-8.52,0-12.78,0.01
		c-0.47,0-0.96-0.05-1.39,0.07c-0.77,0.21-1.54,0.18-2.32,0.2c-1.04,0.03-2.1-0.08-3.11,0.1c-1.14,0.2-2.27,0.2-3.41,0.25
		c-0.41,0.02-0.84-0.01-1.24,0.09c-0.36,0.09-0.81,0.11-1.09,0.54c0.32,0.34,0.69,0.32,1.03,0.32c2.34-0.01,4.67-0.03,7.01-0.05
		c0.26,0,0.51-0.05,0.77-0.08c0.51-0.06,1.03-0.16,1.54-0.16c5.4-0.01,10.8-0.01,16.2,0c0.41,0,0.83,0.04,1.24,0.07
		c0.62,0.06,1.23,0.15,1.85,0.19c1.86,0.13,3.72,0.24,5.58,0.36c0.05,0,0.1,0.01,0.15,0.02c1.33,0.18,2.66,0.38,3.99,0.55
		c1.9,0.24,3.81,0.39,5.69,0.71c3.06,0.52,6.09,1.16,9.14,1.73c0.13,0.02,0.28-0.05,0.54-0.1c-0.6-0.61-1.28-0.84-1.95-1.08
		C95.74,166.47,92.84,166.14,90,165.63z"/>
	<path d="M183.21,189.12c-0.82-1.85-1.63-3.7-2.45-5.55c-0.8-1.8-1.56-3.62-2.42-5.39c-1.59-3.26-3.16-6.54-4.98-9.69
		c-1.04-1.79-2.06-3.6-3.12-5.38c-1.3-2.18-2.6-4.36-3.94-6.52c-0.92-1.5-1.88-2.98-2.85-4.45c-0.39-0.6-0.83-1.17-1.74-1.25
		c0.5,0.91,0.96,1.83,1.49,2.72c1,1.69,2.05,3.36,3.06,5.05c1.12,1.87,2.18,3.77,3.32,5.62c1.96,3.18,3.74,6.46,5.46,9.78
		c1.2,2.3,2.33,4.64,3.48,6.97c0.16,0.33,0.33,0.65,0.47,0.98c0.65,1.47,1.3,2.94,1.93,4.41c0.86,2,1.73,3.99,2.56,6.01
		c0.55,1.34,1.03,2.71,1.58,4.05c0.24,0.61,0.46,1.25,1.04,1.8c0.24-0.63,0.11-1.11-0.05-1.6
		C185.27,194.1,184.31,191.58,183.21,189.12z"/>
	<path d="M92.22,110c1.17,2.07,2.43,4.09,3.52,6.21c1.33,2.58,2.7,5.13,3.8,7.82c1.14,2.77,2.35,5.52,3.51,8.28
		c0.27,0.64,0.64,1.19,1.19,1.6c0.1,0.07,0.26,0.06,0.53,0.12c-3.78-9.2-7.88-18.09-13.61-26.09
		C91.51,108.62,91.84,109.33,92.22,110z"/>
	<path d="M188.27,118.55c-1.64-1.8-3.43-3.46-5.14-5.2c-0.56-0.57-1.2-0.99-1.95-1.25c-0.12-0.04-0.28,0.02-0.42,0.04
		c-0.08,0.56,0.35,0.76,0.63,1.03c2.89,2.91,5.79,5.8,8.68,8.72c0.47,0.48,0.86,1.03,1.32,1.52c0.6,0.65,1.21,1.28,1.83,1.91
		c0.09,0.09,0.24,0.13,0.56,0.3c-0.18-0.36-0.24-0.53-0.34-0.68C191.91,122.66,190.12,120.58,188.27,118.55z"/>
	<path d="M75.2,104.63c-1.89,2.46-3.28,5.25-4.89,7.9c-0.26,0.43-0.58,0.86-0.57,1.49c0.26,0.04,0.51,0.07,0.96,0.14
		c1.79-3.11,3.45-6.2,5.45-9.11c-0.18-0.13-0.3-0.24-0.43-0.3C75.58,104.69,75.43,104.68,75.2,104.63z"/>
	<path d="M99.02,63.63c0.51-0.18,1.2-0.41,1.86-0.68c0.58-0.24,1.12-0.54,1.69-0.8c2.32-1.03,4.65-2.05,6.97-3.06
		c1.81-0.78,3.61-1.58,5.43-2.31c3.12-1.26,6.26-2.47,9.4-3.7c3.23-1.27,6.51-2.4,9.86-3.33c0.34-0.1,0.72-0.14,1.07-0.13
		c0.61,0.02,1.22,0.1,1.87,0.16c0.08-0.09,0.18-0.2,0.31-0.36c-0.72-0.75-1.72-0.69-2.65-1c-0.28,0.07-0.48,0.15-0.68,0.15
		c-1.77-0.01-3.49,0.34-5.22,0.66c-2.94,0.55-5.9,1.05-8.85,1.54c-3.28,0.55-6.46,1.44-9.6,2.51c-2.22,0.76-4.31,1.78-6.35,2.92
		c-2.11,1.17-3.77,2.9-5.39,4.66c-0.5,0.54-0.8,1.2-0.98,1.86C97.97,63.26,98.32,63.53,99.02,63.63z"/>
	<path d="M107.54,69.96c-1,0.64-1.74,1.5-1.79,2.83c-0.01,0.25-0.16,0.5-0.19,0.75c-0.14,1.6-0.27,3.2,0.66,4.57
		c0.64,0.49,1.26,0.65,1.97,0.41c0.74-0.54,1.21-1.25,1.37-2.16c0.2-1.06,0.41-2.12,0.59-3.09c-0.28-1.03-0.53-1.97-0.79-2.94
		C108.81,70.09,108.27,69.76,107.54,69.96z"/>
	<path d="M154.79,13.77c1.45-0.1,2.86-0.52,4.33-0.38c0.3,0.03,0.61-0.08,0.92-0.12c0.36-0.05,0.71-0.14,1.07-0.14
		c2.44-0.02,4.88-0.07,7.32-0.03c2.48,0.04,4.96-0.02,7.45,0.26c2.32,0.26,4.62,0.58,6.89,1.06c2.38,0.5,4.73,1.15,6.98,2.1
		c1.1,0.46,2.24,0.83,3.32,1.33c2.32,1.05,4.64,2.1,6.77,3.49c3.01,1.95,5.78,4.2,8.34,6.71c0.48,0.47,0.97,0.94,1.47,1.4
		c0.09,0.08,0.26,0.06,0.53,0.12c-0.97-1.59-2.23-2.75-3.33-4.04c-0.1-0.11-0.26-0.17-0.38-0.27c-0.28-0.23-0.57-0.45-0.82-0.71
		c-1.28-1.3-2.75-2.36-4.26-3.38c-3.55-2.39-7.44-4.11-11.43-5.59c-2.72-1.01-5.5-1.8-8.39-2.24c-1.53-0.23-3.05-0.59-4.61-0.56
		c-0.21,0-0.43,0.02-0.62-0.04c-0.91-0.3-1.85-0.24-2.78-0.24c-3.43-0.01-6.86,0-10.29,0.01c-0.42,0-0.85-0.05-1.24,0.05
		c-1.72,0.43-3.51,0.17-5.24,0.54c-1.11,0.24-2.26,0.23-3.38,0.43c-1.32,0.24-2.62,0.58-3.93,0.89c-0.12,0.03-0.22,0.16-0.33,0.25
		c0.56,0,1.1-0.05,1.65-0.18C152.14,14.17,153.46,13.86,154.79,13.77z"/>
	<path d="M149.18,14.65c-0.01,0-0.02,0-0.04,0l0.01,0.02C149.17,14.66,149.17,14.66,149.18,14.65z"/>
	<path d="M147,15.28c0.77,0.01,1.5-0.1,2.12-0.61C148.35,14.65,147.62,14.76,147,15.28z"/>
	<path d="M149.14,14.65c-0.01,0.01-0.02,0.01-0.02,0.02c0.01,0,0.02,0,0.04,0L149.14,14.65z"/>
	<path d="M147,15.28c-0.01,0-0.03,0-0.04,0l0.01,0.02C146.98,15.29,146.99,15.28,147,15.28z"/>
	<path d="M146.94,15.3c-0.23,0.01-0.46,0.02-0.69,0.04C146.53,15.58,146.76,15.58,146.94,15.3z"/>
	<path d="M146.96,15.28c-0.01,0.01-0.01,0.01-0.02,0.02c0.01,0,0.02,0,0.03,0L146.96,15.28z"/>
	<path d="M60.68,69.29c-0.19,0.5-0.45,1.11-0.65,1.75c-0.18,0.54-0.25,1.11-0.44,1.64c-0.32,0.86-0.32,1.72-0.19,2.61
		c0.64,0.87,1.46,1.29,2.56,1.05c1.2-0.71,1.6-1.9,1.74-3.14c0.15-1.33,0.13-2.68-0.05-4.07C62.57,68.34,61.68,68.52,60.68,69.29z"
		/>
	<path d="M201.27,244.7c-0.23,1.16-0.54,2.3-0.73,3.48c-0.27,1.62-0.8,3.2-1.22,4.8c-0.09,0.35-0.18,0.7-0.22,1.05
		c-0.01,0.11,0.13,0.23,0.33,0.56c0.32-0.64,0.61-1.04,0.73-1.48c0.38-1.39,0.76-2.79,1.03-4.21c0.27-1.41,0.41-2.85,0.59-4.28
		c0.01-0.09-0.14-0.21-0.26-0.38C201.4,244.45,201.29,244.57,201.27,244.7z"/>
</g>
</svg>
